savate-serif.ufo
<glyph name="quotedbl" format="1">
  <advance width="380"/>
  <unicode hex="0022"/>
  <outline>
    <contour>
      <point x="298" y="497" type="line"/>
      <point x="240" y="497" type="line"/>
      <point x="210" y="780" type="line"/>
      <point x="340" y="780" type="line"/>
    </contour>
    <contour>
      <point x="108" y="497" type="line"/>
      <point x="50" y="497" type="line"/>
      <point x="20" y="780" type="line"/>
      <point x="150" y="780" type="line"/>
    </contour>
  </outline>
</glyph>
<glyph name="numbersign" format="1">
  <advance width="530"/>
  <unicode hex="0023"/>
  <outline>
    <contour>
      <point x="327" y="201" type="line"/>
      <point x="352" y="343" type="line"/>
      <point x="196" y="343" type="line"/>
      <point x="172" y="201" type="line"/>
    </contour>
    <contour>
      <point x="282" y="-50" type="line"/>
      <point x="305" y="77" type="line"/>
      <point x="150" y="77" type="line"/>
      <point x="128" y="-50" type="line"/>
      <point x="68" y="-50" type="line"/>
      <point x="90" y="77" type="line"/>
      <point x="25" y="77" type="line"/>
      <point x="52" y="201" type="line"/>
      <point x="112" y="201" type="line"/>
      <point x="136" y="343" type="line"/>
      <point x="69" y="343" type="line"/>
      <point x="97" y="491" type="line"/>
      <point x="162" y="491" type="line"/>
      <point x="181" y="600" type="line"/>
      <point x="241" y="600" type="line"/>
      <point x="222" y="491" type="line"/>
      <point x="379" y="491" type="line"/>
      <point x="398" y="600" type="line"/>
      <point x="458" y="600" type="line"/>
      <point x="439" y="491" type="line"/>
      <point x="505" y="491" type="line"/>
      <point x="477" y="343" type="line"/>
      <point x="413" y="343" type="line"/>
      <point x="389" y="201" type="line"/>
      <point x="457" y="201" type="line"/>
      <point x="437" y="77" type="line"/>
      <point x="367" y="77" type="line"/>
      <point x="345" y="-50" type="line"/>
    </contour>
  </outline>
</glyph>
<glyph name="dollar" format="1">
  <advance width="730"/>
  <unicode hex="0024"/>
  <outline>
    <contour>
      <point x="184" y="490" type="curve" smooth="yes"/>
      <point x="184" y="447"/>
      <point x="209" y="416"/>
      <point x="343" y="402" type="curve"/>
      <point x="343" y="591" type="line"/>
      <point x="220" y="587"/>
      <point x="184" y="539"/>
    </contour>
    <contour>
      <point x="552" y="234" type="curve" smooth="yes"/>
      <point x="552" y="276"/>
      <point x="511" y="311"/>
      <point x="413" y="326" type="curve"/>
      <point x="413" y="139" type="line"/>
      <point x="512" y="148"/>
      <point x="552" y="186"/>
    </contour>
    <contour>
      <point x="413" y="-85" type="line"/>
      <point x="343" y="-85" type="line"/>
      <point x="343" y="-10" type="line"/>
      <point x="211" y="-4"/>
      <point x="93" y="54"/>
      <point x="63" y="124" type="curve"/>
      <point x="108" y="261" type="line"/>
      <point x="135" y="196"/>
      <point x="242" y="144"/>
      <point x="343" y="138" type="curve"/>
      <point x="343" y="333" type="line"/>
      <point x="147" y="352"/>
      <point x="95" y="423"/>
      <point x="95" y="547" type="curve" smooth="yes"/>
      <point x="95" y="664"/>
      <point x="185" y="755"/>
      <point x="343" y="760" type="curve"/>
      <point x="343" y="830" type="line"/>
      <point x="413" y="830" type="line"/>
      <point x="413" y="757" type="line"/>
      <point x="517" y="744"/>
      <point x="589" y="697"/>
      <point x="618" y="650" type="curve"/>
      <point x="586" y="519" type="line"/>
      <point x="556" y="544"/>
      <point x="498" y="577"/>
      <point x="413" y="588" type="curve"/>
      <point x="413" y="395" type="line"/>
      <point x="584" y="370"/>
      <point x="648" y="295"/>
      <point x="647" y="187" type="curve" smooth="yes"/>
      <point x="647" y="72"/>
      <point x="562" y="4"/>
      <point x="413" y="-8" type="curve"/>
    </contour>
  </outline>
</glyph>
<glyph name="quotesingle" format="1">
  <advance width="180"/>
  <unicode hex="0027"/>
  <outline>
    <contour>
      <point x="113" y="497" type="line"/>
      <point x="55" y="497" type="line"/>
      <point x="25" y="780" type="line"/>
      <point x="155" y="780" type="line"/>
    </contour>
  </outline>
</glyph>
<glyph name="parenright" format="1">
  <advance width="330"/>
  <unicode hex="0029"/>
  <outline>
    <contour>
      <point x="142" y="-9" type="line"/>
      <point x="246" y="44"/>
      <point x="285" y="141"/>
      <point x="285" y="271" type="curve" smooth="yes"/>
      <point x="284" y="439"/>
      <point x="236" y="566"/>
      <point x="127" y="622" type="curve"/>
      <point x="108" y="810" type="line"/>
      <point x="255" y="756"/>
      <point x="340" y="583"/>
      <point x="340" y="269" type="curve" smooth="yes"/>
      <point x="340" y="6"/>
      <point x="262" y="-158"/>
      <point x="115" y="-210" type="curve"/>
    </contour>
  </outline>
</glyph>
<glyph name="asterisk" format="1">
  <advance width="430"/>
  <unicode hex="002A"/>
  <outline>
    <contour>
      <point x="254" y="475" type="line"/>
      <point x="215" y="586" type="line"/>
      <point x="173" y="475" type="line"/>
      <point x="93" y="534" type="line"/>
      <point x="191" y="610" type="line"/>
      <point x="70" y="610" type="line"/>
      <point x="99" y="703" type="line"/>
      <point x="197" y="639" type="line"/>
      <point x="158" y="752" type="line"/>
      <point x="264" y="752" type="line"/>
      <point x="234" y="639" type="line"/>
      <point x="331" y="703" type="line"/>
      <point x="360" y="610" type="line"/>
      <point x="238" y="610" type="line"/>
      <point x="337" y="534" type="line"/>
    </contour>
  </outline>
</glyph>
<glyph name="zero" format="1">
  <advance width="630"/>
  <unicode hex="0030"/>
  <outline>
    <contour>
      <point x="315" y="-10" type="curve" smooth="yes"/>
      <point x="152" y="-10"/>
      <point x="35" y="89"/>
      <point x="35" y="341" type="curve" smooth="yes"/>
      <point x="35" y="635"/>
      <point x="149" y="738"/>
      <point x="315" y="738" type="curve" smooth="yes"/>
      <point x="481" y="738"/>
      <point x="595" y="635"/>
      <point x="595" y="341" type="curve" smooth="yes"/>
      <point x="595" y="89"/>
      <point x="478" y="-10"/>
    </contour>
    <contour>
      <point x="315" y="130" type="curve" smooth="yes"/>
      <point x="435" y="130"/>
      <point x="535" y="173"/>
      <point x="534" y="341" type="curve" smooth="yes"/>
      <point x="532" y="466"/>
      <point x="459" y="544"/>
      <point x="315" y="544" type="curve" smooth="yes"/>
      <point x="171" y="544"/>
      <point x="98" y="466"/>
      <point x="97" y="341" type="curve" smooth="yes"/>
      <point x="96" y="173"/>
      <point x="196" y="130"/>
    </contour>
  </outline>
</glyph>
<glyph name="one" format="1">
  <advance width="430"/>
  <unicode hex="0031"/>
  <outline>
    <contour>
      <point x="70" y="452" type="curve"/>
      <point x="70" y="633" type="line"/>
      <point x="113" y="633"/>
      <point x="212" y="677"/>
      <point x="222" y="730" type="curve"/>
      <point x="320" y="730" type="line"/>
      <point x="320" y="0" type="line"/>
      <point x="250" y="0" type="line"/>
      <point x="250" y="537" type="line"/>
      <point x="225" y="492"/>
      <point x="123" y="452"/>
    </contour>
  </outline>
</glyph>
<glyph name="three" format="1">
  <advance width="630"/>
  <unicode hex="0033"/>
  <outline>
    <contour>
      <point x="309" y="-10" type="curve" smooth="yes"/>
      <point x="220" y="-10"/>
      <point x="134" y="27"/>
      <point x="85" y="93" type="curve"/>
      <point x="134" y="185" type="line"/>
      <point x="172" y="147"/>
      <point x="254" y="127"/>
      <point x="321" y="127" type="curve" smooth="yes"/>
      <point x="440" y="127"/>
      <point x="501" y="165"/>
      <point x="499" y="234" type="curve" smooth="yes"/>
      <point x="497" y="295"/>
      <point x="431" y="344"/>
      <point x="250" y="325" type="curve" smooth="yes"/>
      <point x="174" y="317" type="line"/>
      <point x="375" y="565" type="line"/>
      <point x="118" y="565" type="line"/>
      <point x="118" y="730" type="line"/>
      <point x="540" y="730" type="line"/>
      <point x="542" y="680" type="line"/>
      <point x="358" y="444" type="line"/>
      <point x="492" y="434"/>
      <point x="560" y="368"/>
      <point x="560" y="231" type="curve" smooth="yes"/>
      <point x="560" y="60"/>
      <point x="462" y="-10"/>
    </contour>
  </outline>
</glyph>
<glyph name="four" format="1">
  <advance width="630"/>
  <unicode hex="0034"/>
  <outline>
    <contour>
      <point x="572" y="181" type="line"/>
      <point x="495" y="181" type="line"/>
      <point x="495" y="0" type="line"/>
      <point x="424" y="0" type="line"/>
      <point x="424" y="181" type="line"/>
      <point x="77" y="181" type="line"/>
      <point x="77" y="258" type="line"/>
      <point x="424" y="258" type="line"/>
      <point x="424" y="616" type="line"/>
      <point x="214" y="258" type="line"/>
      <point x="77" y="258" type="line"/>
      <point x="325" y="730" type="line"/>
      <point x="495" y="730" type="line"/>
      <point x="495" y="258" type="line"/>
      <point x="572" y="258" type="line"/>
    </contour>
  </outline>
</glyph>
<glyph name="five" format="1">
  <advance width="630"/>
  <unicode hex="0035"/>
  <outline>
    <contour>
      <point x="322" y="-10" type="curve" smooth="yes"/>
      <point x="201" y="-10"/>
      <point x="100" y="47"/>
      <point x="60" y="148" type="curve"/>
      <point x="125" y="208" type="line"/>
      <point x="148" y="167"/>
      <point x="222" y="117"/>
      <point x="323" y="117" type="curve" smooth="yes"/>
      <point x="450" y="117"/>
      <point x="510" y="162"/>
      <point x="509" y="230" type="curve" smooth="yes"/>
      <point x="508" y="290"/>
      <point x="452" y="336"/>
      <point x="338" y="336" type="curve" smooth="yes"/>
      <point x="269" y="336"/>
      <point x="204" y="323"/>
      <point x="175" y="279" type="curve"/>
      <point x="93" y="348" type="line"/>
      <point x="163" y="730" type="line"/>
      <point x="516" y="730" type="line"/>
      <point x="521" y="566" type="line"/>
      <point x="205" y="566" type="line"/>
      <point x="174" y="393" type="line"/>
      <point x="196" y="427"/>
      <point x="266" y="455"/>
      <point x="351" y="455" type="curve" smooth="yes"/>
      <point x="484" y="455"/>
      <point x="570" y="383"/>
      <point x="570" y="228" type="curve" smooth="yes"/>
      <point x="570" y="52"/>
      <point x="474" y="-10"/>
    </contour>
  </outline>
</glyph>
<glyph name="six" format="1">
  <advance width="630"/>
  <unicode hex="0036"/>
  <outline>
    <contour>
      <point x="560" y="226" type="curve" smooth="yes"/>
      <point x="560" y="93"/>
      <point x="476" y="-10"/>
      <point x="318" y="-10" type="curve" smooth="yes"/>
      <point x="155" y="-10"/>
      <point x="70" y="83"/>
      <point x="70" y="284" type="curve" smooth="yes"/>
      <point x="70" y="643"/>
      <point x="167" y="740"/>
      <point x="322" y="740" type="curve" smooth="yes"/>
      <point x="408" y="740"/>
      <point x="463" y="715"/>
      <point x="509" y="670" type="curve"/>
      <point x="483" y="545" type="line"/>
      <point x="433" y="575"/>
      <point x="380" y="585"/>
      <point x="318" y="585" type="curve" smooth="yes"/>
      <point x="210" y="585"/>
      <point x="136" y="533"/>
      <point x="130" y="388" type="curve"/>
      <point x="167" y="442"/>
      <point x="233" y="470"/>
      <point x="324" y="470" type="curve" smooth="yes"/>
      <point x="468" y="470"/>
      <point x="560" y="384"/>
    </contour>
    <contour>
      <point x="318" y="118" type="curve" smooth="yes"/>
      <point x="442" y="118"/>
      <point x="497" y="172"/>
      <point x="497" y="227" type="curve" smooth="yes"/>
      <point x="497" y="299"/>
      <point x="451" y="338"/>
      <point x="318" y="338" type="curve" smooth="yes"/>
      <point x="179" y="338"/>
      <point x="131" y="290"/>
      <point x="133" y="227" type="curve" smooth="yes"/>
      <point x="135" y="164"/>
      <point x="203" y="118"/>
    </contour>
  </outline>
</glyph>
<glyph name="seven" format="1">
  <advance width="530"/>
  <unicode hex="0037"/>
  <outline>
    <contour>
      <point x="218" y="0" type="curve"/>
      <point x="142" y="0" type="line"/>
      <point x="142" y="184"/>
      <point x="280" y="453"/>
      <point x="379" y="550" type="curve"/>
      <point x="54" y="550" type="line"/>
      <point x="54" y="730" type="line"/>
      <point x="493" y="730" type="line"/>
      <point x="493" y="584" type="line"/>
      <point x="341" y="408"/>
      <point x="218" y="199"/>
    </contour>
  </outline>
</glyph>
<glyph name="nine" format="1">
  <advance width="630"/>
  <unicode hex="0039"/>
  <outline>
    <contour>
      <point x="312" y="578" type="curve" smooth="yes"/>
      <point x="178" y="578"/>
      <point x="133" y="530"/>
      <point x="133" y="473" type="curve" smooth="yes"/>
      <point x="133" y="399"/>
      <point x="179" y="359"/>
      <point x="312" y="359" type="curve" smooth="yes"/>
      <point x="451" y="359"/>
      <point x="498" y="408"/>
      <point x="497" y="473" type="curve" smooth="yes"/>
      <point x="496" y="544"/>
      <point x="437" y="578"/>
    </contour>
    <contour>
      <point x="319" y="-10" type="curve" smooth="yes"/>
      <point x="223" y="-10"/>
      <point x="156" y="18"/>
      <point x="120" y="70" type="curve"/>
      <point x="144" y="189" type="line"/>
      <point x="180" y="150"/>
      <point x="229" y="127"/>
      <point x="312" y="127" type="curve" smooth="yes"/>
      <point x="420" y="127"/>
      <point x="494" y="184"/>
      <point x="500" y="341" type="curve"/>
      <point x="462" y="282"/>
      <point x="398" y="250"/>
      <point x="306" y="250" type="curve" smooth="yes"/>
      <point x="162" y="250"/>
      <point x="70" y="340"/>
      <point x="70" y="504" type="curve" smooth="yes"/>
      <point x="70" y="643"/>
      <point x="158" y="740"/>
      <point x="312" y="740" type="curve" smooth="yes"/>
      <point x="471" y="740"/>
      <point x="560" y="648"/>
      <point x="560" y="441" type="curve" smooth="yes"/>
      <point x="560" y="82"/>
      <point x="467" y="-10"/>
    </contour>
  </outline>
</glyph>
<glyph name="semicolon" format="1">
  <advance width="280"/>
  <unicode hex="003B"/>
  <outline>
    <contour>
      <point x="241" y="386" type="curve" smooth="yes"/>
      <point x="241" y="338"/>
      <point x="209" y="315"/>
      <point x="158" y="315" type="curve" smooth="yes"/>
      <point x="100" y="315"/>
      <point x="69" y="338"/>
      <point x="69" y="386" type="curve" smooth="yes"/>
      <point x="69" y="438"/>
      <point x="99" y="460"/>
      <point x="158" y="460" type="curve" smooth="yes"/>
      <point x="210" y="460"/>
      <point x="241" y="439"/>
    </contour>
    <contour>
      <point x="64" y="-172" type="curve"/>
      <point x="44" y="-158" type="line"/>
      <point x="110" y="-104"/>
      <point x="132" y="41"/>
      <point x="95" y="125" type="curve"/>
      <point x="221" y="125" type="line"/>
      <point x="240" y="8"/>
      <point x="170" y="-140"/>
    </contour>
  </outline>
</glyph>
<glyph name="greater" format="1">
  <advance width="530"/>
  <unicode hex="003E"/>
  <outline>
    <contour>
      <point x="470" y="251" type="line"/>
      <point x="60" y="80" type="line"/>
      <point x="60" y="204" type="line"/>
      <point x="415" y="301" type="line"/>
      <point x="60" y="420" type="line"/>
      <point x="60" y="560" type="line"/>
      <point x="470" y="349" type="line"/>
    </contour>
  </outline>
</glyph>
<glyph name="question" format="1">
  <advance width="530"/>
  <unicode hex="003F"/>
  <outline>
    <contour>
      <point x="319" y="309" type="curve" smooth="yes"/>
      <point x="275" y="303"/>
      <point x="218" y="292"/>
      <point x="218" y="244" type="curve" smooth="yes"/>
      <point x="218" y="225"/>
      <point x="229" y="197"/>
      <point x="241" y="174" type="curve"/>
      <point x="191" y="166" type="line"/>
      <point x="167" y="196"/>
      <point x="146" y="234"/>
      <point x="146" y="269" type="curve" smooth="yes"/>
      <point x="146" y="378"/>
      <point x="203" y="424"/>
      <point x="309" y="436" type="curve" smooth="yes"/>
      <point x="400" y="446"/>
      <point x="428" y="472"/>
      <point x="428" y="510" type="curve" smooth="yes"/>
      <point x="428" y="548"/>
      <point x="397" y="585"/>
      <point x="269" y="585" type="curve" smooth="yes"/>
      <point x="187" y="585"/>
      <point x="128" y="560"/>
      <point x="103" y="512" type="curve"/>
      <point x="42" y="571" type="line"/>
      <point x="69" y="682"/>
      <point x="144" y="738"/>
      <point x="269" y="738" type="curve" smooth="yes"/>
      <point x="405" y="738"/>
      <point x="488" y="657"/>
      <point x="488" y="517" type="curve" smooth="yes"/>
      <point x="488" y="385"/>
      <point x="424" y="323"/>
    </contour>
    <contour>
      <point x="311" y="46" type="curve" smooth="yes"/>
      <point x="311" y="8"/>
      <point x="285" y="-10"/>
      <point x="244" y="-10" type="curve" smooth="yes"/>
      <point x="198" y="-10"/>
      <point x="173" y="8"/>
      <point x="173" y="46" type="curve" smooth="yes"/>
      <point x="173" y="95"/>
      <point x="197" y="116"/>
      <point x="244" y="116" type="curve" smooth="yes"/>
      <point x="286" y="116"/>
      <point x="311" y="96"/>
    </contour>
  </outline>
</glyph>
<glyph name="at" format="1">
  <advance width="830"/>
  <unicode hex="0040"/>
  <outline>
    <contour>
      <point x="412" y="-200" type="curve" smooth="yes"/>
      <point x="137" y="-200"/>
      <point x="30" y="-21"/>
      <point x="30" y="224" type="curve" smooth="yes"/>
      <point x="30" y="516"/>
      <point x="221" y="720"/>
      <point x="444" y="720" type="curve" smooth="yes"/>
      <point x="668" y="720"/>
      <point x="795" y="607"/>
      <point x="795" y="364" type="curve" smooth="yes"/>
      <point x="795" y="104"/>
      <point x="665" y="13"/>
      <point x="589" y="13" type="curve" smooth="yes"/>
      <point x="537" y="13"/>
      <point x="503" y="29"/>
      <point x="490" y="83" type="curve"/>
      <point x="458" y="37"/>
      <point x="398" y="11"/>
      <point x="325" y="11" type="curve" smooth="yes"/>
      <point x="244" y="11"/>
      <point x="184" y="74"/>
      <point x="184" y="192" type="curve" smooth="yes"/>
      <point x="184" y="373"/>
      <point x="293" y="500"/>
      <point x="423" y="500" type="curve" smooth="yes"/>
      <point x="501" y="500"/>
      <point x="573" y="470"/>
      <point x="607" y="433" type="curve"/>
      <point x="545" y="150" type="line" smooth="yes"/>
      <point x="538" y="117"/>
      <point x="554" y="96"/>
      <point x="593" y="96" type="curve" smooth="yes"/>
      <point x="677" y="96"/>
      <point x="733" y="211"/>
      <point x="733" y="328" type="curve" smooth="yes"/>
      <point x="733" y="496"/>
      <point x="651" y="598"/>
      <point x="436" y="598" type="curve" smooth="yes"/>
      <point x="245" y="598"/>
      <point x="92" y="451"/>
      <point x="92" y="224" type="curve" smooth="yes"/>
      <point x="92" y="31"/>
      <point x="177" y="-87"/>
      <point x="403" y="-87" type="curve" smooth="yes"/>
      <point x="476" y="-87"/>
      <point x="544" y="-70"/>
      <point x="602" y="-38" type="curve"/>
      <point x="632" y="-103" type="line"/>
      <point x="581" y="-162"/>
      <point x="499" y="-200"/>
    </contour>
    <contour>
      <point x="348" y="112" type="curve" smooth="yes"/>
      <point x="404" y="111"/>
      <point x="459" y="125"/>
      <point x="489" y="158" type="curve"/>
      <point x="526" y="333" type="line"/>
      <point x="498" y="351"/>
      <point x="452" y="364"/>
      <point x="407" y="364" type="curve" smooth="yes"/>
      <point x="309" y="364"/>
      <point x="245" y="300"/>
      <point x="241" y="212" type="curve" smooth="yes"/>
      <point x="239" y="156"/>
      <point x="285" y="113"/>
    </contour>
  </outline>
</glyph>
<glyph name="A" format="1">
  <advance width="791"/>
  <unicode hex="0041"/>
  <outline>
    <contour>
      <point x="581" y="570" type="line"/>
      <point x="460" y="570"/>
      <point x="579" y="570"/>
      <point x="458" y="570" type="curve"/>
      <point x="328" y="730" type="line"/>
      <point x="581" y="730" type="line"/>
    </contour>
    <contour>
      <point x="771" y="0" type="line"/>
      <point x="670.667" y="0"/>
      <point x="570.333" y="0"/>
      <point x="470" y="0" type="curve"/>
      <point x="470" y="140" type="line"/>
      <point x="771" y="140" type="line"/>
    </contour>
    <contour>
      <point x="393" y="0" type="line"/>
      <point x="272" y="0"/>
      <point x="151" y="0"/>
      <point x="30" y="0" type="curve"/>
      <point x="30" y="140" type="line"/>
      <point x="393" y="140" type="line"/>
    </contour>
    <contour>
      <point x="538" y="278" type="line"/>
      <point x="421" y="583" type="line"/>
      <point x="301" y="278" type="line"/>
    </contour>
    <contour>
      <point x="644" y="0" type="line"/>
      <point x="567" y="202" type="line"/>
      <point x="271" y="202" type="line"/>
      <point x="192" y="0" type="line"/>
      <point x="72" y="0" type="line"/>
      <point x="328" y="730" type="line"/>
      <point x="451" y="730" type="line"/>
      <point x="718" y="0" type="line"/>
    </contour>
  </outline>
</glyph>
<glyph name="C" format="1">
  <advance width="660"/>
  <unicode hex="0043"/>
  <outline>
    <contour>
      <point x="564" y="730" type="line"/>
      <point x="622" y="730" type="line"/>
      <point x="622" y="481" type="line"/>
      <point x="602.667" y="481"/>
      <point x="583.333" y="481"/>
      <point x="564" y="481" type="curve"/>
    </contour>
    <contour>
      <point x="581" y="255" type="curve"/>
      <point x="640" y="210" type="line"/>
      <point x="607" y="69"/>
      <point x="507" y="-10"/>
      <point x="339" y="-10" type="curve" smooth="yes"/>
      <point x="167" y="-10"/>
      <point x="50" y="108"/>
      <point x="50" y="354" type="curve" smooth="yes"/>
      <point x="50" y="631"/>
      <point x="174.997" y="740"/>
      <point x="349" y="740" type="curve" smooth="yes"/>
      <point x="479" y="740"/>
      <point x="589" y="656"/>
      <point x="589" y="538" type="curve"/>
      <point x="564" y="481" type="line"/>
      <point x="529" y="525"/>
      <point x="458" y="553"/>
      <point x="349" y="553" type="curve" smooth="yes"/>
      <point x="198" y="553"/>
      <point x="113" y="472"/>
      <point x="112" y="342" type="curve" smooth="yes"/>
      <point x="111" y="211"/>
      <point x="190" y="129"/>
      <point x="353" y="129" type="curve" smooth="yes"/>
      <point x="467" y="129"/>
      <point x="555" y="177"/>
    </contour>
  </outline>
</glyph>
<glyph name="G" format="1">
  <advance width="690"/>
  <unicode hex="0047"/>
  <outline>
    <contour>
      <point x="567" y="740" type="line"/>
      <point x="626" y="740" type="line"/>
      <point x="626" y="485" type="line"/>
      <point x="606.667" y="485"/>
      <point x="586.333" y="485"/>
      <point x="567" y="485" type="curve"/>
    </contour>
    <contour>
      <point x="591" y="0" type="line"/>
      <point x="581" y="81" type="line"/>
      <point x="531" y="15"/>
      <point x="452" y="-10"/>
      <point x="350" y="-10" type="curve" smooth="yes"/>
      <point x="170" y="-10"/>
      <point x="50" y="107"/>
      <point x="50" y="354" type="curve" smooth="yes"/>
      <point x="50" y="633"/>
      <point x="178" y="740"/>
      <point x="352" y="740" type="curve" smooth="yes"/>
      <point x="482" y="740"/>
      <point x="595" y="658"/>
      <point x="595" y="535" type="curve"/>
      <point x="567" y="485" type="line"/>
      <point x="523" y="539"/>
      <point x="451" y="563"/>
      <point x="352" y="563" type="curve" smooth="yes"/>
      <point x="187" y="563"/>
      <point x="114" y="460"/>
      <point x="113" y="334" type="curve" smooth="yes"/>
      <point x="113" y="208"/>
      <point x="199" y="129"/>
      <point x="352" y="129" type="curve" smooth="yes"/>
      <point x="487" y="129"/>
      <point x="576" y="178"/>
      <point x="585" y="291" type="curve"/>
      <point x="380" y="291" type="line"/>
      <point x="380" y="364" type="line"/>
      <point x="645" y="364" type="line"/>
      <point x="645" y="0" type="line"/>
    </contour>
  </outline>
</glyph>
<glyph name="I" format="1">
  <advance width="480"/>
  <unicode hex="0049"/>
  <outline>
    <contour>
      <point x="420" y="0" type="line"/>
      <point x="60" y="0" type="line"/>
      <point x="60" y="141" type="line"/>
      <point x="206" y="141" type="line"/>
      <point x="206" y="550" type="line"/>
      <point x="66" y="550" type="line"/>
      <point x="66" y="730" type="line"/>
      <point x="414" y="730" type="line"/>
      <point x="414" y="550" type="line"/>
      <point x="278" y="550" type="line"/>
      <point x="278" y="141" type="line"/>
      <point x="420" y="141" type="line"/>
    </contour>
  </outline>
</glyph>
<glyph name="J" format="1">
  <advance width="510"/>
  <unicode hex="004A"/>
  <outline>
    <contour>
      <point x="500" y="555" type="line"/>
      <point x="379" y="555"/>
      <point x="235" y="555"/>
      <point x="114" y="555" type="curve"/>
      <point x="114" y="730" type="line"/>
      <point x="500" y="730" type="line"/>
    </contour>
    <contour>
      <point x="196" y="-10" type="curve" smooth="yes"/>
      <point x="129" y="-10"/>
      <point x="49" y="13"/>
      <point x="20" y="58" type="curve"/>
      <point x="46" y="172" type="line"/>
      <point x="84" y="144"/>
      <point x="141" y="129"/>
      <point x="192" y="129" type="curve" smooth="yes"/>
      <point x="274" y="129"/>
      <point x="325" y="183"/>
      <point x="325" y="306" type="curve" smooth="yes"/>
      <point x="325" y="555" type="line"/>
      <point x="114" y="555" type="line"/>
      <point x="114" y="730" type="line"/>
      <point x="395" y="730" type="line"/>
      <point x="395" y="276" type="line" smooth="yes"/>
      <point x="395" y="71"/>
      <point x="332" y="-10"/>
    </contour>
  </outline>
</glyph>
<glyph name="L" format="1">
  <advance width="535"/>
  <unicode hex="004C"/>
  <outline>
    <contour>
      <point x="447" y="246" type="line"/>
      <point x="505" y="246" type="line"/>
      <point x="505" y="-3" type="line"/>
      <point x="447" y="-3" type="line"/>
    </contour>
    <contour>
      <point x="292" y="552" type="line"/>
      <point x="171" y="552"/>
      <point x="171" y="552"/>
      <point x="50" y="552" type="curve"/>
      <point x="50" y="727" type="line"/>
      <point x="292" y="727" type="line"/>
    </contour>
    <contour>
      <point x="373" y="-3" type="line"/>
      <point x="272.667" y="-3"/>
      <point x="150.333" y="-3"/>
      <point x="50" y="-3" type="curve"/>
      <point x="50" y="137" type="line"/>
      <point x="373" y="137" type="line"/>
    </contour>
    <contour>
      <point x="505" y="-3" type="line"/>
      <point x="135" y="-3" type="line"/>
      <point x="135" y="727" type="line"/>
      <point x="203" y="727" type="line"/>
      <point x="203" y="137" type="line"/>
      <point x="505" y="137" type="line"/>
    </contour>
  </outline>
</glyph>
<glyph name="M" format="1">
  <advance width="970"/>
  <unicode hex="004D"/>
  <outline>
    <contour>
      <point x="930" y="555" type="line"/>
      <point x="809" y="555"/>
      <point x="897" y="555"/>
      <point x="776" y="555" type="curve"/>
      <point x="776" y="730" type="line"/>
      <point x="930" y="730" type="line"/>
    </contour>
    <contour>
      <point x="930" y="0" type="line"/>
      <point x="829.667" y="0"/>
      <point x="786.333" y="0"/>
      <point x="686" y="0" type="curve"/>
      <point x="686" y="140" type="line"/>
      <point x="930" y="140" type="line"/>
    </contour>
    <contour>
      <point x="213" y="555" type="line"/>
      <point x="92" y="555"/>
      <point x="171" y="555"/>
      <point x="50" y="555" type="curve"/>
      <point x="50" y="613.333"/>
      <point x="50" y="671.667"/>
      <point x="50" y="730" type="curve"/>
      <point x="213" y="730" type="line"/>
    </contour>
    <contour>
      <point x="303" y="0" type="line"/>
      <point x="202.667" y="0"/>
      <point x="150.333" y="0"/>
      <point x="50" y="0" type="curve"/>
      <point x="50" y="140" type="line"/>
      <point x="303" y="140" type="line"/>
    </contour>
    <contour>
      <point x="439" y="0" type="line"/>
      <point x="215" y="591" type="line"/>
      <point x="215" y="0" type="line"/>
      <point x="140" y="0" type="line"/>
      <point x="140" y="730" type="line"/>
      <point x="305" y="730" type="line"/>
      <point x="495" y="119" type="line"/>
      <point x="688" y="730" type="line"/>
      <point x="840" y="730" type="line"/>
      <point x="840" y="0" type="line"/>
      <point x="770" y="0" type="line"/>
      <point x="770" y="587" type="line"/>
      <point x="559" y="0" type="line"/>
    </contour>
  </outline>
</glyph>
<glyph name="O" format="1">
  <advance width="694"/>
  <unicode hex="004F"/>
  <outline>
    <contour>
      <point x="347" y="-10" type="curve" smooth="yes"/>
      <point x="175" y="-10"/>
      <point x="50" y="99"/>
      <point x="50" y="351" type="curve" smooth="yes"/>
      <point x="50" y="632"/>
      <point x="171" y="740"/>
      <point x="347" y="740" type="curve" smooth="yes"/>
      <point x="523" y="740"/>
      <point x="644" y="632"/>
      <point x="644" y="351" type="curve" smooth="yes"/>
      <point x="644" y="99"/>
      <point x="520" y="-10"/>
    </contour>
    <contour>
      <point x="347" y="129" type="curve" smooth="yes"/>
      <point x="476" y="129"/>
      <point x="584" y="184"/>
      <point x="583" y="351" type="curve" smooth="yes"/>
      <point x="581" y="464"/>
      <point x="501" y="544"/>
      <point x="347" y="544" type="curve" smooth="yes"/>
      <point x="192" y="544"/>
      <point x="113" y="464"/>
      <point x="112" y="351" type="curve" smooth="yes"/>
      <point x="111" y="185"/>
      <point x="220" y="129"/>
    </contour>
  </outline>
</glyph>
<glyph name="Q" format="1">
  <advance width="730"/>
  <unicode hex="0051"/>
  <outline>
    <contour>
      <point x="657" y="-85" type="line"/>
      <point x="567" y="-85" type="line"/>
      <point x="500" y="23" type="line"/>
      <point x="458" y="1"/>
      <point x="409" y="-10"/>
      <point x="355" y="-10" type="curve" smooth="yes"/>
      <point x="183" y="-10"/>
      <point x="58" y="99"/>
      <point x="58" y="351" type="curve" smooth="yes"/>
      <point x="58" y="632"/>
      <point x="179" y="740"/>
      <point x="355" y="740" type="curve" smooth="yes"/>
      <point x="531" y="740"/>
      <point x="652" y="632"/>
      <point x="652" y="351" type="curve" smooth="yes"/>
      <point x="652" y="217"/>
      <point x="617" y="124"/>
      <point x="558" y="65" type="curve"/>
    </contour>
    <contour>
      <point x="355" y="129" type="curve" smooth="yes"/>
      <point x="381" y="129"/>
      <point x="406" y="131"/>
      <point x="429" y="136" type="curve"/>
      <point x="338" y="282" type="line"/>
      <point x="416" y="282" type="line"/>
      <point x="496" y="160" type="line"/>
      <point x="554" y="192"/>
      <point x="592" y="252"/>
      <point x="591" y="351" type="curve" smooth="yes"/>
      <point x="589" y="464"/>
      <point x="509" y="544"/>
      <point x="355" y="544" type="curve" smooth="yes"/>
      <point x="200" y="544"/>
      <point x="121" y="464"/>
      <point x="120" y="351" type="curve" smooth="yes"/>
      <point x="119" y="185"/>
      <point x="228" y="129"/>
    </contour>
  </outline>
</glyph>
<glyph name="R" format="1">
  <advance width="768"/>
  <unicode hex="0052"/>
  <outline>
    <contour>
      <point x="373" y="555" type="line"/>
      <point x="252" y="555"/>
      <point x="171" y="555"/>
      <point x="50" y="555" type="curve"/>
      <point x="50" y="730" type="line"/>
      <point x="373" y="730" type="line"/>
    </contour>
    <contour>
      <point x="373" y="0" type="line"/>
      <point x="272.667" y="0"/>
      <point x="150.333" y="0"/>
      <point x="50" y="0" type="curve"/>
      <point x="50" y="140" type="line"/>
      <point x="373" y="140" type="line"/>
    </contour>
    <contour>
      <point x="632" y="-10" type="curve" smooth="yes"/>
      <point x="571" y="-10"/>
      <point x="531" y="44"/>
      <point x="511" y="166" type="curve" smooth="yes"/>
      <point x="502.809" y="215.969"/>
      <point x="460" y="244"/>
      <point x="401" y="244" type="curve" smooth="yes"/>
      <point x="226" y="244" type="line"/>
      <point x="226" y="0" type="line"/>
      <point x="155" y="0" type="line"/>
      <point x="155" y="730" type="line"/>
      <point x="395" y="730" type="line" smooth="yes"/>
      <point x="567" y="730"/>
      <point x="649" y="650"/>
      <point x="649" y="496" type="curve" smooth="yes"/>
      <point x="649" y="380"/>
      <point x="611" y="317"/>
      <point x="515" y="298" type="curve"/>
      <point x="548" y="275"/>
      <point x="565.849" y="240.797"/>
      <point x="574" y="198" type="curve" smooth="yes"/>
      <point x="582" y="156"/>
      <point x="601" y="138"/>
      <point x="631" y="138" type="curve" smooth="yes"/>
      <point x="667" y="138"/>
      <point x="700" y="166"/>
      <point x="723" y="222" type="curve"/>
      <point x="758" y="92" type="line"/>
      <point x="738" y="38"/>
      <point x="694" y="-10"/>
    </contour>
    <contour>
      <point x="434" y="369" type="line" smooth="yes"/>
      <point x="543" y="369"/>
      <point x="589" y="404"/>
      <point x="588" y="459" type="curve" smooth="yes"/>
      <point x="587" y="519"/>
      <point x="541" y="555"/>
      <point x="434" y="555" type="curve" smooth="yes"/>
      <point x="226" y="555" type="line"/>
      <point x="226" y="369" type="line"/>
    </contour>
  </outline>
</glyph>
<glyph name="S" format="1">
  <advance width="657"/>
  <unicode hex="0053"/>
  <outline>
    <contour>
      <point x="520" y="740" type="line"/>
      <point x="578" y="740" type="line"/>
      <point x="578" y="520" type="line"/>
      <point x="558.667" y="520"/>
      <point x="539.333" y="520"/>
      <point x="520" y="520" type="curve"/>
    </contour>
    <contour>
      <point x="50" y="262" type="line"/>
      <point x="108" y="262" type="line"/>
      <point x="108" y="0" type="line"/>
      <point x="88.667" y="0"/>
      <point x="69.333" y="0"/>
      <point x="50" y="0" type="curve"/>
    </contour>
    <contour>
      <point x="334" y="-10" type="curve" smooth="yes"/>
      <point x="206" y="-10"/>
      <point x="92" y="59"/>
      <point x="72" y="150" type="curve"/>
      <point x="108" y="262" type="line"/>
      <point x="137" y="193"/>
      <point x="217" y="137"/>
      <point x="324" y="137" type="curve" smooth="yes"/>
      <point x="460" y="137"/>
      <point x="513" y="179"/>
      <point x="513" y="234" type="curve" smooth="yes"/>
      <point x="513" y="283"/>
      <point x="457" y="322"/>
      <point x="321" y="332" type="curve" smooth="yes"/>
      <point x="111" y="348"/>
      <point x="56" y="420"/>
      <point x="56" y="547" type="curve" smooth="yes"/>
      <point x="56" y="667"/>
      <point x="151" y="760"/>
      <point x="317" y="760" type="curve" smooth="yes"/>
      <point x="439" y="760"/>
      <point x="531" y="682"/>
      <point x="548" y="607" type="curve"/>
      <point x="520" y="520" type="line"/>
      <point x="484" y="550"/>
      <point x="435" y="591"/>
      <point x="319" y="591" type="curve" smooth="yes"/>
      <point x="184" y="591"/>
      <point x="145" y="541"/>
      <point x="145" y="490" type="curve" smooth="yes"/>
      <point x="145" y="445"/>
      <point x="173" y="413"/>
      <point x="327" y="400" type="curve" smooth="yes"/>
      <point x="534" y="383"/>
      <point x="609" y="304"/>
      <point x="608" y="187" type="curve" smooth="yes"/>
      <point x="608" y="60"/>
      <point x="514" y="-10"/>
    </contour>
  </outline>
</glyph>
<glyph name="T" format="1">
  <advance width="610"/>
  <unicode hex="0054"/>
  <outline>
    <contour>
      <point x="30" y="706" type="line"/>
      <point x="88" y="706" type="line"/>
      <point x="88" y="457" type="line"/>
      <point x="30" y="457" type="line"/>
    </contour>
    <contour>
      <point x="522" y="706" type="line"/>
      <point x="580" y="706" type="line"/>
      <point x="580" y="457" type="line"/>
      <point x="522" y="457" type="line"/>
    </contour>
    <contour>
      <point x="456" y="0" type="line"/>
      <point x="355.667" y="0"/>
      <point x="255.333" y="0"/>
      <point x="155" y="0" type="curve"/>
      <point x="155" y="140" type="line"/>
      <point x="456" y="140" type="line"/>
    </contour>
    <contour>
      <point x="30" y="550" type="line"/>
      <point x="30" y="730" type="line"/>
      <point x="580" y="730" type="line"/>
      <point x="580" y="550" type="line"/>
      <point x="342" y="550" type="line"/>
      <point x="342" y="0" type="line"/>
      <point x="271" y="0" type="line"/>
      <point x="271" y="550" type="line"/>
    </contour>
  </outline>
</glyph>
<glyph name="X" format="1">
  <advance width="691"/>
  <unicode hex="0058"/>
  <outline>
    <contour>
      <point x="681" y="-1" type="line"/>
      <point x="580.667" y="-1"/>
      <point x="490.333" y="-1"/>
      <point x="390" y="-1" type="curve"/>
      <point x="390" y="139" type="line"/>
      <point x="681" y="139" type="line"/>
    </contour>
    <contour>
      <point x="681" y="575" type="line"/>
      <point x="560" y="575"/>
      <point x="478" y="575"/>
      <point x="357" y="575" type="curve"/>
      <point x="357" y="750" type="line"/>
      <point x="681" y="750" type="line"/>
    </contour>
    <contour>
      <point x="335" y="-1" type="line"/>
      <point x="234.667" y="-1"/>
      <point x="110.333" y="-1"/>
      <point x="10" y="-1" type="curve"/>
      <point x="10" y="139" type="line"/>
      <point x="335" y="139" type="line"/>
    </contour>
    <contour>
      <point x="311" y="575" type="line"/>
      <point x="190" y="575"/>
      <point x="168" y="575"/>
      <point x="47" y="575" type="curve"/>
      <point x="47" y="750" type="line"/>
      <point x="311" y="750" type="line"/>
    </contour>
    <contour>
      <point x="558" y="0" type="line"/>
      <point x="364" y="292" type="line"/>
      <point x="172" y="0" type="line"/>
      <point x="22" y="0" type="line"/>
      <point x="294" y="392" type="line"/>
      <point x="54" y="750" type="line"/>
      <point x="133" y="750" type="line"/>
      <point x="336" y="456" type="line"/>
      <point x="528" y="750" type="line"/>
      <point x="668" y="750" type="line"/>
      <point x="404" y="358" type="line"/>
      <point x="650" y="0" type="line"/>
    </contour>
  </outline>
</glyph>
<glyph name="Y" format="1">
  <advance width="697"/>
  <unicode hex="0059"/>
  <outline>
    <contour>
      <point x="501" y="-1" type="line"/>
      <point x="400.667" y="-1"/>
      <point x="278.333" y="-1"/>
      <point x="178" y="-1" type="curve"/>
      <point x="178" y="139" type="line"/>
      <point x="501" y="139" type="line"/>
    </contour>
    <contour>
      <point x="289" y="555" type="line"/>
      <point x="168" y="555"/>
      <point x="136" y="555"/>
      <point x="15" y="555" type="curve"/>
      <point x="15" y="730" type="line"/>
      <point x="289" y="730" type="line"/>
    </contour>
    <contour>
      <point x="687" y="555" type="line"/>
      <point x="566" y="555"/>
      <point x="467" y="555"/>
      <point x="346" y="555" type="curve"/>
      <point x="346" y="730" type="line"/>
      <point x="687" y="730" type="line"/>
    </contour>
    <contour>
      <point x="376" y="0" type="line"/>
      <point x="305" y="0" type="line"/>
      <point x="305" y="252" type="line"/>
      <point x="37" y="730" type="line"/>
      <point x="110" y="730" type="line"/>
      <point x="309" y="357" type="line"/>
      <point x="508" y="730" type="line"/>
      <point x="657" y="730" type="line"/>
      <point x="376" y="232" type="line"/>
    </contour>
  </outline>
</glyph>
<glyph name="Z" format="1">
  <advance width="650"/>
  <unicode hex="005A"/>
  <outline>
    <contour>
      <point x="542" y="219" type="line"/>
      <point x="600" y="219" type="line"/>
      <point x="600" y="0" type="line"/>
      <point x="580.667" y="0"/>
      <point x="561.333" y="0"/>
      <point x="542" y="0" type="curve"/>
    </contour>
    <contour>
      <point x="62" y="730" type="line"/>
      <point x="120" y="730" type="line"/>
      <point x="120" y="471" type="line"/>
      <point x="100.667" y="471"/>
      <point x="81.333" y="471"/>
      <point x="62" y="471" type="curve"/>
    </contour>
    <contour>
      <point x="600" y="0" type="line"/>
      <point x="30" y="0" type="line"/>
      <point x="30" y="41" type="line"/>
      <point x="418" y="545" type="line"/>
      <point x="63" y="545" type="line"/>
      <point x="63" y="730" type="line"/>
      <point x="620" y="730" type="line"/>
      <point x="620" y="699" type="line"/>
      <point x="200" y="141" type="line"/>
      <point x="600" y="141" type="line"/>
    </contour>
  </outline>
</glyph>
<glyph name="backslash" format="1">
  <advance width="430"/>
  <unicode hex="005C"/>
  <outline>
    <contour>
      <point x="110" y="800" type="line"/>
      <point x="395" y="-200" type="line"/>
      <point x="320" y="-200" type="line"/>
      <point x="35" y="800" type="line"/>
    </contour>
  </outline>
</glyph>
<glyph name="grave" format="1">
  <advance width="530"/>
  <unicode hex="0060"/>
  <outline>
    <contour>
      <point x="394" y="613" type="line"/>
      <point x="340" y="675"/>
      <point x="207" y="693"/>
      <point x="130" y="654" type="curve"/>
      <point x="125" y="780" type="line"/>
      <point x="233" y="802"/>
      <point x="371" y="739"/>
      <point x="406" y="635" type="curve"/>
    </contour>
  </outline>
</glyph>
<glyph name="a" format="1">
  <advance width="632"/>
  <unicode hex="0061"/>
  <outline>
    <contour>
      <point x="258" y="105" type="curve" smooth="yes"/>
      <point x="320" y="105"/>
      <point x="375" y="119"/>
      <point x="407" y="149" type="curve"/>
      <point x="407" y="210" type="line"/>
      <point x="366" y="241"/>
      <point x="321" y="256"/>
      <point x="265" y="256" type="curve" smooth="yes"/>
      <point x="172" y="256"/>
      <point x="125" y="228"/>
      <point x="125" y="182" type="curve" smooth="yes"/>
      <point x="125" y="134"/>
      <point x="165" y="105"/>
    </contour>
    <contour>
      <point x="436" y="77" type="line"/>
      <point x="409" y="29"/>
      <point x="335" y="-10"/>
      <point x="257" y="-10" type="curve" smooth="yes"/>
      <point x="115" y="-10"/>
      <point x="47" y="58"/>
      <point x="47" y="155" type="curve" smooth="yes"/>
      <point x="47" y="260"/>
      <point x="128" y="327"/>
      <point x="247" y="327" type="curve" smooth="yes"/>
      <point x="294" y="327"/>
      <point x="364" y="318"/>
      <point x="406" y="289" type="curve"/>
      <point x="401" y="383"/>
      <point x="357" y="422"/>
      <point x="263" y="422" type="curve" smooth="yes"/>
      <point x="178" y="422"/>
      <point x="128" y="395"/>
      <point x="101" y="363" type="curve"/>
      <point x="97" y="492" type="line"/>
      <point x="135" y="537"/>
      <point x="198" y="560"/>
      <point x="273" y="560" type="curve" smooth="yes"/>
      <point x="409" y="560"/>
      <point x="470" y="501"/>
      <point x="470" y="316" type="curve" smooth="yes"/>
      <point x="470" y="198" type="line" smooth="yes"/>
      <point x="470" y="181"/>
      <point x="470" y="169"/>
      <point x="470" y="144" type="curve"/>
      <point x="484" y="123"/>
      <point x="510" y="109"/>
      <point x="542" y="109" type="curve" smooth="yes"/>
      <point x="573" y="109"/>
      <point x="604" y="118"/>
      <point x="627" y="147" type="curve"/>
      <point x="627" y="109"/>
      <point x="627" y="52"/>
      <point x="627" y="37" type="curve"/>
      <point x="609" y="14"/>
      <point x="574" y="0"/>
      <point x="534" y="0" type="curve"/>
      <point x="477" y="1"/>
      <point x="436" y="27"/>
      <point x="411" y="72" type="curve"/>
    </contour>
  </outline>
</glyph>
<glyph name="b" format="1">
  <advance width="530"/>
  <unicode hex="0062"/>
  <outline>
    <contour>
      <point x="283" y="-10" type="curve" smooth="yes"/>
      <point x="210" y="-10"/>
      <point x="149" y="31"/>
      <point x="117" y="86" type="curve"/>
      <point x="110" y="0" type="line"/>
      <point x="55" y="0" type="line"/>
      <point x="55" y="780" type="line"/>
      <point x="120" y="780" type="line"/>
      <point x="120" y="461" type="line"/>
      <point x="154" y="535"/>
      <point x="224" y="559"/>
      <point x="288" y="560" type="curve" smooth="yes"/>
      <point x="411" y="561"/>
      <point x="494" y="481"/>
      <point x="494" y="266" type="curve" smooth="yes"/>
      <point x="494" y="91"/>
      <point x="417" y="-10"/>
    </contour>
    <contour>
      <point x="277" y="108" type="curve" smooth="yes"/>
      <point x="383" y="108"/>
      <point x="436" y="169"/>
      <point x="435" y="266" type="curve" smooth="yes"/>
      <point x="435" y="344"/>
      <point x="384" y="398"/>
      <point x="281" y="398" type="curve" smooth="yes"/>
      <point x="164" y="398"/>
      <point x="121" y="343"/>
      <point x="120" y="266" type="curve" smooth="yes"/>
      <point x="120" y="167" type="line"/>
      <point x="153" y="122"/>
      <point x="197" y="108"/>
    </contour>
  </outline>
</glyph>
<glyph name="d" format="1">
  <advance width="530"/>
  <unicode hex="0064"/>
  <outline>
    <contour>
      <point x="251" y="108" type="curve" smooth="yes"/>
      <point x="325" y="108"/>
      <point x="375" y="120"/>
      <point x="409" y="168" type="curve"/>
      <point x="409" y="266" type="line" smooth="yes"/>
      <point x="408" y="340"/>
      <point x="365" y="398"/>
      <point x="249" y="398" type="curve" smooth="yes"/>
      <point x="147" y="398"/>
      <point x="94" y="340"/>
      <point x="94" y="266" type="curve" smooth="yes"/>
      <point x="93" y="172"/>
      <point x="146" y="108"/>
    </contour>
    <contour>
      <point x="419" y="0" type="line"/>
      <point x="412" y="86" type="line"/>
      <point x="381" y="31"/>
      <point x="320" y="-10"/>
      <point x="247" y="-10" type="curve" smooth="yes"/>
      <point x="113" y="-10"/>
      <point x="35" y="91"/>
      <point x="35" y="266" type="curve" smooth="yes"/>
      <point x="35" y="481"/>
      <point x="119" y="561"/>
      <point x="243" y="560" type="curve" smooth="yes"/>
      <point x="306" y="559"/>
      <point x="375" y="536"/>
      <point x="409" y="461" type="curve"/>
      <point x="409" y="780" type="line"/>
      <point x="474" y="780" type="line"/>
      <point x="474" y="0" type="line"/>
    </contour>
  </outline>
</glyph>
<glyph name="h" format="1">
  <advance width="530"/>
  <unicode hex="0068"/>
  <outline>
    <contour>
      <point x="279" y="388" type="curve" smooth="yes"/>
      <point x="203" y="388"/>
      <point x="148" y="359"/>
      <point x="122" y="289" type="curve"/>
      <point x="122" y="0" type="line"/>
      <point x="58" y="0" type="line"/>
      <point x="58" y="780" type="line"/>
      <point x="122" y="780" type="line"/>
      <point x="122" y="457" type="line"/>
      <point x="150" y="523"/>
      <point x="214" y="560"/>
      <point x="296" y="560" type="curve" smooth="yes"/>
      <point x="417" y="560"/>
      <point x="472" y="499"/>
      <point x="472" y="304" type="curve" smooth="yes"/>
      <point x="472" y="0" type="line"/>
      <point x="409" y="0" type="line"/>
      <point x="409" y="241" type="line" smooth="yes"/>
      <point x="409" y="342"/>
      <point x="364" y="388"/>
    </contour>
  </outline>
</glyph>
<glyph name="j" format="1">
  <advance width="330"/>
  <unicode hex="006A"/>
  <outline>
    <contour>
      <point x="235" y="709" type="curve" smooth="yes"/>
      <point x="235" y="652"/>
      <point x="201" y="625"/>
      <point x="149" y="625" type="curve" smooth="yes"/>
      <point x="91" y="625"/>
      <point x="59" y="652"/>
      <point x="59" y="709" type="curve" smooth="yes"/>
      <point x="59" y="766"/>
      <point x="89" y="790"/>
      <point x="149" y="790" type="curve" smooth="yes"/>
      <point x="203" y="790"/>
      <point x="235" y="767"/>
    </contour>
    <contour>
      <point x="230" y="-67" type="line" smooth="yes"/>
      <point x="230" y="-159"/>
      <point x="186" y="-210"/>
      <point x="108" y="-210" type="curve" smooth="yes"/>
      <point x="42" y="-210"/>
      <point x="1" y="-179"/>
      <point x="-18" y="-148" type="curve"/>
      <point x="10" y="-48" type="line"/>
      <point x="33" y="-73"/>
      <point x="65" y="-81"/>
      <point x="89" y="-80" type="curve" smooth="yes"/>
      <point x="137" y="-78"/>
      <point x="165" y="-58"/>
      <point x="165" y="11" type="curve" smooth="yes"/>
      <point x="165" y="368" type="line"/>
      <point x="40" y="368" type="line"/>
      <point x="40" y="540" type="line"/>
      <point x="230" y="540" type="line"/>
    </contour>
  </outline>
</glyph>
<glyph name="k" format="1">
  <advance width="530"/>
  <unicode hex="006B"/>
  <outline>
    <contour>
      <point x="423" y="0" type="line"/>
      <point x="225" y="260" type="line"/>
      <point x="125" y="149" type="line"/>
      <point x="125" y="0" type="line"/>
      <point x="61" y="0" type="line"/>
      <point x="61" y="780" type="line"/>
      <point x="125" y="780" type="line"/>
      <point x="125" y="335" type="line"/>
      <point x="307" y="550" type="line"/>
      <point x="487" y="550" type="line"/>
      <point x="270" y="310" type="line"/>
      <point x="506" y="0" type="line"/>
    </contour>
  </outline>
</glyph>
<glyph name="m" format="1">
  <advance width="830"/>
  <unicode hex="006D"/>
  <outline>
    <contour>
      <point x="255" y="388" type="curve" smooth="yes"/>
      <point x="195" y="388"/>
      <point x="144" y="357"/>
      <point x="120" y="293" type="curve"/>
      <point x="120" y="0" type="line"/>
      <point x="55" y="0" type="line"/>
      <point x="55" y="550" type="line"/>
      <point x="120" y="550" type="line"/>
      <point x="120" y="463" type="line"/>
      <point x="145" y="525"/>
      <point x="197" y="560"/>
      <point x="263" y="560" type="curve" smooth="yes"/>
      <point x="353" y="560"/>
      <point x="403" y="528"/>
      <point x="427" y="439" type="curve"/>
      <point x="455" y="517"/>
      <point x="523" y="560"/>
      <point x="595" y="560" type="curve" smooth="yes"/>
      <point x="721" y="560"/>
      <point x="775" y="499"/>
      <point x="775" y="303" type="curve" smooth="yes"/>
      <point x="775" y="0" type="line"/>
      <point x="712" y="0" type="line"/>
      <point x="712" y="241" type="line" smooth="yes"/>
      <point x="712" y="342"/>
      <point x="677" y="388"/>
      <point x="590" y="388" type="curve" smooth="yes"/>
      <point x="522" y="388"/>
      <point x="471" y="359"/>
      <point x="446" y="286" type="curve"/>
      <point x="446" y="0" type="line"/>
      <point x="383" y="0" type="line"/>
      <point x="383" y="241" type="line" smooth="yes"/>
      <point x="383" y="346"/>
      <point x="351" y="388"/>
    </contour>
  </outline>
</glyph>
<glyph name="n" format="1">
  <advance width="686"/>
  <unicode hex="006E"/>
  <outline>
    <contour>
      <point x="40" y="550" type="line"/>
      <point x="200" y="550" type="line"/>
      <point x="200" y="386" type="line"/>
      <point x="144" y="387"/>
      <point x="68" y="387"/>
      <point x="40" y="386" type="curve"/>
    </contour>
    <contour>
      <point x="395" y="143" type="line"/>
      <point x="646" y="143" type="line"/>
      <point x="646" y="-1" type="line"/>
      <point x="545.667" y="-1.16309"/>
      <point x="437" y="0"/>
      <point x="395" y="-1" type="curve"/>
    </contour>
    <contour>
      <point x="40" y="143" type="line"/>
      <point x="289" y="143" type="line"/>
      <point x="289" y="-1" type="line"/>
      <point x="233" y="0"/>
      <point x="68" y="0"/>
      <point x="40" y="-1" type="curve"/>
    </contour>
    <contour>
      <point x="360" y="389" type="curve" smooth="yes"/>
      <point x="284" y="389"/>
      <point x="227" y="360"/>
      <point x="200" y="290" type="curve"/>
      <point x="200" y="0" type="line"/>
      <point x="135" y="0" type="line"/>
      <point x="135" y="550" type="line"/>
      <point x="200" y="550" type="line"/>
      <point x="200" y="440" type="line"/>
      <point x="220" y="516"/>
      <point x="290" y="560"/>
      <point x="365" y="560" type="curve" smooth="yes"/>
      <point x="498" y="560"/>
      <point x="555" y="499"/>
      <point x="555" y="303" type="curve" smooth="yes"/>
      <point x="555" y="0" type="line"/>
      <point x="492" y="0" type="line"/>
      <point x="492" y="241" type="line" smooth="yes"/>
      <point x="492" y="343"/>
      <point x="454" y="389"/>
    </contour>
  </outline>
</glyph>
<glyph name="o" format="1">
  <advance width="530"/>
  <unicode hex="006F"/>
  <outline>
    <contour>
      <point x="265" y="-10" type="curve" smooth="yes"/>
      <point x="132" y="-10"/>
      <point x="35" y="73"/>
      <point x="35" y="265" type="curve" smooth="yes"/>
      <point x="35" y="478"/>
      <point x="129" y="560"/>
      <point x="265" y="560" type="curve" smooth="yes"/>
      <point x="402" y="560"/>
      <point x="495" y="478"/>
      <point x="495" y="265" type="curve" smooth="yes"/>
      <point x="495" y="73"/>
      <point x="399" y="-10"/>
    </contour>
    <contour>
      <point x="265" y="107" type="curve" smooth="yes"/>
      <point x="358" y="107"/>
      <point x="437" y="146"/>
      <point x="436" y="265" type="curve" smooth="yes"/>
      <point x="435" y="345"/>
      <point x="378" y="402"/>
      <point x="265" y="402" type="curve" smooth="yes"/>
      <point x="153" y="402"/>
      <point x="95" y="345"/>
      <point x="94" y="265" type="curve" smooth="yes"/>
      <point x="93" y="146"/>
      <point x="172" y="107"/>
    </contour>
  </outline>
</glyph>
<glyph name="r" format="1">
  <advance width="430"/>
  <unicode hex="0072"/>
  <outline>
    <contour>
      <point x="191" y="285" type="curve" smooth="yes"/>
      <point x="191" y="0" type="line"/>
      <point x="125" y="0" type="line"/>
      <point x="125" y="377" type="line"/>
      <point x="65" y="377" type="line"/>
      <point x="65" y="550" type="line"/>
      <point x="150" y="550" type="line"/>
      <point x="184" y="472" type="line"/>
      <point x="207" y="532"/>
      <point x="257" y="560"/>
      <point x="298" y="560" type="curve" smooth="yes"/>
      <point x="346" y="560"/>
      <point x="369" y="545"/>
      <point x="395" y="523" type="curve"/>
      <point x="357" y="357" type="line"/>
      <point x="345" y="383"/>
      <point x="321" y="394"/>
      <point x="276" y="394" type="curve" smooth="yes"/>
      <point x="227" y="394"/>
      <point x="191" y="355"/>
    </contour>
  </outline>
</glyph>
<glyph name="s" format="1">
  <advance width="530"/>
  <unicode hex="0073"/>
  <outline>
    <contour>
      <point x="265" y="560" type="curve" smooth="yes"/>
      <point x="354" y="560"/>
      <point x="416" y="528"/>
      <point x="448" y="472" type="curve"/>
      <point x="429" y="367" type="line"/>
      <point x="403" y="399"/>
      <point x="357" y="427"/>
      <point x="273" y="427" type="curve" smooth="yes"/>
      <point x="198" y="427"/>
      <point x="155" y="398"/>
      <point x="155" y="361" type="curve" smooth="yes"/>
      <point x="155" y="335"/>
      <point x="184" y="317"/>
      <point x="272" y="308" type="curve" smooth="yes"/>
      <point x="415" y="294"/>
      <point x="467" y="244"/>
      <point x="467" y="139" type="curve" smooth="yes"/>
      <point x="467" y="39"/>
      <point x="397" y="-10"/>
      <point x="268" y="-10" type="curve" smooth="yes"/>
      <point x="150" y="-10"/>
      <point x="93" y="39"/>
      <point x="64" y="93" type="curve"/>
      <point x="88" y="193" type="line"/>
      <point x="119" y="153"/>
      <point x="170" y="118"/>
      <point x="260" y="118" type="curve" smooth="yes"/>
      <point x="350" y="118"/>
      <point x="387" y="148"/>
      <point x="387" y="182" type="curve" smooth="yes"/>
      <point x="387" y="209"/>
      <point x="351" y="227"/>
      <point x="266" y="236" type="curve" smooth="yes"/>
      <point x="136" y="249"/>
      <point x="80" y="288"/>
      <point x="80" y="406" type="curve" smooth="yes"/>
      <point x="80" y="511"/>
      <point x="146" y="560"/>
    </contour>
  </outline>
</glyph>
<glyph name="t" format="1">
  <advance width="430"/>
  <unicode hex="0074"/>
  <outline>
    <contour>
      <point x="387" y="54" type="line"/>
      <point x="369" y="14"/>
      <point x="312" y="-10"/>
      <point x="255" y="-10" type="curve" smooth="yes"/>
      <point x="177" y="-10"/>
      <point x="120" y="32"/>
      <point x="120" y="153" type="curve" smooth="yes"/>
      <point x="120" y="384" type="line"/>
      <point x="41" y="384" type="line"/>
      <point x="41" y="540" type="line"/>
      <point x="120" y="540" type="line"/>
      <point x="120" y="670" type="line"/>
      <point x="185" y="670" type="line"/>
      <point x="185" y="540" type="line"/>
      <point x="335" y="540" type="line"/>
      <point x="335" y="384" type="line"/>
      <point x="185" y="384" type="line"/>
      <point x="185" y="222" type="line" smooth="yes"/>
      <point x="185" y="150"/>
      <point x="219" y="125"/>
      <point x="268" y="124" type="curve" smooth="yes"/>
      <point x="310" y="123"/>
      <point x="344" y="137"/>
      <point x="360" y="155" type="curve"/>
    </contour>
  </outline>
</glyph>
<glyph name="u" format="1">
  <advance width="530"/>
  <unicode hex="0075"/>
  <outline>
    <contour>
      <point x="414" y="0" type="line"/>
      <point x="409" y="88" type="line"/>
      <point x="383" y="33"/>
      <point x="323" y="-10"/>
      <point x="237" y="-10" type="curve" smooth="yes"/>
      <point x="126" y="-10"/>
      <point x="55" y="50"/>
      <point x="55" y="227" type="curve" smooth="yes"/>
      <point x="55" y="550" type="line"/>
      <point x="119" y="550" type="line"/>
      <point x="119" y="279" type="line" smooth="yes"/>
      <point x="119" y="165"/>
      <point x="150" y="124"/>
      <point x="253" y="124" type="curve" smooth="yes"/>
      <point x="329" y="124"/>
      <point x="386" y="159"/>
      <point x="410" y="215" type="curve"/>
      <point x="410" y="550" type="line"/>
      <point x="475" y="550" type="line"/>
      <point x="475" y="0" type="line"/>
    </contour>
  </outline>
</glyph>
<glyph name="v" format="1">
  <advance width="560"/>
  <unicode hex="0076"/>
  <outline>
    <contour>
      <point x="286" y="550" type="line"/>
      <point x="540" y="550" type="line"/>
      <point x="540" y="386" type="line"/>
      <point x="466" y="386"/>
      <point x="330" y="386"/>
      <point x="286" y="386" type="curve"/>
    </contour>
    <contour>
      <point x="10" y="550" type="line"/>
      <point x="218" y="550" type="line"/>
      <point x="218" y="386" type="line"/>
      <point x="148" y="386"/>
      <point x="60" y="386"/>
      <point x="10" y="386" type="curve"/>
    </contour>
    <contour>
      <point x="325" y="0" type="line"/>
      <point x="230" y="0" type="line"/>
      <point x="30" y="550" type="line"/>
      <point x="100" y="550" type="line"/>
      <point x="256" y="125" type="line"/>
      <point x="396" y="550" type="line"/>
      <point x="520" y="550" type="line"/>
    </contour>
  </outline>
</glyph>
<glyph name="w" format="1">
  <advance width="780"/>
  <unicode hex="0077"/>
  <outline>
    <contour>
      <point x="486" y="0" type="line"/>
      <point x="392" y="268" type="line"/>
      <point x="300" y="0" type="line"/>
      <point x="207" y="0" type="line"/>
      <point x="40" y="550" type="line"/>
      <point x="113" y="550" type="line"/>
      <point x="235" y="133" type="line"/>
      <point x="339" y="451" type="line"/>
      <point x="394" y="451" type="line"/>
      <point x="502" y="132" type="line"/>
      <point x="620" y="550" type="line"/>
      <point x="740" y="550" type="line"/>
      <point x="572" y="0" type="line"/>
    </contour>
  </outline>
</glyph>
<glyph name="x" format="1">
  <advance width="530"/>
  <unicode hex="0078"/>
  <outline>
    <contour>
      <point x="416" y="0" type="line"/>
      <point x="290" y="199" type="line"/>
      <point x="178" y="0" type="line"/>
      <point x="30" y="0" type="line"/>
      <point x="210" y="286" type="line"/>
      <point x="42" y="550" type="line"/>
      <point x="125" y="550" type="line"/>
      <point x="249" y="352" type="line"/>
      <point x="364" y="550" type="line"/>
      <point x="500" y="550" type="line"/>
      <point x="327" y="264" type="line"/>
      <point x="499" y="0" type="line"/>
    </contour>
  </outline>
</glyph>
<glyph name="y" format="1">
  <advance width="530"/>
  <unicode hex="0079"/>
  <outline>
    <contour>
      <point x="142" y="-210" type="curve" smooth="yes"/>
      <point x="89" y="-210"/>
      <point x="18" y="-171"/>
      <point x="14" y="-123" type="curve"/>
      <point x="42" y="-27" type="line"/>
      <point x="70" y="-61"/>
      <point x="110" y="-80"/>
      <point x="142" y="-80" type="curve" smooth="yes"/>
      <point x="187" y="-80"/>
      <point x="214" y="-65"/>
      <point x="235" y="-7" type="curve" smooth="yes"/>
      <point x="250" y="32" type="line"/>
      <point x="191" y="183"/>
      <point x="33" y="550"/>
      <point x="33" y="550" type="curve"/>
      <point x="154" y="550" type="line"/>
      <point x="154" y="550"/>
      <point x="254" y="294"/>
      <point x="302" y="171" type="curve"/>
      <point x="444" y="550" type="line"/>
      <point x="510" y="550" type="line"/>
      <point x="295" y="-39" type="line" smooth="yes"/>
      <point x="253" y="-153"/>
      <point x="228" y="-210"/>
    </contour>
  </outline>
</glyph>
<glyph name="z" format="1">
  <advance width="530"/>
  <unicode hex="007A"/>
  <outline>
    <contour>
      <point x="38" y="0" type="line"/>
      <point x="310" y="393" type="line"/>
      <point x="80" y="393" type="line"/>
      <point x="80" y="550" type="line"/>
      <point x="492" y="550" type="line"/>
      <point x="214" y="136" type="line"/>
      <point x="468" y="136" type="line"/>
      <point x="468" y="0" type="line"/>
    </contour>
  </outline>
</glyph>
<glyph name="braceleft" format="1">
  <advance width="330"/>
  <unicode hex="007B"/>
  <outline>
    <contour>
      <point x="89" y="143" type="curve" smooth="yes"/>
      <point x="89" y="169"/>
      <point x="68" y="204"/>
      <point x="10" y="194" type="curve"/>
      <point x="10" y="366" type="line"/>
      <point x="71" y="355"/>
      <point x="89" y="385"/>
      <point x="89" y="407" type="curve" smooth="yes"/>
      <point x="77" y="671"/>
      <point x="156" y="768"/>
      <point x="271" y="810" type="curve"/>
      <point x="252" y="622" type="line"/>
      <point x="176" y="603"/>
      <point x="130" y="520"/>
      <point x="149" y="367" type="curve" smooth="yes"/>
      <point x="154" y="326"/>
      <point x="134" y="299"/>
      <point x="74" y="278" type="curve"/>
      <point x="136" y="264"/>
      <point x="153" y="223"/>
      <point x="148" y="183" type="curve" smooth="yes"/>
      <point x="134" y="70"/>
      <point x="167" y="7"/>
      <point x="237" y="-9" type="curve"/>
      <point x="264" y="-210" type="line"/>
      <point x="152" y="-171"/>
      <point x="77" y="-75"/>
    </contour>
  </outline>
</glyph>
<glyph name="exclamdown" format="1">
  <advance width="330"/>
  <unicode hex="00A1"/>
  <outline>
    <contour>
      <point x="233" y="499" type="curve" smooth="yes"/>
      <point x="233" y="456"/>
      <point x="208" y="439"/>
      <point x="166" y="439" type="curve" smooth="yes"/>
      <point x="119" y="439"/>
      <point x="95" y="457"/>
      <point x="95" y="499" type="curve" smooth="yes"/>
      <point x="95" y="537"/>
      <point x="120" y="555"/>
      <point x="166" y="555" type="curve" smooth="yes"/>
      <point x="207" y="555"/>
      <point x="233" y="537"/>
    </contour>
    <contour>
      <point x="199" y="247" type="curve" smooth="yes"/>
      <point x="212" y="121"/>
      <point x="248" y="50"/>
      <point x="248" y="-70" type="curve" smooth="yes"/>
      <point x="248" y="-130"/>
      <point x="235" y="-210"/>
      <point x="166" y="-210" type="curve" smooth="yes"/>
      <point x="96" y="-210"/>
      <point x="82" y="-132"/>
      <point x="82" y="-70" type="curve" smooth="yes"/>
      <point x="82" y="52"/>
      <point x="114" y="122"/>
      <point x="127" y="247" type="curve" smooth="yes"/>
      <point x="130" y="274"/>
      <point x="132" y="312"/>
      <point x="126" y="359" type="curve"/>
      <point x="200" y="359" type="line"/>
      <point x="194" y="311"/>
      <point x="196" y="275"/>
    </contour>
  </outline>
</glyph>
<glyph name="sterling" format="1">
  <advance width="630"/>
  <unicode hex="00A3"/>
  <outline>
    <contour>
      <point x="569" y="82" type="line"/>
      <point x="546" y="24"/>
      <point x="467" y="-9"/>
      <point x="393" y="-10" type="curve" smooth="yes"/>
      <point x="285" y="-10"/>
      <point x="265" y="37"/>
      <point x="184" y="37" type="curve" smooth="yes"/>
      <point x="132" y="37"/>
      <point x="93" y="36"/>
      <point x="79" y="21" type="curve"/>
      <point x="67" y="102" type="line"/>
      <point x="169" y="175"/>
      <point x="201" y="242"/>
      <point x="201" y="288" type="curve"/>
      <point x="62" y="288" type="line"/>
      <point x="62" y="379" type="line"/>
      <point x="171" y="379" type="line"/>
      <point x="130" y="406"/>
      <point x="97" y="458"/>
      <point x="97" y="539" type="curve" smooth="yes"/>
      <point x="97" y="668"/>
      <point x="190" y="740"/>
      <point x="324" y="740" type="curve" smooth="yes"/>
      <point x="428" y="740"/>
      <point x="506" y="699"/>
      <point x="556" y="630" type="curve"/>
      <point x="522" y="496" type="line"/>
      <point x="486" y="534"/>
      <point x="400" y="566"/>
      <point x="329" y="566" type="curve" smooth="yes"/>
      <point x="230" y="566"/>
      <point x="187" y="524"/>
      <point x="187" y="483" type="curve" smooth="yes"/>
      <point x="187" y="424"/>
      <point x="234" y="409"/>
      <point x="267" y="379" type="curve"/>
      <point x="440" y="379" type="line"/>
      <point x="440" y="288" type="line"/>
      <point x="298" y="288" type="line"/>
      <point x="290" y="227"/>
      <point x="246" y="163"/>
      <point x="187" y="131" type="curve"/>
      <point x="220" y="145"/>
      <point x="267" y="156"/>
      <point x="291" y="156" type="curve" smooth="yes"/>
      <point x="342" y="156"/>
      <point x="378" y="136"/>
      <point x="417" y="135" type="curve" smooth="yes"/>
      <point x="483" y="134"/>
      <point x="527" y="153"/>
      <point x="553" y="184" type="curve"/>
    </contour>
  </outline>
</glyph>
<glyph name="currency" format="1">
  <advance width="530"/>
  <unicode hex="00A4"/>
  <outline>
    <contour>
      <point x="418" y="67" type="line"/>
      <point x="369" y="123" type="line"/>
      <point x="340" y="108"/>
      <point x="306" y="101"/>
      <point x="267" y="101" type="curve" smooth="yes"/>
      <point x="227" y="101"/>
      <point x="191" y="109"/>
      <point x="162" y="125" type="curve"/>
      <point x="112" y="67" type="line"/>
      <point x="55" y="122" type="line"/>
      <point x="105" y="180" type="line"/>
      <point x="86" y="212"/>
      <point x="75" y="254"/>
      <point x="75" y="308" type="curve" smooth="yes"/>
      <point x="75" y="368"/>
      <point x="85" y="414"/>
      <point x="105" y="448" type="curve"/>
      <point x="55" y="506" type="line"/>
      <point x="113" y="560" type="line"/>
      <point x="160" y="505" type="line"/>
      <point x="190" y="521"/>
      <point x="226" y="529"/>
      <point x="267" y="529" type="curve" smooth="yes"/>
      <point x="307" y="529"/>
      <point x="342" y="522"/>
      <point x="371" y="506" type="curve"/>
      <point x="417" y="560" type="line"/>
      <point x="475" y="506" type="line"/>
      <point x="428" y="450" type="line"/>
      <point x="448" y="416"/>
      <point x="459" y="369"/>
      <point x="459" y="308" type="curve" smooth="yes"/>
      <point x="459" y="252"/>
      <point x="448" y="209"/>
      <point x="427" y="176" type="curve"/>
      <point x="475" y="122" type="line"/>
    </contour>
    <contour>
      <point x="267" y="185" type="curve" smooth="yes"/>
      <point x="346" y="185"/>
      <point x="406" y="214"/>
      <point x="405" y="308" type="curve" smooth="yes"/>
      <point x="404" y="371"/>
      <point x="362" y="414"/>
      <point x="267" y="414" type="curve" smooth="yes"/>
      <point x="172" y="414"/>
      <point x="130" y="371"/>
      <point x="129" y="308" type="curve" smooth="yes"/>
      <point x="129" y="214"/>
      <point x="188" y="185"/>
    </contour>
  </outline>
</glyph>
<glyph name="yen" format="1">
  <advance width="780"/>
  <unicode hex="00A5"/>
  <outline>
    <contour>
      <point x="535" y="126" type="line"/>
      <point x="359" y="126" type="line"/>
      <point x="359" y="0" type="line"/>
      <point x="288" y="0" type="line"/>
      <point x="288" y="126" type="line"/>
      <point x="137" y="126" type="line"/>
      <point x="137" y="207" type="line"/>
      <point x="288" y="207" type="line"/>
      <point x="288" y="252" type="line"/>
      <point x="280" y="266" type="line"/>
      <point x="137" y="266" type="line"/>
      <point x="137" y="347" type="line"/>
      <point x="235" y="347" type="line"/>
      <point x="20" y="730" type="line"/>
      <point x="93" y="730" type="line"/>
      <point x="292" y="357" type="line"/>
      <point x="491" y="730" type="line"/>
      <point x="640" y="730" type="line"/>
      <point x="424" y="347" type="line"/>
      <point x="535" y="347" type="line"/>
      <point x="535" y="266" type="line"/>
      <point x="378" y="266" type="line"/>
      <point x="359" y="232" type="line"/>
      <point x="359" y="207" type="line"/>
      <point x="535" y="207" type="line"/>
    </contour>
  </outline>
</glyph>
<glyph name="section" format="1">
  <advance width="530"/>
  <unicode hex="00A7"/>
  <outline>
    <contour>
      <point x="272" y="336" type="curve" smooth="yes"/>
      <point x="307" y="333"/>
      <point x="336" y="327"/>
      <point x="360" y="318" type="curve"/>
      <point x="378" y="330"/>
      <point x="383" y="349"/>
      <point x="386" y="377" type="curve" smooth="yes"/>
      <point x="386" y="418"/>
      <point x="366" y="429"/>
      <point x="266" y="440" type="curve" smooth="yes"/>
      <point x="232" y="444"/>
      <point x="203" y="449"/>
      <point x="180" y="457" type="curve"/>
      <point x="162" y="444"/>
      <point x="156" y="425"/>
      <point x="156" y="401" type="curve" smooth="yes"/>
      <point x="156" y="361"/>
      <point x="164" y="346"/>
    </contour>
    <contour>
      <point x="268" y="-10" type="curve" smooth="yes"/>
      <point x="137" y="-10"/>
      <point x="92" y="38"/>
      <point x="62" y="93" type="curve"/>
      <point x="86" y="190" type="line"/>
      <point x="116" y="152"/>
      <point x="159" y="122"/>
      <point x="260" y="122" type="curve" smooth="yes"/>
      <point x="364" y="122"/>
      <point x="386" y="153"/>
      <point x="386" y="182" type="curve" smooth="yes"/>
      <point x="386" y="209"/>
      <point x="365" y="225"/>
      <point x="266" y="236" type="curve" smooth="yes"/>
      <point x="127" y="251"/>
      <point x="79" y="294"/>
      <point x="79" y="391" type="curve" smooth="yes"/>
      <point x="79" y="437"/>
      <point x="94" y="469"/>
      <point x="122" y="491" type="curve"/>
      <point x="91" y="522"/>
      <point x="79" y="568"/>
      <point x="79" y="635" type="curve" smooth="yes"/>
      <point x="79" y="717"/>
      <point x="133" y="789"/>
      <point x="267" y="789" type="curve" smooth="yes"/>
      <point x="364" y="789"/>
      <point x="415" y="760"/>
      <point x="446" y="705" type="curve"/>
      <point x="426" y="614" type="line"/>
      <point x="402" y="644"/>
      <point x="366" y="662"/>
      <point x="273" y="662" type="curve" smooth="yes"/>
      <point x="185" y="662"/>
      <point x="156" y="634"/>
      <point x="156" y="598" type="curve" smooth="yes"/>
      <point x="156" y="573"/>
      <point x="165" y="552"/>
      <point x="272" y="541" type="curve" smooth="yes"/>
      <point x="425" y="525"/>
      <point x="468" y="478"/>
      <point x="468" y="379" type="curve" smooth="yes"/>
      <point x="468" y="330"/>
      <point x="446" y="303"/>
      <point x="418" y="284" type="curve"/>
      <point x="456" y="250"/>
      <point x="468" y="201"/>
      <point x="468" y="144" type="curve" smooth="yes"/>
      <point x="468" y="64"/>
      <point x="411" y="-10"/>
    </contour>
  </outline>
</glyph>
<glyph name="dieresis" format="1">
  <advance width="530"/>
  <unicode hex="00A8"/>
  <outline>
    <contour>
      <point x="450" y="730" type="curve" smooth="yes"/>
      <point x="450" y="687"/>
      <point x="422" y="666"/>
      <point x="376" y="666" type="curve" smooth="yes"/>
      <point x="324" y="666"/>
      <point x="296" y="687"/>
      <point x="296" y="730" type="curve" smooth="yes"/>
      <point x="296" y="777"/>
      <point x="323" y="797"/>
      <point x="376" y="797" type="curve" smooth="yes"/>
      <point x="423" y="797"/>
      <point x="450" y="778"/>
    </contour>
    <contour>
      <point x="240" y="730" type="curve" smooth="yes"/>
      <point x="240" y="687"/>
      <point x="212" y="666"/>
      <point x="166" y="666" type="curve" smooth="yes"/>
      <point x="113" y="666"/>
      <point x="86" y="687"/>
      <point x="86" y="730" type="curve" smooth="yes"/>
      <point x="86" y="777"/>
      <point x="113" y="797"/>
      <point x="166" y="797" type="curve" smooth="yes"/>
      <point x="213" y="797"/>
      <point x="240" y="778"/>
    </contour>
  </outline>
</glyph>
<glyph name="copyright" format="1">
  <advance width="330"/>
  <unicode hex="00A9"/>
  <outline>
    <contour>
      <point x="18" y="576" type="curve" smooth="yes"/>
      <point x="19" y="686"/>
      <point x="77" y="736"/>
      <point x="162" y="736" type="curve" smooth="yes"/>
      <point x="240" y="736"/>
      <point x="311" y="687"/>
      <point x="312" y="577" type="curve" smooth="yes"/>
      <point x="311" y="467"/>
      <point x="250" y="417"/>
      <point x="165" y="417" type="curve" smooth="yes"/>
      <point x="87" y="417"/>
      <point x="19" y="466"/>
    </contour>
    <contour>
      <point x="162" y="692" type="curve" smooth="yes"/>
      <point x="98" y="692"/>
      <point x="46" y="644"/>
      <point x="46" y="576" type="curve" smooth="yes"/>
      <point x="49" y="495"/>
      <point x="98" y="461"/>
      <point x="165" y="461" type="curve" smooth="yes"/>
      <point x="229" y="461"/>
      <point x="281" y="483"/>
      <point x="284" y="577" type="curve" smooth="yes"/>
      <point x="284" y="643"/>
      <point x="229" y="692"/>
    </contour>
    <contour>
      <point x="221" y="550" type="curve"/>
      <point x="236" y="539" type="line"/>
      <point x="228" y="503"/>
      <point x="203" y="484"/>
      <point x="161" y="484" type="curve" smooth="yes"/>
      <point x="118" y="484"/>
      <point x="86" y="510"/>
      <point x="86" y="572" type="curve" smooth="yes"/>
      <point x="86" y="641"/>
      <point x="120" y="665"/>
      <point x="163" y="665" type="curve" smooth="yes"/>
      <point x="199" y="665"/>
      <point x="224" y="653"/>
      <point x="234" y="615" type="curve"/>
      <point x="217" y="600" type="line"/>
      <point x="208" y="611"/>
      <point x="190" y="618"/>
      <point x="163" y="618" type="curve" smooth="yes"/>
      <point x="125" y="618"/>
      <point x="105" y="601"/>
      <point x="105" y="569" type="curve" smooth="yes"/>
      <point x="105" y="536"/>
      <point x="123" y="518"/>
      <point x="164" y="518" type="curve" smooth="yes"/>
      <point x="193" y="518"/>
      <point x="215" y="530"/>
    </contour>
  </outline>
</glyph>
<glyph name="guillemotleft" format="1">
  <advance width="480"/>
  <unicode hex="00AB"/>
  <outline>
    <contour>
      <point x="220" y="271" type="line"/>
      <point x="381" y="570" type="line"/>
      <point x="381" y="360" type="line"/>
      <point x="270" y="271" type="line"/>
      <point x="374" y="204" type="line"/>
      <point x="374" y="-10" type="line"/>
    </contour>
    <contour>
      <point x="20" y="271" type="line"/>
      <point x="181" y="570" type="line"/>
      <point x="181" y="360" type="line"/>
      <point x="70" y="271" type="line"/>
      <point x="174" y="204" type="line"/>
      <point x="174" y="-10" type="line"/>
    </contour>
  </outline>
</glyph>
<glyph name="registered" format="1">
  <advance width="330"/>
  <unicode hex="00AE"/>
  <outline>
    <contour>
      <point x="18" y="576" type="curve" smooth="yes"/>
      <point x="19" y="686"/>
      <point x="77" y="736"/>
      <point x="162" y="736" type="curve" smooth="yes"/>
      <point x="240" y="736"/>
      <point x="311" y="687"/>
      <point x="312" y="577" type="curve" smooth="yes"/>
      <point x="311" y="467"/>
      <point x="250" y="417"/>
      <point x="165" y="417" type="curve" smooth="yes"/>
      <point x="87" y="417"/>
      <point x="19" y="466"/>
    </contour>
    <contour>
      <point x="162" y="692" type="curve" smooth="yes"/>
      <point x="98" y="692"/>
      <point x="46" y="644"/>
      <point x="46" y="576" type="curve" smooth="yes"/>
      <point x="49" y="495"/>
      <point x="98" y="461"/>
      <point x="165" y="461" type="curve" smooth="yes"/>
      <point x="229" y="461"/>
      <point x="281" y="483"/>
      <point x="284" y="577" type="curve" smooth="yes"/>
      <point x="284" y="643"/>
      <point x="229" y="692"/>
    </contour>
    <contour>
      <point x="220" y="485" type="curve" smooth="yes"/>
      <point x="205" y="485"/>
      <point x="195" y="500"/>
      <point x="191" y="527" type="curve" smooth="yes"/>
      <point x="189" y="539"/>
      <point x="178" y="544"/>
      <point x="164" y="544" type="curve" smooth="yes"/>
      <point x="121" y="544" type="line"/>
      <point x="121" y="487" type="line"/>
      <point x="101" y="487" type="line"/>
      <point x="101" y="662" type="line"/>
      <point x="163" y="662" type="line" smooth="yes"/>
      <point x="206" y="662"/>
      <point x="229" y="646"/>
      <point x="229" y="607" type="curve" smooth="yes"/>
      <point x="229" y="579"/>
      <point x="218" y="563"/>
      <point x="194" y="558" type="curve"/>
      <point x="202" y="553"/>
      <point x="207" y="545"/>
      <point x="209" y="535" type="curve" smooth="yes"/>
      <point x="211" y="520"/>
      <point x="214" y="517"/>
      <point x="222" y="517" type="curve" smooth="yes"/>
      <point x="227" y="517"/>
      <point x="232" y="517"/>
      <point x="235" y="520" type="curve" smooth="yes"/>
      <point x="241" y="497" type="line"/>
      <point x="238" y="488"/>
      <point x="227" y="485"/>
    </contour>
    <contour>
      <point x="173" y="579" type="line" smooth="yes"/>
      <point x="200" y="579"/>
      <point x="212" y="588"/>
      <point x="211" y="601" type="curve" smooth="yes"/>
      <point x="211" y="616"/>
      <point x="200" y="621"/>
      <point x="173" y="621" type="curve" smooth="yes"/>
      <point x="121" y="621" type="line"/>
      <point x="121" y="579" type="line"/>
    </contour>
  </outline>
</glyph>
<glyph name="macron" format="1">
  <advance width="530"/>
  <unicode hex="00AF"/>
  <outline>
    <contour>
      <point x="439" y="651" type="line"/>
      <point x="91" y="651" type="line"/>
      <point x="91" y="750" type="line"/>
      <point x="439" y="750" type="line"/>
    </contour>
  </outline>
</glyph>
<glyph name="acute" format="1">
  <advance width="530"/>
  <unicode hex="00B4"/>
  <outline>
    <contour>
      <point x="136" y="613" type="curve"/>
      <point x="124" y="635" type="line"/>
      <point x="159" y="738"/>
      <point x="298" y="801"/>
      <point x="405" y="780" type="curve"/>
      <point x="400" y="654" type="line"/>
      <point x="322" y="693"/>
      <point x="190" y="675"/>
    </contour>
  </outline>
</glyph>
<glyph name="cedilla" format="1">
  <advance width="530"/>
  <unicode hex="00B8"/>
  <outline>
    <contour>
      <point x="258" y="-210" type="curve" smooth="yes"/>
      <point x="207" y="-210"/>
      <point x="149" y="-192"/>
      <point x="141" y="-157" type="curve"/>
      <point x="176" y="-101" type="line"/>
      <point x="186" y="-118"/>
      <point x="219" y="-134"/>
      <point x="263" y="-134" type="curve" smooth="yes"/>
      <point x="329" y="-134"/>
      <point x="344" y="-126"/>
      <point x="344" y="-109" type="curve" smooth="yes"/>
      <point x="344" y="-99"/>
      <point x="334" y="-90"/>
      <point x="318" y="-90" type="curve" smooth="yes"/>
      <point x="300" y="-90"/>
      <point x="276" y="-94"/>
      <point x="260" y="-94" type="curve" smooth="yes"/>
      <point x="231" y="-94"/>
      <point x="207" y="-80"/>
      <point x="207" y="-55" type="curve" smooth="yes"/>
      <point x="207" y="-29"/>
      <point x="214" y="-8"/>
      <point x="228" y="10" type="curve"/>
      <point x="276" y="0" type="line"/>
      <point x="271" y="-7"/>
      <point x="269" y="-16"/>
      <point x="269" y="-25" type="curve" smooth="yes"/>
      <point x="269" y="-36"/>
      <point x="277" y="-43"/>
      <point x="330" y="-43" type="curve" smooth="yes"/>
      <point x="363" y="-43"/>
      <point x="390" y="-63"/>
      <point x="390" y="-112" type="curve" smooth="yes"/>
      <point x="390" y="-177"/>
      <point x="345" y="-210"/>
    </contour>
  </outline>
</glyph>
<glyph name="Agrave" format="1">
  <advance width="730"/>
  <unicode hex="00C0"/>
  <outline>
    <contour>
      <point x="505" y="773" type="line"/>
      <point x="451" y="835"/>
      <point x="318" y="853"/>
      <point x="241" y="814" type="curve"/>
      <point x="236" y="940" type="line"/>
      <point x="344" y="962"/>
      <point x="482" y="899"/>
      <point x="517" y="795" type="curve"/>
    </contour>
    <contour>
      <point x="498" y="278" type="line"/>
      <point x="381" y="583" type="line"/>
      <point x="261" y="278" type="line"/>
    </contour>
    <contour>
      <point x="604" y="0" type="line"/>
      <point x="527" y="202" type="line"/>
      <point x="231" y="202" type="line"/>
      <point x="152" y="0" type="line"/>
      <point x="32" y="0" type="line"/>
      <point x="288" y="730" type="line"/>
      <point x="411" y="730" type="line"/>
      <point x="678" y="0" type="line"/>
    </contour>
  </outline>
</glyph>
<glyph name="Aacute" format="1">
  <advance width="730"/>
  <unicode hex="00C1"/>
  <outline>
    <contour>
      <point x="217" y="773" type="curve"/>
      <point x="205" y="795" type="line"/>
      <point x="240" y="898"/>
      <point x="379" y="961"/>
      <point x="486" y="940" type="curve"/>
      <point x="481" y="814" type="line"/>
      <point x="403" y="853"/>
      <point x="271" y="835"/>
    </contour>
    <contour>
      <point x="498" y="278" type="line"/>
      <point x="381" y="583" type="line"/>
      <point x="261" y="278" type="line"/>
    </contour>
    <contour>
      <point x="604" y="0" type="line"/>
      <point x="527" y="202" type="line"/>
      <point x="231" y="202" type="line"/>
      <point x="152" y="0" type="line"/>
      <point x="32" y="0" type="line"/>
      <point x="288" y="730" type="line"/>
      <point x="411" y="730" type="line"/>
      <point x="678" y="0" type="line"/>
    </contour>
  </outline>
</glyph>
<glyph name="Acircumflex" format="1">
  <advance width="730"/>
  <unicode hex="00C2"/>
  <outline>
    <contour>
      <point x="547" y="785" type="line"/>
      <point x="479" y="780"/>
      <point x="385" y="799"/>
      <point x="365" y="839" type="curve"/>
      <point x="345" y="799"/>
      <point x="251" y="780"/>
      <point x="183" y="785" type="curve"/>
      <point x="183" y="819" type="line"/>
      <point x="247" y="830"/>
      <point x="323" y="901"/>
      <point x="355" y="960" type="curve"/>
      <point x="375" y="960" type="line"/>
      <point x="407" y="901"/>
      <point x="483" y="830"/>
      <point x="547" y="819" type="curve"/>
    </contour>
    <contour>
      <point x="498" y="278" type="line"/>
      <point x="381" y="583" type="line"/>
      <point x="261" y="278" type="line"/>
    </contour>
    <contour>
      <point x="604" y="0" type="line"/>
      <point x="527" y="202" type="line"/>
      <point x="231" y="202" type="line"/>
      <point x="152" y="0" type="line"/>
      <point x="32" y="0" type="line"/>
      <point x="288" y="730" type="line"/>
      <point x="411" y="730" type="line"/>
      <point x="678" y="0" type="line"/>
    </contour>
  </outline>
</glyph>
<glyph name="Atilde" format="1">
  <advance width="730"/>
  <unicode hex="00C3"/>
  <outline>
    <contour>
      <point x="367" y="906" type="curve" smooth="yes"/>
      <point x="444" y="886"/>
      <point x="518" y="889"/>
      <point x="537" y="910" type="curve"/>
      <point x="544" y="897" type="line"/>
      <point x="510" y="811"/>
      <point x="431" y="772"/>
      <point x="364" y="795" type="curve" smooth="yes"/>
      <point x="281" y="823"/>
      <point x="216" y="811"/>
      <point x="194" y="786" type="curve"/>
      <point x="187" y="799" type="line"/>
      <point x="214" y="876"/>
      <point x="284" y="928"/>
    </contour>
    <contour>
      <point x="498" y="278" type="line"/>
      <point x="381" y="583" type="line"/>
      <point x="261" y="278" type="line"/>
    </contour>
    <contour>
      <point x="604" y="0" type="line"/>
      <point x="527" y="202" type="line"/>
      <point x="231" y="202" type="line"/>
      <point x="152" y="0" type="line"/>
      <point x="32" y="0" type="line"/>
      <point x="288" y="730" type="line"/>
      <point x="411" y="730" type="line"/>
      <point x="678" y="0" type="line"/>
    </contour>
  </outline>
</glyph>
<glyph name="Aring" format="1">
  <advance width="730"/>
  <unicode hex="00C5"/>
  <outline>
    <contour>
      <point x="470" y="885" type="curve" smooth="yes"/>
      <point x="469" y="814"/>
      <point x="426" y="783"/>
      <point x="366" y="783" type="curve" smooth="yes"/>
      <point x="312" y="783"/>
      <point x="261" y="814"/>
      <point x="260" y="885" type="curve" smooth="yes"/>
      <point x="261" y="962"/>
      <point x="303" y="994"/>
      <point x="364" y="994" type="curve" smooth="yes"/>
      <point x="420" y="994"/>
      <point x="469" y="962"/>
    </contour>
    <contour>
      <point x="436" y="885" type="curve" smooth="yes"/>
      <point x="435" y="912"/>
      <point x="413" y="935"/>
      <point x="364" y="935" type="curve" smooth="yes"/>
      <point x="318" y="935"/>
      <point x="295" y="915"/>
      <point x="295" y="885" type="curve" smooth="yes"/>
      <point x="295" y="858"/>
      <point x="318" y="840"/>
      <point x="366" y="840" type="curve" smooth="yes"/>
      <point x="412" y="840"/>
      <point x="437" y="857"/>
    </contour>
    <contour>
      <point x="498" y="278" type="line"/>
      <point x="381" y="583" type="line"/>
      <point x="261" y="278" type="line"/>
    </contour>
    <contour>
      <point x="604" y="0" type="line"/>
      <point x="527" y="202" type="line"/>
      <point x="231" y="202" type="line"/>
      <point x="152" y="0" type="line"/>
      <point x="32" y="0" type="line"/>
      <point x="288" y="730" type="line"/>
      <point x="411" y="730" type="line"/>
      <point x="678" y="0" type="line"/>
    </contour>
  </outline>
</glyph>
<glyph name="AE" format="1">
  <advance width="980"/>
  <unicode hex="00C6"/>
  <outline>
    <contour>
      <point x="370" y="556" type="line"/>
      <point x="256" y="268" type="line"/>
      <point x="457" y="268" type="line"/>
      <point x="457" y="556" type="line"/>
    </contour>
    <contour>
      <point x="457" y="0" type="line"/>
      <point x="457" y="202" type="line"/>
      <point x="230" y="202" type="line"/>
      <point x="150" y="0" type="line"/>
      <point x="31" y="0" type="line"/>
      <point x="289" y="730" type="line"/>
      <point x="858" y="730" type="line"/>
      <point x="858" y="551" type="line"/>
      <point x="527" y="551" type="line"/>
      <point x="527" y="398" type="line"/>
      <point x="768" y="398" type="line"/>
      <point x="768" y="312" type="line"/>
      <point x="527" y="312" type="line"/>
      <point x="527" y="131" type="line"/>
      <point x="865" y="131" type="line"/>
      <point x="865" y="0" type="line"/>
    </contour>
  </outline>
</glyph>
<glyph name="Ccedilla" format="1">
  <advance width="730"/>
  <unicode hex="00C7"/>
  <outline>
    <contour>
      <point x="356" y="-210" type="curve" smooth="yes"/>
      <point x="305" y="-210"/>
      <point x="247" y="-192"/>
      <point x="239" y="-157" type="curve"/>
      <point x="274" y="-101" type="line"/>
      <point x="284" y="-118"/>
      <point x="317" y="-134"/>
      <point x="361" y="-134" type="curve" smooth="yes"/>
      <point x="427" y="-134"/>
      <point x="442" y="-126"/>
      <point x="442" y="-109" type="curve" smooth="yes"/>
      <point x="442" y="-99"/>
      <point x="432" y="-90"/>
      <point x="416" y="-90" type="curve" smooth="yes"/>
      <point x="398" y="-90"/>
      <point x="374" y="-94"/>
      <point x="358" y="-94" type="curve" smooth="yes"/>
      <point x="329" y="-94"/>
      <point x="305" y="-80"/>
      <point x="305" y="-55" type="curve" smooth="yes"/>
      <point x="305" y="-37"/>
      <point x="308" y="-22"/>
      <point x="315" y="-8" type="curve"/>
      <point x="165" y="9"/>
      <point x="65" y="127"/>
      <point x="65" y="354" type="curve" smooth="yes"/>
      <point x="65" y="631"/>
      <point x="190" y="741"/>
      <point x="364" y="740" type="curve" smooth="yes"/>
      <point x="506" y="739"/>
      <point x="608" y="692"/>
      <point x="647" y="538" type="curve"/>
      <point x="579" y="481" type="line"/>
      <point x="544" y="525"/>
      <point x="473" y="553"/>
      <point x="364" y="553" type="curve" smooth="yes"/>
      <point x="213" y="553"/>
      <point x="128" y="472"/>
      <point x="127" y="342" type="curve" smooth="yes"/>
      <point x="126" y="211"/>
      <point x="205" y="129"/>
      <point x="368" y="129" type="curve" smooth="yes"/>
      <point x="482" y="129"/>
      <point x="570" y="177"/>
      <point x="596" y="255" type="curve"/>
      <point x="655" y="210" type="line"/>
      <point x="623" y="73"/>
      <point x="528" y="-5"/>
      <point x="369" y="-10" type="curve"/>
      <point x="368" y="-15"/>
      <point x="367" y="-20"/>
      <point x="367" y="-25" type="curve" smooth="yes"/>
      <point x="367" y="-36"/>
      <point x="375" y="-43"/>
      <point x="428" y="-43" type="curve" smooth="yes"/>
      <point x="461" y="-43"/>
      <point x="488" y="-63"/>
      <point x="488" y="-112" type="curve" smooth="yes"/>
      <point x="488" y="-177"/>
      <point x="443" y="-210"/>
    </contour>
  </outline>
</glyph>
<glyph name="Egrave" format="1">
  <advance width="630"/>
  <unicode hex="00C8"/>
  <outline>
    <contour>
      <point x="445" y="773" type="line"/>
      <point x="391" y="835"/>
      <point x="258" y="853"/>
      <point x="181" y="814" type="curve"/>
      <point x="176" y="940" type="line"/>
      <point x="284" y="962"/>
      <point x="422" y="899"/>
      <point x="457" y="795" type="curve"/>
    </contour>
    <contour>
      <point x="80" y="0" type="line"/>
      <point x="80" y="730" type="line"/>
      <point x="524" y="730" type="line"/>
      <point x="524" y="550" type="line"/>
      <point x="151" y="550" type="line"/>
      <point x="151" y="398" type="line"/>
      <point x="433" y="398" type="line"/>
      <point x="433" y="312" type="line"/>
      <point x="151" y="312" type="line"/>
      <point x="151" y="131" type="line"/>
      <point x="530" y="131" type="line"/>
      <point x="530" y="0" type="line"/>
    </contour>
  </outline>
</glyph>
<glyph name="Eacute" format="1">
  <advance width="630"/>
  <unicode hex="00C9"/>
  <outline>
    <contour>
      <point x="167" y="773" type="curve"/>
      <point x="155" y="795" type="line"/>
      <point x="190" y="898"/>
      <point x="329" y="961"/>
      <point x="436" y="940" type="curve"/>
      <point x="431" y="814" type="line"/>
      <point x="353" y="853"/>
      <point x="221" y="835"/>
    </contour>
    <contour>
      <point x="80" y="0" type="line"/>
      <point x="80" y="730" type="line"/>
      <point x="524" y="730" type="line"/>
      <point x="524" y="550" type="line"/>
      <point x="151" y="550" type="line"/>
      <point x="151" y="398" type="line"/>
      <point x="433" y="398" type="line"/>
      <point x="433" y="312" type="line"/>
      <point x="151" y="312" type="line"/>
      <point x="151" y="131" type="line"/>
      <point x="530" y="131" type="line"/>
      <point x="530" y="0" type="line"/>
    </contour>
  </outline>
</glyph>
<glyph name="Ecircumflex" format="1">
  <advance width="630"/>
  <unicode hex="00CA"/>
  <outline>
    <contour>
      <point x="487" y="785" type="line"/>
      <point x="419" y="780"/>
      <point x="325" y="799"/>
      <point x="305" y="839" type="curve"/>
      <point x="285" y="799"/>
      <point x="191" y="780"/>
      <point x="123" y="785" type="curve"/>
      <point x="123" y="819" type="line"/>
      <point x="187" y="830"/>
      <point x="263" y="901"/>
      <point x="295" y="960" type="curve"/>
      <point x="315" y="960" type="line"/>
      <point x="347" y="901"/>
      <point x="423" y="830"/>
      <point x="487" y="819" type="curve"/>
    </contour>
    <contour>
      <point x="80" y="0" type="line"/>
      <point x="80" y="730" type="line"/>
      <point x="524" y="730" type="line"/>
      <point x="524" y="550" type="line"/>
      <point x="151" y="550" type="line"/>
      <point x="151" y="398" type="line"/>
      <point x="433" y="398" type="line"/>
      <point x="433" y="312" type="line"/>
      <point x="151" y="312" type="line"/>
      <point x="151" y="131" type="line"/>
      <point x="530" y="131" type="line"/>
      <point x="530" y="0" type="line"/>
    </contour>
  </outline>
</glyph>
<glyph name="Edieresis" format="1">
  <advance width="630"/>
  <unicode hex="00CB"/>
  <outline>
    <contour>
      <point x="487" y="850" type="curve" smooth="yes"/>
      <point x="487" y="807"/>
      <point x="459" y="786"/>
      <point x="413" y="786" type="curve" smooth="yes"/>
      <point x="361" y="786"/>
      <point x="333" y="807"/>
      <point x="333" y="850" type="curve" smooth="yes"/>
      <point x="333" y="897"/>
      <point x="360" y="917"/>
      <point x="413" y="917" type="curve" smooth="yes"/>
      <point x="460" y="917"/>
      <point x="487" y="898"/>
    </contour>
    <contour>
      <point x="277" y="850" type="curve" smooth="yes"/>
      <point x="277" y="807"/>
      <point x="249" y="786"/>
      <point x="203" y="786" type="curve" smooth="yes"/>
      <point x="150" y="786"/>
      <point x="123" y="807"/>
      <point x="123" y="850" type="curve" smooth="yes"/>
      <point x="123" y="897"/>
      <point x="150" y="917"/>
      <point x="203" y="917" type="curve" smooth="yes"/>
      <point x="250" y="917"/>
      <point x="277" y="898"/>
    </contour>
    <contour>
      <point x="80" y="0" type="line"/>
      <point x="80" y="730" type="line"/>
      <point x="524" y="730" type="line"/>
      <point x="524" y="550" type="line"/>
      <point x="151" y="550" type="line"/>
      <point x="151" y="398" type="line"/>
      <point x="433" y="398" type="line"/>
      <point x="433" y="312" type="line"/>
      <point x="151" y="312" type="line"/>
      <point x="151" y="131" type="line"/>
      <point x="530" y="131" type="line"/>
      <point x="530" y="0" type="line"/>
    </contour>
  </outline>
</glyph>
<glyph name="Igrave" format="1">
  <advance width="480"/>
  <unicode hex="00CC"/>
  <outline>
    <contour>
      <point x="365" y="773" type="line"/>
      <point x="311" y="835"/>
      <point x="178" y="853"/>
      <point x="101" y="814" type="curve"/>
      <point x="96" y="940" type="line"/>
      <point x="204" y="962"/>
      <point x="342" y="899"/>
      <point x="377" y="795" type="curve"/>
    </contour>
    <contour>
      <point x="410" y="0" type="line"/>
      <point x="50" y="0" type="line"/>
      <point x="50" y="141" type="line"/>
      <point x="196" y="141" type="line"/>
      <point x="196" y="550" type="line"/>
      <point x="56" y="550" type="line"/>
      <point x="56" y="730" type="line"/>
      <point x="404" y="730" type="line"/>
      <point x="404" y="550" type="line"/>
      <point x="268" y="550" type="line"/>
      <point x="268" y="141" type="line"/>
      <point x="410" y="141" type="line"/>
    </contour>
  </outline>
</glyph>
<glyph name="Iacute" format="1">
  <advance width="480"/>
  <unicode hex="00CD"/>
  <outline>
    <contour>
      <point x="107" y="773" type="curve"/>
      <point x="95" y="795" type="line"/>
      <point x="130" y="898"/>
      <point x="269" y="961"/>
      <point x="376" y="940" type="curve"/>
      <point x="371" y="814" type="line"/>
      <point x="293" y="853"/>
      <point x="161" y="835"/>
    </contour>
    <contour>
      <point x="410" y="0" type="line"/>
      <point x="50" y="0" type="line"/>
      <point x="50" y="141" type="line"/>
      <point x="196" y="141" type="line"/>
      <point x="196" y="550" type="line"/>
      <point x="56" y="550" type="line"/>
      <point x="56" y="730" type="line"/>
      <point x="404" y="730" type="line"/>
      <point x="404" y="550" type="line"/>
      <point x="268" y="550" type="line"/>
      <point x="268" y="141" type="line"/>
      <point x="410" y="141" type="line"/>
    </contour>
  </outline>
</glyph>
<glyph name="Icircumflex" format="1">
  <advance width="480"/>
  <unicode hex="00CE"/>
  <outline>
    <contour>
      <point x="417" y="785" type="line"/>
      <point x="349" y="780"/>
      <point x="255" y="799"/>
      <point x="235" y="839" type="curve"/>
      <point x="215" y="799"/>
      <point x="121" y="780"/>
      <point x="53" y="785" type="curve"/>
      <point x="53" y="819" type="line"/>
      <point x="117" y="830"/>
      <point x="193" y="901"/>
      <point x="225" y="960" type="curve"/>
      <point x="245" y="960" type="line"/>
      <point x="277" y="901"/>
      <point x="353" y="830"/>
      <point x="417" y="819" type="curve"/>
    </contour>
    <contour>
      <point x="410" y="0" type="line"/>
      <point x="50" y="0" type="line"/>
      <point x="50" y="141" type="line"/>
      <point x="196" y="141" type="line"/>
      <point x="196" y="550" type="line"/>
      <point x="56" y="550" type="line"/>
      <point x="56" y="730" type="line"/>
      <point x="404" y="730" type="line"/>
      <point x="404" y="550" type="line"/>
      <point x="268" y="550" type="line"/>
      <point x="268" y="141" type="line"/>
      <point x="410" y="141" type="line"/>
    </contour>
  </outline>
</glyph>
<glyph name="Ograve" format="1">
  <advance width="730"/>
  <unicode hex="00D2"/>
  <outline>
    <contour>
      <point x="505" y="773" type="line"/>
      <point x="451" y="835"/>
      <point x="318" y="853"/>
      <point x="241" y="814" type="curve"/>
      <point x="236" y="940" type="line"/>
      <point x="344" y="962"/>
      <point x="482" y="899"/>
      <point x="517" y="795" type="curve"/>
    </contour>
    <contour>
      <point x="355" y="-10" type="curve" smooth="yes"/>
      <point x="183" y="-10"/>
      <point x="58" y="99"/>
      <point x="58" y="351" type="curve" smooth="yes"/>
      <point x="58" y="632"/>
      <point x="179" y="740"/>
      <point x="355" y="740" type="curve" smooth="yes"/>
      <point x="531" y="740"/>
      <point x="652" y="632"/>
      <point x="652" y="351" type="curve" smooth="yes"/>
      <point x="652" y="99"/>
      <point x="528" y="-10"/>
    </contour>
    <contour>
      <point x="355" y="129" type="curve" smooth="yes"/>
      <point x="484" y="129"/>
      <point x="592" y="184"/>
      <point x="591" y="351" type="curve" smooth="yes"/>
      <point x="589" y="464"/>
      <point x="509" y="544"/>
      <point x="355" y="544" type="curve" smooth="yes"/>
      <point x="200" y="544"/>
      <point x="121" y="464"/>
      <point x="120" y="351" type="curve" smooth="yes"/>
      <point x="119" y="185"/>
      <point x="228" y="129"/>
    </contour>
  </outline>
</glyph>
<glyph name="Oacute" format="1">
  <advance width="730"/>
  <unicode hex="00D3"/>
  <outline>
    <contour>
      <point x="217" y="773" type="curve"/>
      <point x="205" y="795" type="line"/>
      <point x="240" y="898"/>
      <point x="379" y="961"/>
      <point x="486" y="940" type="curve"/>
      <point x="481" y="814" type="line"/>
      <point x="403" y="853"/>
      <point x="271" y="835"/>
    </contour>
    <contour>
      <point x="355" y="-10" type="curve" smooth="yes"/>
      <point x="183" y="-10"/>
      <point x="58" y="99"/>
      <point x="58" y="351" type="curve" smooth="yes"/>
      <point x="58" y="632"/>
      <point x="179" y="740"/>
      <point x="355" y="740" type="curve" smooth="yes"/>
      <point x="531" y="740"/>
      <point x="652" y="632"/>
      <point x="652" y="351" type="curve" smooth="yes"/>
      <point x="652" y="99"/>
      <point x="528" y="-10"/>
    </contour>
    <contour>
      <point x="355" y="129" type="curve" smooth="yes"/>
      <point x="484" y="129"/>
      <point x="592" y="184"/>
      <point x="591" y="351" type="curve" smooth="yes"/>
      <point x="589" y="464"/>
      <point x="509" y="544"/>
      <point x="355" y="544" type="curve" smooth="yes"/>
      <point x="200" y="544"/>
      <point x="121" y="464"/>
      <point x="120" y="351" type="curve" smooth="yes"/>
      <point x="119" y="185"/>
      <point x="228" y="129"/>
    </contour>
  </outline>
</glyph>
<glyph name="Ocircumflex" format="1">
  <advance width="730"/>
  <unicode hex="00D4"/>
  <outline>
    <contour>
      <point x="547" y="785" type="line"/>
      <point x="479" y="780"/>
      <point x="385" y="799"/>
      <point x="365" y="839" type="curve"/>
      <point x="345" y="799"/>
      <point x="251" y="780"/>
      <point x="183" y="785" type="curve"/>
      <point x="183" y="819" type="line"/>
      <point x="247" y="830"/>
      <point x="323" y="901"/>
      <point x="355" y="960" type="curve"/>
      <point x="375" y="960" type="line"/>
      <point x="407" y="901"/>
      <point x="483" y="830"/>
      <point x="547" y="819" type="curve"/>
    </contour>
    <contour>
      <point x="355" y="-10" type="curve" smooth="yes"/>
      <point x="183" y="-10"/>
      <point x="58" y="99"/>
      <point x="58" y="351" type="curve" smooth="yes"/>
      <point x="58" y="632"/>
      <point x="179" y="740"/>
      <point x="355" y="740" type="curve" smooth="yes"/>
      <point x="531" y="740"/>
      <point x="652" y="632"/>
      <point x="652" y="351" type="curve" smooth="yes"/>
      <point x="652" y="99"/>
      <point x="528" y="-10"/>
    </contour>
    <contour>
      <point x="355" y="129" type="curve" smooth="yes"/>
      <point x="484" y="129"/>
      <point x="592" y="184"/>
      <point x="591" y="351" type="curve" smooth="yes"/>
      <point x="589" y="464"/>
      <point x="509" y="544"/>
      <point x="355" y="544" type="curve" smooth="yes"/>
      <point x="200" y="544"/>
      <point x="121" y="464"/>
      <point x="120" y="351" type="curve" smooth="yes"/>
      <point x="119" y="185"/>
      <point x="228" y="129"/>
    </contour>
  </outline>
</glyph>
<glyph name="Otilde" format="1">
  <advance width="730"/>
  <unicode hex="00D5"/>
  <outline>
    <contour>
      <point x="367" y="906" type="curve" smooth="yes"/>
      <point x="444" y="886"/>
      <point x="518" y="889"/>
      <point x="537" y="910" type="curve"/>
      <point x="544" y="897" type="line"/>
      <point x="510" y="811"/>
      <point x="431" y="772"/>
      <point x="364" y="795" type="curve" smooth="yes"/>
      <point x="281" y="823"/>
      <point x="216" y="811"/>
      <point x="194" y="786" type="curve"/>
      <point x="187" y="799" type="line"/>
      <point x="214" y="876"/>
      <point x="284" y="928"/>
    </contour>
    <contour>
      <point x="355" y="-10" type="curve" smooth="yes"/>
      <point x="183" y="-10"/>
      <point x="58" y="99"/>
      <point x="58" y="351" type="curve" smooth="yes"/>
      <point x="58" y="632"/>
      <point x="179" y="740"/>
      <point x="355" y="740" type="curve" smooth="yes"/>
      <point x="531" y="740"/>
      <point x="652" y="632"/>
      <point x="652" y="351" type="curve" smooth="yes"/>
      <point x="652" y="99"/>
      <point x="528" y="-10"/>
    </contour>
    <contour>
      <point x="355" y="129" type="curve" smooth="yes"/>
      <point x="484" y="129"/>
      <point x="592" y="184"/>
      <point x="591" y="351" type="curve" smooth="yes"/>
      <point x="589" y="464"/>
      <point x="509" y="544"/>
      <point x="355" y="544" type="curve" smooth="yes"/>
      <point x="200" y="544"/>
      <point x="121" y="464"/>
      <point x="120" y="351" type="curve" smooth="yes"/>
      <point x="119" y="185"/>
      <point x="228" y="129"/>
    </contour>
  </outline>
</glyph>
<glyph name="multiply" format="1">
  <advance width="530"/>
  <unicode hex="00D7"/>
  <outline>
    <contour>
      <point x="440" y="26" type="line"/>
      <point x="273" y="223" type="line"/>
      <point x="122" y="30" type="line"/>
      <point x="42" y="102" type="line"/>
      <point x="206" y="303" type="line"/>
      <point x="52" y="485" type="line"/>
      <point x="101" y="530" type="line"/>
      <point x="249" y="355" type="line"/>
      <point x="392" y="530" type="line"/>
      <point x="467" y="470" type="line"/>
      <point x="315" y="276" type="line"/>
      <point x="488" y="72" type="line"/>
    </contour>
  </outline>
</glyph>
<glyph name="Ucircumflex" format="1">
  <advance width="730"/>
  <unicode hex="00DB"/>
  <outline>
    <contour>
      <point x="532" y="785" type="line"/>
      <point x="464" y="780"/>
      <point x="370" y="799"/>
      <point x="350" y="839" type="curve"/>
      <point x="330" y="799"/>
      <point x="236" y="780"/>
      <point x="168" y="785" type="curve"/>
      <point x="168" y="819" type="line"/>
      <point x="232" y="830"/>
      <point x="308" y="901"/>
      <point x="340" y="960" type="curve"/>
      <point x="360" y="960" type="line"/>
      <point x="392" y="901"/>
      <point x="468" y="830"/>
      <point x="532" y="819" type="curve"/>
    </contour>
    <contour>
      <point x="572" y="361" type="curve" smooth="yes"/>
      <point x="572" y="730" type="line"/>
      <point x="640" y="730" type="line"/>
      <point x="640" y="296" type="line" smooth="yes"/>
      <point x="640" y="83"/>
      <point x="530" y="-10"/>
      <point x="355" y="-10" type="curve" smooth="yes"/>
      <point x="188" y="-10"/>
      <point x="70" y="82"/>
      <point x="70" y="294" type="curve" smooth="yes"/>
      <point x="70" y="730" type="line"/>
      <point x="136" y="730" type="line"/>
      <point x="136" y="369" type="line" smooth="yes"/>
      <point x="136" y="310"/>
      <point x="144" y="251"/>
      <point x="179" y="215" type="curve" smooth="yes"/>
      <point x="220" y="174"/>
      <point x="279" y="155"/>
      <point x="358" y="155" type="curve" smooth="yes"/>
      <point x="432" y="155"/>
      <point x="491" y="173"/>
      <point x="530" y="215" type="curve" smooth="yes"/>
      <point x="561" y="249"/>
      <point x="572" y="308"/>
    </contour>
  </outline>
</glyph>
<glyph name="Udieresis" format="1">
  <advance width="730"/>
  <unicode hex="00DC"/>
  <outline>
    <contour>
      <point x="532" y="850" type="curve" smooth="yes"/>
      <point x="532" y="807"/>
      <point x="504" y="786"/>
      <point x="458" y="786" type="curve" smooth="yes"/>
      <point x="406" y="786"/>
      <point x="378" y="807"/>
      <point x="378" y="850" type="curve" smooth="yes"/>
      <point x="378" y="897"/>
      <point x="405" y="917"/>
      <point x="458" y="917" type="curve" smooth="yes"/>
      <point x="505" y="917"/>
      <point x="532" y="898"/>
    </contour>
    <contour>
      <point x="322" y="850" type="curve" smooth="yes"/>
      <point x="322" y="807"/>
      <point x="294" y="786"/>
      <point x="248" y="786" type="curve" smooth="yes"/>
      <point x="195" y="786"/>
      <point x="168" y="807"/>
      <point x="168" y="850" type="curve" smooth="yes"/>
      <point x="168" y="897"/>
      <point x="195" y="917"/>
      <point x="248" y="917" type="curve" smooth="yes"/>
      <point x="295" y="917"/>
      <point x="322" y="898"/>
    </contour>
    <contour>
      <point x="572" y="361" type="curve" smooth="yes"/>
      <point x="572" y="730" type="line"/>
      <point x="640" y="730" type="line"/>
      <point x="640" y="296" type="line" smooth="yes"/>
      <point x="640" y="83"/>
      <point x="530" y="-10"/>
      <point x="355" y="-10" type="curve" smooth="yes"/>
      <point x="188" y="-10"/>
      <point x="70" y="82"/>
      <point x="70" y="294" type="curve" smooth="yes"/>
      <point x="70" y="730" type="line"/>
      <point x="136" y="730" type="line"/>
      <point x="136" y="369" type="line" smooth="yes"/>
      <point x="136" y="310"/>
      <point x="144" y="251"/>
      <point x="179" y="215" type="curve" smooth="yes"/>
      <point x="220" y="174"/>
      <point x="279" y="155"/>
      <point x="358" y="155" type="curve" smooth="yes"/>
      <point x="432" y="155"/>
      <point x="491" y="173"/>
      <point x="530" y="215" type="curve" smooth="yes"/>
      <point x="561" y="249"/>
      <point x="572" y="308"/>
    </contour>
  </outline>
</glyph>
<glyph name="Thorn" format="1">
  <advance width="680"/>
  <unicode hex="00DE"/>
  <outline>
    <contour>
      <point x="340" y="150" type="curve" smooth="yes"/>
      <point x="186" y="150" type="line"/>
      <point x="186" y="0" type="line"/>
      <point x="116" y="0" type="line"/>
      <point x="116" y="730" type="line"/>
      <point x="186" y="730" type="line"/>
      <point x="186" y="618" type="line"/>
      <point x="341" y="618" type="line" smooth="yes"/>
      <point x="499" y="618"/>
      <point x="588" y="549"/>
      <point x="588" y="370" type="curve" smooth="yes"/>
      <point x="588" y="218"/>
      <point x="504" y="150"/>
    </contour>
    <contour>
      <point x="400" y="286" type="line" smooth="yes"/>
      <point x="482" y="286"/>
      <point x="529" y="323"/>
      <point x="528" y="370" type="curve" smooth="yes"/>
      <point x="527" y="421"/>
      <point x="485" y="458"/>
      <point x="400" y="458" type="curve" smooth="yes"/>
      <point x="186" y="458" type="line"/>
      <point x="186" y="286" type="line"/>
    </contour>
  </outline>
</glyph>
<glyph name="germandbls" format="1">
  <advance width="530"/>
  <unicode hex="00DF"/>
  <outline>
    <contour>
      <point x="269" y="0" type="curve" smooth="yes"/>
      <point x="180" y="0" type="line"/>
      <point x="180" y="125" type="line"/>
      <point x="279" y="125" type="line" smooth="yes"/>
      <point x="390" y="125"/>
      <point x="443" y="160"/>
      <point x="444" y="224" type="curve" smooth="yes"/>
      <point x="445" y="280"/>
      <point x="394" y="324"/>
      <point x="279" y="324" type="curve" smooth="yes"/>
      <point x="178" y="324" type="line"/>
      <point x="178" y="410" type="line"/>
      <point x="279" y="410" type="line" smooth="yes"/>
      <point x="384" y="410"/>
      <point x="426" y="447"/>
      <point x="427" y="496" type="curve" smooth="yes"/>
      <point x="428" y="541"/>
      <point x="377" y="581"/>
      <point x="276" y="581" type="curve" smooth="yes"/>
      <point x="163" y="581"/>
      <point x="121" y="549"/>
      <point x="121" y="491" type="curve" smooth="yes"/>
      <point x="121" y="0" type="line"/>
      <point x="56" y="0" type="line"/>
      <point x="56" y="539" type="line" smooth="yes"/>
      <point x="56" y="671"/>
      <point x="144" y="740"/>
      <point x="259" y="740" type="curve" smooth="yes"/>
      <point x="399" y="740"/>
      <point x="485" y="656"/>
      <point x="485" y="521" type="curve" smooth="yes"/>
      <point x="485" y="447"/>
      <point x="449" y="385"/>
      <point x="378" y="373" type="curve"/>
      <point x="463" y="362"/>
      <point x="507" y="295"/>
      <point x="507" y="195" type="curve" smooth="yes"/>
      <point x="507" y="83"/>
      <point x="427" y="0"/>
    </contour>
  </outline>
</glyph>
<glyph name="agrave" format="1">
  <advance width="530"/>
  <unicode hex="00E0"/>
  <outline>
    <contour>
      <point x="404" y="613" type="line"/>
      <point x="350" y="675"/>
      <point x="217" y="693"/>
      <point x="140" y="654" type="curve"/>
      <point x="135" y="780" type="line"/>
      <point x="243" y="802"/>
      <point x="381" y="739"/>
      <point x="416" y="635" type="curve"/>
    </contour>
    <contour>
      <point x="248" y="95" type="curve" smooth="yes"/>
      <point x="310" y="95"/>
      <point x="365" y="109"/>
      <point x="397" y="139" type="curve"/>
      <point x="397" y="210" type="line"/>
      <point x="356" y="241"/>
      <point x="311" y="256"/>
      <point x="255" y="256" type="curve" smooth="yes"/>
      <point x="162" y="256"/>
      <point x="115" y="223"/>
      <point x="115" y="173" type="curve" smooth="yes"/>
      <point x="115" y="132"/>
      <point x="172" y="95"/>
    </contour>
    <contour>
      <point x="420" y="0" type="line"/>
      <point x="407" y="35" type="line"/>
      <point x="372" y="5"/>
      <point x="325" y="-10"/>
      <point x="247" y="-10" type="curve" smooth="yes"/>
      <point x="105" y="-10"/>
      <point x="37" y="58"/>
      <point x="37" y="155" type="curve" smooth="yes"/>
      <point x="37" y="265"/>
      <point x="113" y="327"/>
      <point x="237" y="327" type="curve" smooth="yes"/>
      <point x="284" y="327"/>
      <point x="354" y="318"/>
      <point x="396" y="289" type="curve"/>
      <point x="391" y="383"/>
      <point x="347" y="422"/>
      <point x="253" y="422" type="curve" smooth="yes"/>
      <point x="168" y="422"/>
      <point x="118" y="395"/>
      <point x="91" y="363" type="curve"/>
      <point x="87" y="492" type="line"/>
      <point x="125" y="537"/>
      <point x="188" y="560"/>
      <point x="263" y="560" type="curve" smooth="yes"/>
      <point x="399" y="560"/>
      <point x="460" y="501"/>
      <point x="460" y="316" type="curve" smooth="yes"/>
      <point x="460" y="0" type="line"/>
    </contour>
  </outline>
</glyph>
<glyph name="atilde" format="1">
  <advance width="530"/>
  <unicode hex="00E3"/>
  <outline>
    <contour>
      <point x="257" y="786" type="curve" smooth="yes"/>
      <point x="334" y="766"/>
      <point x="408" y="769"/>
      <point x="427" y="790" type="curve"/>
      <point x="434" y="777" type="line"/>
      <point x="400" y="691"/>
      <point x="321" y="652"/>
      <point x="254" y="675" type="curve" smooth="yes"/>
      <point x="171" y="703"/>
      <point x="106" y="691"/>
      <point x="84" y="666" type="curve"/>
      <point x="77" y="679" type="line"/>
      <point x="104" y="756"/>
      <point x="174" y="808"/>
    </contour>
    <contour>
      <point x="248" y="95" type="curve" smooth="yes"/>
      <point x="310" y="95"/>
      <point x="365" y="109"/>
      <point x="397" y="139" type="curve"/>
      <point x="397" y="210" type="line"/>
      <point x="356" y="241"/>
      <point x="311" y="256"/>
      <point x="255" y="256" type="curve" smooth="yes"/>
      <point x="162" y="256"/>
      <point x="115" y="223"/>
      <point x="115" y="173" type="curve" smooth="yes"/>
      <point x="115" y="132"/>
      <point x="172" y="95"/>
    </contour>
    <contour>
      <point x="420" y="0" type="line"/>
      <point x="407" y="35" type="line"/>
      <point x="372" y="5"/>
      <point x="325" y="-10"/>
      <point x="247" y="-10" type="curve" smooth="yes"/>
      <point x="105" y="-10"/>
      <point x="37" y="58"/>
      <point x="37" y="155" type="curve" smooth="yes"/>
      <point x="37" y="265"/>
      <point x="113" y="327"/>
      <point x="237" y="327" type="curve" smooth="yes"/>
      <point x="284" y="327"/>
      <point x="354" y="318"/>
      <point x="396" y="289" type="curve"/>
      <point x="391" y="383"/>
      <point x="347" y="422"/>
      <point x="253" y="422" type="curve" smooth="yes"/>
      <point x="168" y="422"/>
      <point x="118" y="395"/>
      <point x="91" y="363" type="curve"/>
      <point x="87" y="492" type="line"/>
      <point x="125" y="537"/>
      <point x="188" y="560"/>
      <point x="263" y="560" type="curve" smooth="yes"/>
      <point x="399" y="560"/>
      <point x="460" y="501"/>
      <point x="460" y="316" type="curve" smooth="yes"/>
      <point x="460" y="0" type="line"/>
    </contour>
  </outline>
</glyph>
<glyph name="adieresis" format="1">
  <advance width="530"/>
  <unicode hex="00E4"/>
  <outline>
    <contour>
      <point x="440" y="730" type="curve" smooth="yes"/>
      <point x="440" y="687"/>
      <point x="412" y="666"/>
      <point x="366" y="666" type="curve" smooth="yes"/>
      <point x="314" y="666"/>
      <point x="286" y="687"/>
      <point x="286" y="730" type="curve" smooth="yes"/>
      <point x="286" y="777"/>
      <point x="313" y="797"/>
      <point x="366" y="797" type="curve" smooth="yes"/>
      <point x="413" y="797"/>
      <point x="440" y="778"/>
    </contour>
    <contour>
      <point x="230" y="730" type="curve" smooth="yes"/>
      <point x="230" y="687"/>
      <point x="202" y="666"/>
      <point x="156" y="666" type="curve" smooth="yes"/>
      <point x="103" y="666"/>
      <point x="76" y="687"/>
      <point x="76" y="730" type="curve" smooth="yes"/>
      <point x="76" y="777"/>
      <point x="103" y="797"/>
      <point x="156" y="797" type="curve" smooth="yes"/>
      <point x="203" y="797"/>
      <point x="230" y="778"/>
    </contour>
    <contour>
      <point x="248" y="95" type="curve" smooth="yes"/>
      <point x="310" y="95"/>
      <point x="365" y="109"/>
      <point x="397" y="139" type="curve"/>
      <point x="397" y="210" type="line"/>
      <point x="356" y="241"/>
      <point x="311" y="256"/>
      <point x="255" y="256" type="curve" smooth="yes"/>
      <point x="162" y="256"/>
      <point x="115" y="223"/>
      <point x="115" y="173" type="curve" smooth="yes"/>
      <point x="115" y="132"/>
      <point x="172" y="95"/>
    </contour>
    <contour>
      <point x="420" y="0" type="line"/>
      <point x="407" y="35" type="line"/>
      <point x="372" y="5"/>
      <point x="325" y="-10"/>
      <point x="247" y="-10" type="curve" smooth="yes"/>
      <point x="105" y="-10"/>
      <point x="37" y="58"/>
      <point x="37" y="155" type="curve" smooth="yes"/>
      <point x="37" y="265"/>
      <point x="113" y="327"/>
      <point x="237" y="327" type="curve" smooth="yes"/>
      <point x="284" y="327"/>
      <point x="354" y="318"/>
      <point x="396" y="289" type="curve"/>
      <point x="391" y="383"/>
      <point x="347" y="422"/>
      <point x="253" y="422" type="curve" smooth="yes"/>
      <point x="168" y="422"/>
      <point x="118" y="395"/>
      <point x="91" y="363" type="curve"/>
      <point x="87" y="492" type="line"/>
      <point x="125" y="537"/>
      <point x="188" y="560"/>
      <point x="263" y="560" type="curve" smooth="yes"/>
      <point x="399" y="560"/>
      <point x="460" y="501"/>
      <point x="460" y="316" type="curve" smooth="yes"/>
      <point x="460" y="0" type="line"/>
    </contour>
  </outline>
</glyph>
<glyph name="edieresis" format="1">
  <advance width="530"/>
  <unicode hex="00EB"/>
  <outline>
    <contour>
      <point x="440" y="730" type="curve" smooth="yes"/>
      <point x="440" y="687"/>
      <point x="412" y="666"/>
      <point x="366" y="666" type="curve" smooth="yes"/>
      <point x="314" y="666"/>
      <point x="286" y="687"/>
      <point x="286" y="730" type="curve" smooth="yes"/>
      <point x="286" y="777"/>
      <point x="313" y="797"/>
      <point x="366" y="797" type="curve" smooth="yes"/>
      <point x="413" y="797"/>
      <point x="440" y="778"/>
    </contour>
    <contour>
      <point x="230" y="730" type="curve" smooth="yes"/>
      <point x="230" y="687"/>
      <point x="202" y="666"/>
      <point x="156" y="666" type="curve" smooth="yes"/>
      <point x="103" y="666"/>
      <point x="76" y="687"/>
      <point x="76" y="730" type="curve" smooth="yes"/>
      <point x="76" y="777"/>
      <point x="103" y="797"/>
      <point x="156" y="797" type="curve" smooth="yes"/>
      <point x="203" y="797"/>
      <point x="230" y="778"/>
    </contour>
    <contour>
      <point x="255" y="418" type="curve" smooth="yes"/>
      <point x="180" y="418"/>
      <point x="110" y="373"/>
      <point x="96" y="297" type="curve"/>
      <point x="420" y="297" type="line"/>
      <point x="420" y="358"/>
      <point x="357" y="418"/>
    </contour>
    <contour>
      <point x="466" y="126" type="line"/>
      <point x="433" y="50"/>
      <point x="359" y="-10"/>
      <point x="262" y="-10" type="curve" smooth="yes"/>
      <point x="112" y="-10"/>
      <point x="35" y="105"/>
      <point x="35" y="267" type="curve" smooth="yes"/>
      <point x="35" y="480"/>
      <point x="140" y="560"/>
      <point x="260" y="560" type="curve" smooth="yes"/>
      <point x="396" y="560"/>
      <point x="485" y="460"/>
      <point x="485" y="232" type="curve"/>
      <point x="96" y="232" type="line"/>
      <point x="109" y="144"/>
      <point x="168" y="102"/>
      <point x="260" y="101" type="curve" smooth="yes"/>
      <point x="348" y="100"/>
      <point x="390" y="121"/>
      <point x="419" y="161" type="curve"/>
    </contour>
  </outline>
</glyph>
<glyph name="eth" format="1">
  <advance width="530"/>
  <unicode hex="00F0"/>
  <outline>
    <contour>
      <point x="266" y="-10" type="curve" smooth="yes"/>
      <point x="142" y="-10"/>
      <point x="35" y="71"/>
      <point x="35" y="264" type="curve" smooth="yes"/>
      <point x="35" y="478"/>
      <point x="127" y="560"/>
      <point x="269" y="560" type="curve" smooth="yes"/>
      <point x="321" y="560"/>
      <point x="375" y="543"/>
      <point x="402" y="520" type="curve"/>
      <point x="391" y="557"/>
      <point x="376" y="590"/>
      <point x="359" y="617" type="curve"/>
      <point x="282" y="587" type="line"/>
      <point x="257" y="649" type="line"/>
      <point x="312" y="671" type="line"/>
      <point x="290" y="689"/>
      <point x="266" y="700"/>
      <point x="242" y="703" type="curve"/>
      <point x="251" y="780" type="line"/>
      <point x="305" y="771"/>
      <point x="353" y="748"/>
      <point x="392" y="702" type="curve"/>
      <point x="463" y="730" type="line"/>
      <point x="488" y="668" type="line"/>
      <point x="430" y="645" type="line"/>
      <point x="471" y="565"/>
      <point x="495" y="444"/>
      <point x="495" y="266" type="curve" smooth="yes"/>
      <point x="495" y="74"/>
      <point x="402" y="-10"/>
    </contour>
    <contour>
      <point x="411" y="511" type="line"/>
      <point x="411" y="511"/>
      <point x="411" y="511"/>
      <point x="411" y="512" type="curve" smooth="yes"/>
    </contour>
    <contour>
      <point x="266" y="107" type="curve" smooth="yes"/>
      <point x="359" y="107"/>
      <point x="438" y="148"/>
      <point x="436" y="266" type="curve" smooth="yes"/>
      <point x="435" y="344"/>
      <point x="379" y="402"/>
      <point x="265" y="402" type="curve" smooth="yes"/>
      <point x="151" y="402"/>
      <point x="95" y="343"/>
      <point x="94" y="266" type="curve" smooth="yes"/>
      <point x="93" y="157"/>
      <point x="162" y="107"/>
    </contour>
  </outline>
</glyph>
<glyph name="oacute" format="1">
  <advance width="530"/>
  <unicode hex="00F3"/>
  <outline>
    <contour>
      <point x="126" y="613" type="curve"/>
      <point x="114" y="635" type="line"/>
      <point x="149" y="738"/>
      <point x="288" y="801"/>
      <point x="395" y="780" type="curve"/>
      <point x="390" y="654" type="line"/>
      <point x="312" y="693"/>
      <point x="180" y="675"/>
    </contour>
    <contour>
      <point x="255" y="-10" type="curve" smooth="yes"/>
      <point x="122" y="-10"/>
      <point x="25" y="73"/>
      <point x="25" y="265" type="curve" smooth="yes"/>
      <point x="25" y="478"/>
      <point x="119" y="560"/>
      <point x="255" y="560" type="curve" smooth="yes"/>
      <point x="392" y="560"/>
      <point x="485" y="478"/>
      <point x="485" y="265" type="curve" smooth="yes"/>
      <point x="485" y="73"/>
      <point x="389" y="-10"/>
    </contour>
    <contour>
      <point x="255" y="107" type="curve" smooth="yes"/>
      <point x="348" y="107"/>
      <point x="427" y="146"/>
      <point x="426" y="265" type="curve" smooth="yes"/>
      <point x="425" y="345"/>
      <point x="368" y="402"/>
      <point x="255" y="402" type="curve" smooth="yes"/>
      <point x="143" y="402"/>
      <point x="85" y="345"/>
      <point x="84" y="265" type="curve" smooth="yes"/>
      <point x="83" y="146"/>
      <point x="162" y="107"/>
    </contour>
  </outline>
</glyph>
<glyph name="odieresis" format="1">
  <advance width="530"/>
  <unicode hex="00F6"/>
  <outline>
    <contour>
      <point x="440" y="730" type="curve" smooth="yes"/>
      <point x="440" y="687"/>
      <point x="412" y="666"/>
      <point x="366" y="666" type="curve" smooth="yes"/>
      <point x="314" y="666"/>
      <point x="286" y="687"/>
      <point x="286" y="730" type="curve" smooth="yes"/>
      <point x="286" y="777"/>
      <point x="313" y="797"/>
      <point x="366" y="797" type="curve" smooth="yes"/>
      <point x="413" y="797"/>
      <point x="440" y="778"/>
    </contour>
    <contour>
      <point x="230" y="730" type="curve" smooth="yes"/>
      <point x="230" y="687"/>
      <point x="202" y="666"/>
      <point x="156" y="666" type="curve" smooth="yes"/>
      <point x="103" y="666"/>
      <point x="76" y="687"/>
      <point x="76" y="730" type="curve" smooth="yes"/>
      <point x="76" y="777"/>
      <point x="103" y="797"/>
      <point x="156" y="797" type="curve" smooth="yes"/>
      <point x="203" y="797"/>
      <point x="230" y="778"/>
    </contour>
    <contour>
      <point x="255" y="-10" type="curve" smooth="yes"/>
      <point x="122" y="-10"/>
      <point x="25" y="73"/>
      <point x="25" y="265" type="curve" smooth="yes"/>
      <point x="25" y="478"/>
      <point x="119" y="560"/>
      <point x="255" y="560" type="curve" smooth="yes"/>
      <point x="392" y="560"/>
      <point x="485" y="478"/>
      <point x="485" y="265" type="curve" smooth="yes"/>
      <point x="485" y="73"/>
      <point x="389" y="-10"/>
    </contour>
    <contour>
      <point x="255" y="107" type="curve" smooth="yes"/>
      <point x="348" y="107"/>
      <point x="427" y="146"/>
      <point x="426" y="265" type="curve" smooth="yes"/>
      <point x="425" y="345"/>
      <point x="368" y="402"/>
      <point x="255" y="402" type="curve" smooth="yes"/>
      <point x="143" y="402"/>
      <point x="85" y="345"/>
      <point x="84" y="265" type="curve" smooth="yes"/>
      <point x="83" y="146"/>
      <point x="162" y="107"/>
    </contour>
  </outline>
</glyph>
<glyph name="uacute" format="1">
  <advance width="530"/>
  <unicode hex="00FA"/>
  <outline>
    <contour>
      <point x="126" y="613" type="curve"/>
      <point x="114" y="635" type="line"/>
      <point x="149" y="738"/>
      <point x="288" y="801"/>
      <point x="395" y="780" type="curve"/>
      <point x="390" y="654" type="line"/>
      <point x="312" y="693"/>
      <point x="180" y="675"/>
    </contour>
    <contour>
      <point x="404" y="0" type="line"/>
      <point x="399" y="88" type="line"/>
      <point x="373" y="33"/>
      <point x="313" y="-10"/>
      <point x="227" y="-10" type="curve" smooth="yes"/>
      <point x="116" y="-10"/>
      <point x="45" y="50"/>
      <point x="45" y="227" type="curve" smooth="yes"/>
      <point x="45" y="550" type="line"/>
      <point x="109" y="550" type="line"/>
      <point x="109" y="279" type="line" smooth="yes"/>
      <point x="109" y="165"/>
      <point x="140" y="124"/>
      <point x="243" y="124" type="curve" smooth="yes"/>
      <point x="319" y="124"/>
      <point x="376" y="159"/>
      <point x="400" y="215" type="curve"/>
      <point x="400" y="550" type="line"/>
      <point x="465" y="550" type="line"/>
      <point x="465" y="0" type="line"/>
    </contour>
  </outline>
</glyph>
<glyph name="ucircumflex" format="1">
  <advance width="530"/>
  <unicode hex="00FB"/>
  <outline>
    <contour>
      <point x="444" y="625" type="line"/>
      <point x="376" y="620"/>
      <point x="282" y="639"/>
      <point x="262" y="679" type="curve"/>
      <point x="242" y="639"/>
      <point x="148" y="620"/>
      <point x="80" y="625" type="curve"/>
      <point x="80" y="659" type="line"/>
      <point x="144" y="670"/>
      <point x="220" y="741"/>
      <point x="252" y="800" type="curve"/>
      <point x="272" y="800" type="line"/>
      <point x="304" y="741"/>
      <point x="380" y="670"/>
      <point x="444" y="659" type="curve"/>
    </contour>
    <contour>
      <point x="404" y="0" type="line"/>
      <point x="399" y="88" type="line"/>
      <point x="373" y="33"/>
      <point x="313" y="-10"/>
      <point x="227" y="-10" type="curve" smooth="yes"/>
      <point x="116" y="-10"/>
      <point x="45" y="50"/>
      <point x="45" y="227" type="curve" smooth="yes"/>
      <point x="45" y="550" type="line"/>
      <point x="109" y="550" type="line"/>
      <point x="109" y="279" type="line" smooth="yes"/>
      <point x="109" y="165"/>
      <point x="140" y="124"/>
      <point x="243" y="124" type="curve" smooth="yes"/>
      <point x="319" y="124"/>
      <point x="376" y="159"/>
      <point x="400" y="215" type="curve"/>
      <point x="400" y="550" type="line"/>
      <point x="465" y="550" type="line"/>
      <point x="465" y="0" type="line"/>
    </contour>
  </outline>
</glyph>
<glyph name="yacute" format="1">
  <advance width="530"/>
  <unicode hex="00FD"/>
  <outline>
    <contour>
      <point x="126" y="613" type="curve"/>
      <point x="114" y="635" type="line"/>
      <point x="149" y="738"/>
      <point x="288" y="801"/>
      <point x="395" y="780" type="curve"/>
      <point x="390" y="654" type="line"/>
      <point x="312" y="693"/>
      <point x="180" y="675"/>
    </contour>
    <contour>
      <point x="132" y="-210" type="curve" smooth="yes"/>
      <point x="79" y="-210"/>
      <point x="8" y="-171"/>
      <point x="4" y="-123" type="curve"/>
      <point x="32" y="-27" type="line"/>
      <point x="60" y="-61"/>
      <point x="100" y="-80"/>
      <point x="132" y="-80" type="curve" smooth="yes"/>
      <point x="177" y="-80"/>
      <point x="204" y="-65"/>
      <point x="225" y="-7" type="curve" smooth="yes"/>
      <point x="240" y="32" type="line"/>
      <point x="181" y="183"/>
      <point x="23" y="550"/>
      <point x="23" y="550" type="curve"/>
      <point x="144" y="550" type="line"/>
      <point x="144" y="550"/>
      <point x="244" y="294"/>
      <point x="292" y="171" type="curve"/>
      <point x="434" y="550" type="line"/>
      <point x="500" y="550" type="line"/>
      <point x="285" y="-39" type="line" smooth="yes"/>
      <point x="243" y="-153"/>
      <point x="218" y="-210"/>
    </contour>
  </outline>
</glyph>
<glyph name="ydieresis" format="1">
  <advance width="530"/>
  <unicode hex="00FF"/>
  <outline>
    <contour>
      <point x="440" y="730" type="curve" smooth="yes"/>
      <point x="440" y="687"/>
      <point x="412" y="666"/>
      <point x="366" y="666" type="curve" smooth="yes"/>
      <point x="314" y="666"/>
      <point x="286" y="687"/>
      <point x="286" y="730" type="curve" smooth="yes"/>
      <point x="286" y="777"/>
      <point x="313" y="797"/>
      <point x="366" y="797" type="curve" smooth="yes"/>
      <point x="413" y="797"/>
      <point x="440" y="778"/>
    </contour>
    <contour>
      <point x="230" y="730" type="curve" smooth="yes"/>
      <point x="230" y="687"/>
      <point x="202" y="666"/>
      <point x="156" y="666" type="curve" smooth="yes"/>
      <point x="103" y="666"/>
      <point x="76" y="687"/>
      <point x="76" y="730" type="curve" smooth="yes"/>
      <point x="76" y="777"/>
      <point x="103" y="797"/>
      <point x="156" y="797" type="curve" smooth="yes"/>
      <point x="203" y="797"/>
      <point x="230" y="778"/>
    </contour>
    <contour>
      <point x="132" y="-210" type="curve" smooth="yes"/>
      <point x="79" y="-210"/>
      <point x="8" y="-171"/>
      <point x="4" y="-123" type="curve"/>
      <point x="32" y="-27" type="line"/>
      <point x="60" y="-61"/>
      <point x="100" y="-80"/>
      <point x="132" y="-80" type="curve" smooth="yes"/>
      <point x="177" y="-80"/>
      <point x="204" y="-65"/>
      <point x="225" y="-7" type="curve" smooth="yes"/>
      <point x="240" y="32" type="line"/>
      <point x="181" y="183"/>
      <point x="23" y="550"/>
      <point x="23" y="550" type="curve"/>
      <point x="144" y="550" type="line"/>
      <point x="144" y="550"/>
      <point x="244" y="294"/>
      <point x="292" y="171" type="curve"/>
      <point x="434" y="550" type="line"/>
      <point x="500" y="550" type="line"/>
      <point x="285" y="-39" type="line" smooth="yes"/>
      <point x="243" y="-153"/>
      <point x="218" y="-210"/>
    </contour>
  </outline>
</glyph>
<glyph name="Amacron" format="1">
  <advance width="730"/>
  <unicode hex="0100"/>
  <outline>
    <contour>
      <point x="539" y="791" type="line"/>
      <point x="191" y="791" type="line"/>
      <point x="191" y="890" type="line"/>
      <point x="539" y="890" type="line"/>
    </contour>
    <contour>
      <point x="498" y="278" type="line"/>
      <point x="381" y="583" type="line"/>
      <point x="261" y="278" type="line"/>
    </contour>
    <contour>
      <point x="604" y="0" type="line"/>
      <point x="527" y="202" type="line"/>
      <point x="231" y="202" type="line"/>
      <point x="152" y="0" type="line"/>
      <point x="32" y="0" type="line"/>
      <point x="288" y="730" type="line"/>
      <point x="411" y="730" type="line"/>
      <point x="678" y="0" type="line"/>
    </contour>
  </outline>
</glyph>
<glyph name="amacron" format="1">
  <advance width="530"/>
  <unicode hex="0101"/>
  <outline>
    <contour>
      <point x="430" y="651" type="line"/>
      <point x="82" y="651" type="line"/>
      <point x="82" y="750" type="line"/>
      <point x="430" y="750" type="line"/>
    </contour>
    <contour>
      <point x="248" y="95" type="curve" smooth="yes"/>
      <point x="310" y="95"/>
      <point x="365" y="109"/>
      <point x="397" y="139" type="curve"/>
      <point x="397" y="210" type="line"/>
      <point x="356" y="241"/>
      <point x="311" y="256"/>
      <point x="255" y="256" type="curve" smooth="yes"/>
      <point x="162" y="256"/>
      <point x="115" y="223"/>
      <point x="115" y="173" type="curve" smooth="yes"/>
      <point x="115" y="132"/>
      <point x="172" y="95"/>
    </contour>
    <contour>
      <point x="420" y="0" type="line"/>
      <point x="407" y="35" type="line"/>
      <point x="372" y="5"/>
      <point x="325" y="-10"/>
      <point x="247" y="-10" type="curve" smooth="yes"/>
      <point x="105" y="-10"/>
      <point x="37" y="58"/>
      <point x="37" y="155" type="curve" smooth="yes"/>
      <point x="37" y="265"/>
      <point x="113" y="327"/>
      <point x="237" y="327" type="curve" smooth="yes"/>
      <point x="284" y="327"/>
      <point x="354" y="318"/>
      <point x="396" y="289" type="curve"/>
      <point x="391" y="383"/>
      <point x="347" y="422"/>
      <point x="253" y="422" type="curve" smooth="yes"/>
      <point x="168" y="422"/>
      <point x="118" y="395"/>
      <point x="91" y="363" type="curve"/>
      <point x="87" y="492" type="line"/>
      <point x="125" y="537"/>
      <point x="188" y="560"/>
      <point x="263" y="560" type="curve" smooth="yes"/>
      <point x="399" y="560"/>
      <point x="460" y="501"/>
      <point x="460" y="316" type="curve" smooth="yes"/>
      <point x="460" y="0" type="line"/>
    </contour>
  </outline>
</glyph>
<glyph name="Abreve" format="1">
  <advance width="730"/>
  <unicode hex="0102"/>
  <outline>
    <contour>
      <point x="360" y="779" type="curve" smooth="yes"/>
      <point x="264" y="779"/>
      <point x="195" y="834"/>
      <point x="195" y="960" type="curve"/>
      <point x="246" y="960" type="line"/>
      <point x="245" y="889"/>
      <point x="299" y="866"/>
      <point x="360" y="866" type="curve" smooth="yes"/>
      <point x="429" y="866"/>
      <point x="486" y="889"/>
      <point x="485" y="960" type="curve"/>
      <point x="535" y="960" type="line"/>
      <point x="535" y="834"/>
      <point x="462" y="779"/>
    </contour>
    <contour>
      <point x="498" y="278" type="line"/>
      <point x="381" y="583" type="line"/>
      <point x="261" y="278" type="line"/>
    </contour>
    <contour>
      <point x="604" y="0" type="line"/>
      <point x="527" y="202" type="line"/>
      <point x="231" y="202" type="line"/>
      <point x="152" y="0" type="line"/>
      <point x="32" y="0" type="line"/>
      <point x="288" y="730" type="line"/>
      <point x="411" y="730" type="line"/>
      <point x="678" y="0" type="line"/>
    </contour>
  </outline>
</glyph>
<glyph name="Aogonek" format="1">
  <advance width="730"/>
  <unicode hex="0104"/>
  <outline>
    <contour>
      <point x="498" y="278" type="line"/>
      <point x="381" y="583" type="line"/>
      <point x="261" y="278" type="line"/>
    </contour>
    <contour>
      <point x="793" y="-190" type="line"/>
      <point x="771" y="-203"/>
      <point x="733" y="-210"/>
      <point x="691" y="-210" type="curve" smooth="yes"/>
      <point x="600" y="-210"/>
      <point x="552" y="-167"/>
      <point x="551" y="-103" type="curve" smooth="yes"/>
      <point x="551" y="-70"/>
      <point x="564" y="-31"/>
      <point x="602" y="5" type="curve"/>
      <point x="527" y="202" type="line"/>
      <point x="231" y="202" type="line"/>
      <point x="152" y="0" type="line"/>
      <point x="32" y="0" type="line"/>
      <point x="288" y="730" type="line"/>
      <point x="411" y="730" type="line"/>
      <point x="678" y="0" type="line"/>
      <point x="677" y="0" type="line"/>
      <point x="660" y="-12"/>
      <point x="646" y="-42"/>
      <point x="646" y="-81" type="curve" smooth="yes"/>
      <point x="646" y="-129"/>
      <point x="685" y="-162"/>
      <point x="733" y="-163" type="curve" smooth="yes"/>
      <point x="749" y="-163"/>
      <point x="766" y="-162"/>
      <point x="780" y="-155" type="curve"/>
    </contour>
  </outline>
</glyph>
<glyph name="Cacute" format="1">
  <advance width="730"/>
  <unicode hex="0106"/>
  <outline>
    <contour>
      <point x="217" y="773" type="curve"/>
      <point x="205" y="795" type="line"/>
      <point x="240" y="898"/>
      <point x="379" y="961"/>
      <point x="486" y="940" type="curve"/>
      <point x="481" y="814" type="line"/>
      <point x="403" y="853"/>
      <point x="271" y="835"/>
    </contour>
    <contour>
      <point x="596" y="255" type="curve"/>
      <point x="655" y="210" type="line"/>
      <point x="622" y="69"/>
      <point x="522" y="-10"/>
      <point x="354" y="-10" type="curve" smooth="yes"/>
      <point x="182" y="-10"/>
      <point x="65" y="108"/>
      <point x="65" y="354" type="curve" smooth="yes"/>
      <point x="65" y="631"/>
      <point x="190" y="741"/>
      <point x="364" y="740" type="curve" smooth="yes"/>
      <point x="506" y="739"/>
      <point x="608" y="692"/>
      <point x="647" y="538" type="curve"/>
      <point x="579" y="481" type="line"/>
      <point x="544" y="525"/>
      <point x="473" y="553"/>
      <point x="364" y="553" type="curve" smooth="yes"/>
      <point x="213" y="553"/>
      <point x="128" y="472"/>
      <point x="127" y="342" type="curve" smooth="yes"/>
      <point x="126" y="211"/>
      <point x="205" y="129"/>
      <point x="368" y="129" type="curve" smooth="yes"/>
      <point x="482" y="129"/>
      <point x="570" y="177"/>
    </contour>
  </outline>
</glyph>
<glyph name="Cdotaccent" format="1">
  <advance width="730"/>
  <unicode hex="010A"/>
  <outline>
    <contour>
      <point x="451" y="850" type="curve" smooth="yes"/>
      <point x="451" y="802"/>
      <point x="419" y="779"/>
      <point x="368" y="779" type="curve" smooth="yes"/>
      <point x="310" y="779"/>
      <point x="279" y="802"/>
      <point x="279" y="850" type="curve" smooth="yes"/>
      <point x="279" y="902"/>
      <point x="309" y="924"/>
      <point x="368" y="924" type="curve" smooth="yes"/>
      <point x="420" y="924"/>
      <point x="451" y="903"/>
    </contour>
    <contour>
      <point x="596" y="255" type="curve"/>
      <point x="655" y="210" type="line"/>
      <point x="622" y="69"/>
      <point x="522" y="-10"/>
      <point x="354" y="-10" type="curve" smooth="yes"/>
      <point x="182" y="-10"/>
      <point x="65" y="108"/>
      <point x="65" y="354" type="curve" smooth="yes"/>
      <point x="65" y="631"/>
      <point x="190" y="741"/>
      <point x="364" y="740" type="curve" smooth="yes"/>
      <point x="506" y="739"/>
      <point x="608" y="692"/>
      <point x="647" y="538" type="curve"/>
      <point x="579" y="481" type="line"/>
      <point x="544" y="525"/>
      <point x="473" y="553"/>
      <point x="364" y="553" type="curve" smooth="yes"/>
      <point x="213" y="553"/>
      <point x="128" y="472"/>
      <point x="127" y="342" type="curve" smooth="yes"/>
      <point x="126" y="211"/>
      <point x="205" y="129"/>
      <point x="368" y="129" type="curve" smooth="yes"/>
      <point x="482" y="129"/>
      <point x="570" y="177"/>
    </contour>
  </outline>
</glyph>
<glyph name="Ccaron" format="1">
  <advance width="730"/>
  <unicode hex="010C"/>
  <outline>
    <contour>
      <point x="547" y="950" type="curve"/>
      <point x="547" y="916" type="line"/>
      <point x="479" y="904"/>
      <point x="407" y="835"/>
      <point x="375" y="775" type="curve"/>
      <point x="355" y="775" type="line"/>
      <point x="323" y="835"/>
      <point x="251" y="904"/>
      <point x="183" y="916" type="curve"/>
      <point x="183" y="950" type="line"/>
      <point x="255" y="955"/>
      <point x="345" y="936"/>
      <point x="365" y="896" type="curve"/>
      <point x="385" y="936"/>
      <point x="475" y="955"/>
    </contour>
    <contour>
      <point x="596" y="255" type="curve"/>
      <point x="655" y="210" type="line"/>
      <point x="622" y="69"/>
      <point x="522" y="-10"/>
      <point x="354" y="-10" type="curve" smooth="yes"/>
      <point x="182" y="-10"/>
      <point x="65" y="108"/>
      <point x="65" y="354" type="curve" smooth="yes"/>
      <point x="65" y="631"/>
      <point x="190" y="741"/>
      <point x="364" y="740" type="curve" smooth="yes"/>
      <point x="506" y="739"/>
      <point x="608" y="692"/>
      <point x="647" y="538" type="curve"/>
      <point x="579" y="481" type="line"/>
      <point x="544" y="525"/>
      <point x="473" y="553"/>
      <point x="364" y="553" type="curve" smooth="yes"/>
      <point x="213" y="553"/>
      <point x="128" y="472"/>
      <point x="127" y="342" type="curve" smooth="yes"/>
      <point x="126" y="211"/>
      <point x="205" y="129"/>
      <point x="368" y="129" type="curve" smooth="yes"/>
      <point x="482" y="129"/>
      <point x="570" y="177"/>
    </contour>
  </outline>
</glyph>
<glyph name="Dcaron" format="1">
  <advance width="780"/>
  <unicode hex="010E"/>
  <outline>
    <contour>
      <point x="547" y="950" type="curve"/>
      <point x="547" y="916" type="line"/>
      <point x="479" y="904"/>
      <point x="407" y="835"/>
      <point x="375" y="775" type="curve"/>
      <point x="355" y="775" type="line"/>
      <point x="323" y="835"/>
      <point x="251" y="904"/>
      <point x="183" y="916" type="curve"/>
      <point x="183" y="950" type="line"/>
      <point x="255" y="955"/>
      <point x="345" y="936"/>
      <point x="365" y="896" type="curve"/>
      <point x="385" y="936"/>
      <point x="475" y="955"/>
    </contour>
    <contour>
      <point x="130" y="0" type="line"/>
      <point x="130" y="730" type="line"/>
      <point x="373" y="730" type="line" smooth="yes"/>
      <point x="552" y="730"/>
      <point x="681" y="626"/>
      <point x="681" y="359" type="curve" smooth="yes"/>
      <point x="681" y="90"/>
      <point x="553" y="0"/>
      <point x="377" y="0" type="curve" smooth="yes"/>
    </contour>
    <contour>
      <point x="202" y="144" type="line"/>
      <point x="411" y="144" type="line" smooth="yes"/>
      <point x="516" y="144"/>
      <point x="620" y="225"/>
      <point x="620" y="346" type="curve" smooth="yes"/>
      <point x="620" y="466"/>
      <point x="531" y="555"/>
      <point x="394" y="555" type="curve" smooth="yes"/>
      <point x="202" y="555" type="line"/>
    </contour>
  </outline>
</glyph>
<glyph name="dcaron" format="1">
  <advance width="680"/>
  <unicode hex="010F"/>
  <outline>
    <contour>
      <point x="495" y="497" type="line"/>
      <point x="561" y="551"/>
      <point x="583" y="696"/>
      <point x="546" y="780" type="curve"/>
      <point x="672" y="780" type="line"/>
      <point x="691" y="663"/>
      <point x="621" y="515"/>
      <point x="515" y="483" type="curve"/>
    </contour>
    <contour>
      <point x="241" y="108" type="curve" smooth="yes"/>
      <point x="315" y="108"/>
      <point x="365" y="120"/>
      <point x="399" y="168" type="curve"/>
      <point x="399" y="266" type="line" smooth="yes"/>
      <point x="398" y="340"/>
      <point x="355" y="398"/>
      <point x="239" y="398" type="curve" smooth="yes"/>
      <point x="137" y="398"/>
      <point x="84" y="340"/>
      <point x="84" y="266" type="curve" smooth="yes"/>
      <point x="83" y="172"/>
      <point x="136" y="108"/>
    </contour>
    <contour>
      <point x="409" y="0" type="line"/>
      <point x="402" y="86" type="line"/>
      <point x="371" y="31"/>
      <point x="310" y="-10"/>
      <point x="237" y="-10" type="curve" smooth="yes"/>
      <point x="103" y="-10"/>
      <point x="25" y="91"/>
      <point x="25" y="266" type="curve" smooth="yes"/>
      <point x="25" y="481"/>
      <point x="109" y="561"/>
      <point x="233" y="560" type="curve" smooth="yes"/>
      <point x="296" y="559"/>
      <point x="365" y="536"/>
      <point x="399" y="461" type="curve"/>
      <point x="399" y="780" type="line"/>
      <point x="464" y="780" type="line"/>
      <point x="464" y="0" type="line"/>
    </contour>
  </outline>
</glyph>
<glyph name="Dcroat" format="1">
  <advance width="780"/>
  <unicode hex="0110"/>
  <outline>
    <contour>
      <point x="367" y="0" type="curve" smooth="yes"/>
      <point x="120" y="0" type="line"/>
      <point x="120" y="292" type="line"/>
      <point x="40" y="292" type="line"/>
      <point x="40" y="403" type="line"/>
      <point x="120" y="403" type="line"/>
      <point x="120" y="730" type="line"/>
      <point x="363" y="730" type="line" smooth="yes"/>
      <point x="542" y="730"/>
      <point x="671" y="626"/>
      <point x="671" y="359" type="curve" smooth="yes"/>
      <point x="671" y="90"/>
      <point x="543" y="0"/>
    </contour>
    <contour>
      <point x="192" y="144" type="line"/>
      <point x="401" y="144" type="line" smooth="yes"/>
      <point x="506" y="144"/>
      <point x="610" y="225"/>
      <point x="610" y="346" type="curve" smooth="yes"/>
      <point x="610" y="466"/>
      <point x="521" y="555"/>
      <point x="384" y="555" type="curve" smooth="yes"/>
      <point x="192" y="555" type="line"/>
      <point x="192" y="403" type="line"/>
      <point x="408" y="403" type="line"/>
      <point x="408" y="292" type="line"/>
      <point x="192" y="292" type="line"/>
    </contour>
  </outline>
</glyph>
<glyph name="dcroat" format="1">
  <advance width="530"/>
  <unicode hex="0111"/>
  <outline>
    <contour>
      <point x="241" y="108" type="curve" smooth="yes"/>
      <point x="315" y="108"/>
      <point x="365" y="120"/>
      <point x="399" y="168" type="curve"/>
      <point x="399" y="266" type="line" smooth="yes"/>
      <point x="398" y="340"/>
      <point x="355" y="398"/>
      <point x="239" y="398" type="curve" smooth="yes"/>
      <point x="137" y="398"/>
      <point x="84" y="340"/>
      <point x="84" y="266" type="curve" smooth="yes"/>
      <point x="83" y="172"/>
      <point x="136" y="108"/>
    </contour>
    <contour>
      <point x="409" y="0" type="line"/>
      <point x="402" y="86" type="line"/>
      <point x="371" y="31"/>
      <point x="310" y="-10"/>
      <point x="237" y="-10" type="curve" smooth="yes"/>
      <point x="103" y="-10"/>
      <point x="25" y="91"/>
      <point x="25" y="266" type="curve" smooth="yes"/>
      <point x="25" y="481"/>
      <point x="109" y="561"/>
      <point x="233" y="560" type="curve" smooth="yes"/>
      <point x="296" y="559"/>
      <point x="365" y="536"/>
      <point x="399" y="461" type="curve"/>
      <point x="399" y="621" type="line"/>
      <point x="287" y="621" type="line"/>
      <point x="287" y="695" type="line"/>
      <point x="399" y="695" type="line"/>
      <point x="399" y="780" type="line"/>
      <point x="464" y="780" type="line"/>
      <point x="464" y="695" type="line"/>
      <point x="557" y="695" type="line"/>
      <point x="557" y="621" type="line"/>
      <point x="464" y="621" type="line"/>
      <point x="464" y="0" type="line"/>
    </contour>
  </outline>
</glyph>
<glyph name="Emacron" format="1">
  <advance width="630"/>
  <unicode hex="0112"/>
  <outline>
    <contour>
      <point x="479" y="791" type="line"/>
      <point x="131" y="791" type="line"/>
      <point x="131" y="890" type="line"/>
      <point x="479" y="890" type="line"/>
    </contour>
    <contour>
      <point x="80" y="0" type="line"/>
      <point x="80" y="730" type="line"/>
      <point x="524" y="730" type="line"/>
      <point x="524" y="550" type="line"/>
      <point x="151" y="550" type="line"/>
      <point x="151" y="398" type="line"/>
      <point x="433" y="398" type="line"/>
      <point x="433" y="312" type="line"/>
      <point x="151" y="312" type="line"/>
      <point x="151" y="131" type="line"/>
      <point x="530" y="131" type="line"/>
      <point x="530" y="0" type="line"/>
    </contour>
  </outline>
</glyph>
<glyph name="Ebreve" format="1">
  <advance width="630"/>
  <unicode hex="0114"/>
  <outline>
    <contour>
      <point x="300" y="779" type="curve" smooth="yes"/>
      <point x="204" y="779"/>
      <point x="135" y="834"/>
      <point x="135" y="960" type="curve"/>
      <point x="186" y="960" type="line"/>
      <point x="185" y="889"/>
      <point x="239" y="866"/>
      <point x="300" y="866" type="curve" smooth="yes"/>
      <point x="369" y="866"/>
      <point x="426" y="889"/>
      <point x="425" y="960" type="curve"/>
      <point x="475" y="960" type="line"/>
      <point x="475" y="834"/>
      <point x="402" y="779"/>
    </contour>
    <contour>
      <point x="80" y="0" type="line"/>
      <point x="80" y="730" type="line"/>
      <point x="524" y="730" type="line"/>
      <point x="524" y="550" type="line"/>
      <point x="151" y="550" type="line"/>
      <point x="151" y="398" type="line"/>
      <point x="433" y="398" type="line"/>
      <point x="433" y="312" type="line"/>
      <point x="151" y="312" type="line"/>
      <point x="151" y="131" type="line"/>
      <point x="530" y="131" type="line"/>
      <point x="530" y="0" type="line"/>
    </contour>
  </outline>
</glyph>
<glyph name="Edotaccent" format="1">
  <advance width="630"/>
  <unicode hex="0116"/>
  <outline>
    <contour>
      <point x="391" y="850" type="curve" smooth="yes"/>
      <point x="391" y="802"/>
      <point x="359" y="779"/>
      <point x="308" y="779" type="curve" smooth="yes"/>
      <point x="250" y="779"/>
      <point x="219" y="802"/>
      <point x="219" y="850" type="curve" smooth="yes"/>
      <point x="219" y="902"/>
      <point x="249" y="924"/>
      <point x="308" y="924" type="curve" smooth="yes"/>
      <point x="360" y="924"/>
      <point x="391" y="903"/>
    </contour>
    <contour>
      <point x="80" y="0" type="line"/>
      <point x="80" y="730" type="line"/>
      <point x="524" y="730" type="line"/>
      <point x="524" y="550" type="line"/>
      <point x="151" y="550" type="line"/>
      <point x="151" y="398" type="line"/>
      <point x="433" y="398" type="line"/>
      <point x="433" y="312" type="line"/>
      <point x="151" y="312" type="line"/>
      <point x="151" y="131" type="line"/>
      <point x="530" y="131" type="line"/>
      <point x="530" y="0" type="line"/>
    </contour>
  </outline>
</glyph>
<glyph name="Eogonek" format="1">
  <advance width="630"/>
  <unicode hex="0118"/>
  <outline>
    <contour>
      <point x="426" y="-190" type="line"/>
      <point x="404" y="-203"/>
      <point x="366" y="-210"/>
      <point x="324" y="-210" type="curve" smooth="yes"/>
      <point x="233" y="-210"/>
      <point x="185" y="-167"/>
      <point x="184" y="-103" type="curve" smooth="yes"/>
      <point x="184" y="-72"/>
      <point x="195" y="-35"/>
      <point x="230" y="0" type="curve"/>
      <point x="80" y="0" type="line"/>
      <point x="80" y="730" type="line"/>
      <point x="524" y="730" type="line"/>
      <point x="524" y="550" type="line"/>
      <point x="151" y="550" type="line"/>
      <point x="151" y="398" type="line"/>
      <point x="433" y="398" type="line"/>
      <point x="433" y="312" type="line"/>
      <point x="151" y="312" type="line"/>
      <point x="151" y="131" type="line"/>
      <point x="530" y="131" type="line"/>
      <point x="530" y="0" type="line"/>
      <point x="310" y="0" type="line"/>
      <point x="293" y="-12"/>
      <point x="279" y="-42"/>
      <point x="279" y="-81" type="curve" smooth="yes"/>
      <point x="279" y="-129"/>
      <point x="318" y="-162"/>
      <point x="366" y="-163" type="curve" smooth="yes"/>
      <point x="382" y="-163"/>
      <point x="399" y="-162"/>
      <point x="413" y="-155" type="curve"/>
    </contour>
  </outline>
</glyph>
<glyph name="eogonek" format="1">
  <advance width="530"/>
  <unicode hex="0119"/>
  <outline>
    <contour>
      <point x="255" y="418" type="curve" smooth="yes"/>
      <point x="180" y="418"/>
      <point x="110" y="373"/>
      <point x="96" y="297" type="curve"/>
      <point x="420" y="297" type="line"/>
      <point x="420" y="358"/>
      <point x="357" y="418"/>
    </contour>
    <contour>
      <point x="409" y="-190" type="line"/>
      <point x="387" y="-203"/>
      <point x="349" y="-210"/>
      <point x="307" y="-210" type="curve" smooth="yes"/>
      <point x="216" y="-210"/>
      <point x="168" y="-167"/>
      <point x="167" y="-103" type="curve" smooth="yes"/>
      <point x="167" y="-73"/>
      <point x="177" y="-38"/>
      <point x="209" y="-5" type="curve"/>
      <point x="94" y="20"/>
      <point x="35" y="125"/>
      <point x="35" y="267" type="curve" smooth="yes"/>
      <point x="35" y="480"/>
      <point x="140" y="560"/>
      <point x="260" y="560" type="curve" smooth="yes"/>
      <point x="396" y="560"/>
      <point x="485" y="460"/>
      <point x="485" y="232" type="curve"/>
      <point x="96" y="232" type="line"/>
      <point x="109" y="144"/>
      <point x="168" y="102"/>
      <point x="260" y="101" type="curve" smooth="yes"/>
      <point x="348" y="100"/>
      <point x="390" y="121"/>
      <point x="419" y="161" type="curve"/>
      <point x="466" y="126" type="line"/>
      <point x="435" y="56"/>
      <point x="370" y="-1"/>
      <point x="284" y="-9" type="curve"/>
      <point x="271" y="-24"/>
      <point x="262" y="-50"/>
      <point x="262" y="-81" type="curve" smooth="yes"/>
      <point x="262" y="-129"/>
      <point x="301" y="-162"/>
      <point x="349" y="-163" type="curve" smooth="yes"/>
      <point x="365" y="-163"/>
      <point x="382" y="-162"/>
      <point x="396" y="-155" type="curve"/>
    </contour>
  </outline>
</glyph>
<glyph name="Ecaron" format="1">
  <advance width="630"/>
  <unicode hex="011A"/>
  <outline>
    <contour>
      <point x="487" y="950" type="curve"/>
      <point x="487" y="916" type="line"/>
      <point x="419" y="904"/>
      <point x="347" y="835"/>
      <point x="315" y="775" type="curve"/>
      <point x="295" y="775" type="line"/>
      <point x="263" y="835"/>
      <point x="191" y="904"/>
      <point x="123" y="916" type="curve"/>
      <point x="123" y="950" type="line"/>
      <point x="195" y="955"/>
      <point x="285" y="936"/>
      <point x="305" y="896" type="curve"/>
      <point x="325" y="936"/>
      <point x="415" y="955"/>
    </contour>
    <contour>
      <point x="80" y="0" type="line"/>
      <point x="80" y="730" type="line"/>
      <point x="524" y="730" type="line"/>
      <point x="524" y="550" type="line"/>
      <point x="151" y="550" type="line"/>
      <point x="151" y="398" type="line"/>
      <point x="433" y="398" type="line"/>
      <point x="433" y="312" type="line"/>
      <point x="151" y="312" type="line"/>
      <point x="151" y="131" type="line"/>
      <point x="530" y="131" type="line"/>
      <point x="530" y="0" type="line"/>
    </contour>
  </outline>
</glyph>
<glyph name="Hcircumflex" format="1">
  <advance width="780"/>
  <unicode hex="0124"/>
  <outline>
    <contour>
      <point x="547" y="785" type="line"/>
      <point x="479" y="780"/>
      <point x="385" y="799"/>
      <point x="365" y="839" type="curve"/>
      <point x="345" y="799"/>
      <point x="251" y="780"/>
      <point x="183" y="785" type="curve"/>
      <point x="183" y="819" type="line"/>
      <point x="247" y="830"/>
      <point x="323" y="901"/>
      <point x="355" y="960" type="curve"/>
      <point x="375" y="960" type="line"/>
      <point x="407" y="901"/>
      <point x="483" y="830"/>
      <point x="547" y="819" type="curve"/>
    </contour>
    <contour>
      <point x="186" y="0" type="line"/>
      <point x="115" y="0" type="line"/>
      <point x="115" y="730" type="line"/>
      <point x="186" y="730" type="line"/>
      <point x="186" y="450" type="line"/>
      <point x="574" y="450" type="line"/>
      <point x="574" y="730" type="line"/>
      <point x="645" y="730" type="line"/>
      <point x="645" y="0" type="line"/>
      <point x="574" y="0" type="line"/>
      <point x="574" y="275" type="line"/>
      <point x="186" y="275" type="line"/>
    </contour>
  </outline>
</glyph>
<glyph name="Hbar" format="1">
  <advance width="780"/>
  <unicode hex="0126"/>
  <outline>
    <contour>
      <point x="186" y="450" type="line"/>
      <point x="574" y="450" type="line"/>
      <point x="574" y="550" type="line"/>
      <point x="186" y="550" type="line"/>
    </contour>
    <contour>
      <point x="186" y="275" type="line"/>
      <point x="186" y="0" type="line"/>
      <point x="115" y="0" type="line"/>
      <point x="115" y="550" type="line"/>
      <point x="60" y="550" type="line"/>
      <point x="60" y="624" type="line"/>
      <point x="115" y="624" type="line"/>
      <point x="115" y="730" type="line"/>
      <point x="186" y="730" type="line"/>
      <point x="186" y="624" type="line"/>
      <point x="574" y="624" type="line"/>
      <point x="574" y="730" type="line"/>
      <point x="645" y="730" type="line"/>
      <point x="645" y="624" type="line"/>
      <point x="721" y="624" type="line"/>
      <point x="721" y="550" type="line"/>
      <point x="645" y="550" type="line"/>
      <point x="645" y="0" type="line"/>
      <point x="574" y="0" type="line"/>
      <point x="574" y="275" type="line"/>
    </contour>
  </outline>
</glyph>
<glyph name="Itilde" format="1">
  <advance width="480"/>
  <unicode hex="0128"/>
  <outline>
    <contour>
      <point x="237" y="906" type="curve" smooth="yes"/>
      <point x="314" y="886"/>
      <point x="388" y="889"/>
      <point x="407" y="910" type="curve"/>
      <point x="414" y="897" type="line"/>
      <point x="380" y="811"/>
      <point x="301" y="772"/>
      <point x="234" y="795" type="curve" smooth="yes"/>
      <point x="151" y="823"/>
      <point x="86" y="811"/>
      <point x="64" y="786" type="curve"/>
      <point x="57" y="799" type="line"/>
      <point x="84" y="876"/>
      <point x="154" y="928"/>
    </contour>
    <contour>
      <point x="410" y="0" type="line"/>
      <point x="50" y="0" type="line"/>
      <point x="50" y="141" type="line"/>
      <point x="196" y="141" type="line"/>
      <point x="196" y="550" type="line"/>
      <point x="56" y="550" type="line"/>
      <point x="56" y="730" type="line"/>
      <point x="404" y="730" type="line"/>
      <point x="404" y="550" type="line"/>
      <point x="268" y="550" type="line"/>
      <point x="268" y="141" type="line"/>
      <point x="410" y="141" type="line"/>
    </contour>
  </outline>
</glyph>
<glyph name="Iogonek" format="1">
  <advance width="480"/>
  <unicode hex="012E"/>
  <outline>
    <contour>
      <point x="386" y="-190" type="line"/>
      <point x="364" y="-203"/>
      <point x="326" y="-210"/>
      <point x="284" y="-210" type="curve" smooth="yes"/>
      <point x="193" y="-210"/>
      <point x="145" y="-167"/>
      <point x="144" y="-103" type="curve" smooth="yes"/>
      <point x="144" y="-72"/>
      <point x="155" y="-35"/>
      <point x="190" y="0" type="curve"/>
      <point x="50" y="0" type="line"/>
      <point x="50" y="141" type="line"/>
      <point x="196" y="141" type="line"/>
      <point x="196" y="550" type="line"/>
      <point x="56" y="550" type="line"/>
      <point x="56" y="730" type="line"/>
      <point x="404" y="730" type="line"/>
      <point x="404" y="550" type="line"/>
      <point x="268" y="550" type="line"/>
      <point x="268" y="141" type="line"/>
      <point x="410" y="141" type="line"/>
      <point x="410" y="0" type="line"/>
      <point x="270" y="0" type="line"/>
      <point x="253" y="-12"/>
      <point x="239" y="-42"/>
      <point x="239" y="-81" type="curve" smooth="yes"/>
      <point x="239" y="-129"/>
      <point x="278" y="-162"/>
      <point x="326" y="-163" type="curve" smooth="yes"/>
      <point x="342" y="-163"/>
      <point x="359" y="-162"/>
      <point x="373" y="-155" type="curve"/>
    </contour>
  </outline>
</glyph>
<glyph name="iogonek" format="1">
  <advance width="330"/>
  <unicode hex="012F"/>
  <outline>
    <contour>
      <point x="240" y="709" type="curve" smooth="yes"/>
      <point x="240" y="652"/>
      <point x="206" y="625"/>
      <point x="154" y="625" type="curve" smooth="yes"/>
      <point x="96" y="625"/>
      <point x="64" y="652"/>
      <point x="64" y="709" type="curve" smooth="yes"/>
      <point x="64" y="766"/>
      <point x="94" y="790"/>
      <point x="154" y="790" type="curve" smooth="yes"/>
      <point x="208" y="790"/>
      <point x="240" y="767"/>
    </contour>
    <contour>
      <point x="333" y="-190" type="line"/>
      <point x="311" y="-203"/>
      <point x="273" y="-210"/>
      <point x="231" y="-210" type="curve" smooth="yes"/>
      <point x="140" y="-210"/>
      <point x="92" y="-167"/>
      <point x="91" y="-103" type="curve" smooth="yes"/>
      <point x="91" y="-64"/>
      <point x="109" y="-14"/>
      <point x="170" y="27" type="curve"/>
      <point x="170" y="366" type="line"/>
      <point x="45" y="366" type="line"/>
      <point x="45" y="530" type="line"/>
      <point x="235" y="530" type="line"/>
      <point x="235" y="0" type="line"/>
      <point x="217" y="0" type="line"/>
      <point x="200" y="-12"/>
      <point x="186" y="-42"/>
      <point x="186" y="-81" type="curve" smooth="yes"/>
      <point x="186" y="-129"/>
      <point x="225" y="-162"/>
      <point x="273" y="-163" type="curve" smooth="yes"/>
      <point x="289" y="-163"/>
      <point x="306" y="-162"/>
      <point x="320" y="-155" type="curve"/>
    </contour>
  </outline>
</glyph>
<glyph name="IJ" format="1">
  <advance width="830"/>
  <unicode hex="0132"/>
  <outline>
    <contour>
      <point x="350" y="0" type="line"/>
      <point x="60" y="0" type="line"/>
      <point x="60" y="141" type="line"/>
      <point x="206" y="141" type="line"/>
      <point x="206" y="550" type="line"/>
      <point x="66" y="550" type="line"/>
      <point x="66" y="730" type="line"/>
      <point x="380" y="730" type="line"/>
      <point x="380" y="550" type="line"/>
      <point x="278" y="550" type="line"/>
      <point x="278" y="141" type="line"/>
      <point x="350" y="141" type="line"/>
    </contour>
    <contour>
      <point x="565" y="-10" type="curve" smooth="yes"/>
      <point x="511" y="-10"/>
      <point x="456" y="-2"/>
      <point x="426" y="18" type="curve"/>
      <point x="426" y="159" type="line"/>
      <point x="461" y="140"/>
      <point x="508" y="129"/>
      <point x="552" y="129" type="curve" smooth="yes"/>
      <point x="622" y="129"/>
      <point x="665" y="183"/>
      <point x="665" y="306" type="curve" smooth="yes"/>
      <point x="665" y="555" type="line"/>
      <point x="454" y="555" type="line"/>
      <point x="454" y="730" type="line"/>
      <point x="735" y="730" type="line"/>
      <point x="735" y="276" type="line" smooth="yes"/>
      <point x="735" y="71"/>
      <point x="682" y="-10"/>
    </contour>
  </outline>
</glyph>
<glyph name="ij" format="1">
  <advance width="530"/>
  <unicode hex="0133"/>
  <outline>
    <contour>
      <point x="230" y="709" type="curve" smooth="yes"/>
      <point x="230" y="652"/>
      <point x="196" y="625"/>
      <point x="144" y="625" type="curve" smooth="yes"/>
      <point x="86" y="625"/>
      <point x="54" y="652"/>
      <point x="54" y="709" type="curve" smooth="yes"/>
      <point x="54" y="766"/>
      <point x="84" y="790"/>
      <point x="144" y="790" type="curve" smooth="yes"/>
      <point x="198" y="790"/>
      <point x="230" y="767"/>
    </contour>
    <contour>
      <point x="495" y="709" type="curve" smooth="yes"/>
      <point x="495" y="652"/>
      <point x="461" y="625"/>
      <point x="409" y="625" type="curve" smooth="yes"/>
      <point x="351" y="625"/>
      <point x="319" y="652"/>
      <point x="319" y="709" type="curve" smooth="yes"/>
      <point x="319" y="766"/>
      <point x="349" y="790"/>
      <point x="409" y="790" type="curve" smooth="yes"/>
      <point x="463" y="790"/>
      <point x="495" y="767"/>
    </contour>
    <contour>
      <point x="160" y="0" type="line"/>
      <point x="160" y="366" type="line"/>
      <point x="35" y="366" type="line"/>
      <point x="35" y="530" type="line"/>
      <point x="225" y="530" type="line"/>
      <point x="225" y="0" type="line"/>
    </contour>
    <contour>
      <point x="480" y="-67" type="line" smooth="yes"/>
      <point x="480" y="-159"/>
      <point x="436" y="-210"/>
      <point x="358" y="-210" type="curve" smooth="yes"/>
      <point x="292" y="-210"/>
      <point x="251" y="-179"/>
      <point x="232" y="-148" type="curve"/>
      <point x="260" y="-48" type="line"/>
      <point x="283" y="-73"/>
      <point x="315" y="-81"/>
      <point x="339" y="-80" type="curve" smooth="yes"/>
      <point x="387" y="-78"/>
      <point x="415" y="-58"/>
      <point x="415" y="11" type="curve" smooth="yes"/>
      <point x="415" y="368" type="line"/>
      <point x="300" y="368" type="line"/>
      <point x="300" y="540" type="line"/>
      <point x="480" y="540" type="line"/>
    </contour>
  </outline>
</glyph>
<glyph name="Lacute" format="1">
  <advance width="530"/>
  <unicode hex="0139"/>
  <outline>
    <contour>
      <point x="-13" y="773" type="curve"/>
      <point x="-25" y="795" type="line"/>
      <point x="10" y="898"/>
      <point x="149" y="961"/>
      <point x="256" y="940" type="curve"/>
      <point x="251" y="814" type="line"/>
      <point x="173" y="853"/>
      <point x="41" y="835"/>
    </contour>
    <contour>
      <point x="445" y="0" type="line"/>
      <point x="75" y="0" type="line"/>
      <point x="75" y="730" type="line"/>
      <point x="143" y="730" type="line"/>
      <point x="143" y="145" type="line"/>
      <point x="445" y="145" type="line"/>
    </contour>
  </outline>
</glyph>
<glyph name="lacute" format="1">
  <advance width="380"/>
  <unicode hex="013A"/>
  <outline>
    <contour>
      <point x="-24" y="793" type="curve"/>
      <point x="-36" y="815" type="line"/>
      <point x="-1" y="918"/>
      <point x="138" y="981"/>
      <point x="245" y="960" type="curve"/>
      <point x="240" y="834" type="line"/>
      <point x="162" y="873"/>
      <point x="30" y="855"/>
    </contour>
    <contour>
      <point x="250" y="-10" type="curve" smooth="yes"/>
      <point x="162" y="-10"/>
      <point x="120" y="37"/>
      <point x="120" y="149" type="curve" smooth="yes"/>
      <point x="120" y="630" type="line"/>
      <point x="32" y="630" type="line"/>
      <point x="32" y="780" type="line"/>
      <point x="188" y="780" type="line"/>
      <point x="188" y="225" type="line" smooth="yes"/>
      <point x="188" y="165"/>
      <point x="210" y="130"/>
      <point x="268" y="130" type="curve" smooth="yes"/>
      <point x="308" y="130"/>
      <point x="338" y="141"/>
      <point x="357" y="161" type="curve"/>
      <point x="385" y="52" type="line"/>
      <point x="363" y="20"/>
      <point x="322" y="-10"/>
    </contour>
  </outline>
</glyph>
<glyph name="Lcommaaccent" format="1">
  <advance width="530"/>
  <unicode hex="013B"/>
  <outline>
    <contour>
      <point x="445" y="0" type="line"/>
      <point x="75" y="0" type="line"/>
      <point x="75" y="730" type="line"/>
      <point x="143" y="730" type="line"/>
      <point x="143" y="145" type="line"/>
      <point x="445" y="145" type="line"/>
    </contour>
    <contour>
      <point x="154" y="-210" type="curve"/>
      <point x="134" y="-196" type="line"/>
      <point x="188" y="-152"/>
      <point x="207" y="-106"/>
      <point x="185" y="-56" type="curve"/>
      <point x="311" y="-56" type="line"/>
      <point x="321" y="-119"/>
      <point x="256" y="-179"/>
    </contour>
  </outline>
</glyph>
<glyph name="Lcaron" format="1">
  <advance width="530"/>
  <unicode hex="013D"/>
  <outline>
    <contour>
      <point x="311" y="447" type="line"/>
      <point x="377" y="501"/>
      <point x="399" y="646"/>
      <point x="362" y="730" type="curve"/>
      <point x="488" y="730" type="line"/>
      <point x="507" y="613"/>
      <point x="437" y="465"/>
      <point x="331" y="433" type="curve"/>
    </contour>
    <contour>
      <point x="445" y="0" type="line"/>
      <point x="75" y="0" type="line"/>
      <point x="75" y="730" type="line"/>
      <point x="143" y="730" type="line"/>
      <point x="143" y="145" type="line"/>
      <point x="445" y="145" type="line"/>
    </contour>
  </outline>
</glyph>
<glyph name="lcaron" format="1">
  <advance width="380"/>
  <unicode hex="013E"/>
  <outline>
    <contour>
      <point x="250" y="-10" type="curve" smooth="yes"/>
      <point x="162" y="-10"/>
      <point x="120" y="37"/>
      <point x="120" y="149" type="curve" smooth="yes"/>
      <point x="120" y="630" type="line"/>
      <point x="32" y="630" type="line"/>
      <point x="32" y="780" type="line"/>
      <point x="188" y="780" type="line"/>
      <point x="188" y="225" type="line" smooth="yes"/>
      <point x="188" y="165"/>
      <point x="210" y="130"/>
      <point x="268" y="130" type="curve" smooth="yes"/>
      <point x="308" y="130"/>
      <point x="338" y="141"/>
      <point x="357" y="161" type="curve"/>
      <point x="385" y="52" type="line"/>
      <point x="363" y="20"/>
      <point x="322" y="-10"/>
    </contour>
    <contour>
      <point x="227" y="496" type="line"/>
      <point x="293" y="550"/>
      <point x="315" y="695"/>
      <point x="278" y="779" type="curve"/>
      <point x="404" y="779" type="line"/>
      <point x="423" y="662"/>
      <point x="353" y="514"/>
      <point x="247" y="482" type="curve"/>
    </contour>
  </outline>
</glyph>
<glyph name="Ldot" format="1">
  <advance width="530"/>
  <unicode hex="013F"/>
  <outline>
    <contour>
      <point x="445" y="0" type="line"/>
      <point x="75" y="0" type="line"/>
      <point x="75" y="730" type="line"/>
      <point x="143" y="730" type="line"/>
      <point x="143" y="145" type="line"/>
      <point x="445" y="145" type="line"/>
    </contour>
    <contour>
      <point x="459" y="352" type="curve" smooth="yes"/>
      <point x="459" y="304"/>
      <point x="427" y="281"/>
      <point x="376" y="281" type="curve" smooth="yes"/>
      <point x="318" y="281"/>
      <point x="287" y="304"/>
      <point x="287" y="352" type="curve" smooth="yes"/>
      <point x="287" y="404"/>
      <point x="317" y="426"/>
      <point x="376" y="426" type="curve" smooth="yes"/>
      <point x="428" y="426"/>
      <point x="459" y="405"/>
    </contour>
  </outline>
</glyph>
<glyph name="ldot" format="1">
  <advance width="430"/>
  <unicode hex="0140"/>
  <outline>
    <contour>
      <point x="250" y="-10" type="curve" smooth="yes"/>
      <point x="162" y="-10"/>
      <point x="120" y="37"/>
      <point x="120" y="149" type="curve" smooth="yes"/>
      <point x="120" y="630" type="line"/>
      <point x="32" y="630" type="line"/>
      <point x="32" y="780" type="line"/>
      <point x="188" y="780" type="line"/>
      <point x="188" y="225" type="line" smooth="yes"/>
      <point x="188" y="165"/>
      <point x="210" y="130"/>
      <point x="268" y="130" type="curve" smooth="yes"/>
      <point x="308" y="130"/>
      <point x="338" y="141"/>
      <point x="357" y="161" type="curve"/>
      <point x="385" y="52" type="line"/>
      <point x="363" y="20"/>
      <point x="322" y="-10"/>
    </contour>
    <contour>
      <point x="413" y="313" type="curve" smooth="yes"/>
      <point x="413" y="265"/>
      <point x="381" y="242"/>
      <point x="330" y="242" type="curve" smooth="yes"/>
      <point x="272" y="242"/>
      <point x="241" y="265"/>
      <point x="241" y="313" type="curve" smooth="yes"/>
      <point x="241" y="365"/>
      <point x="271" y="387"/>
      <point x="330" y="387" type="curve" smooth="yes"/>
      <point x="382" y="387"/>
      <point x="413" y="366"/>
    </contour>
  </outline>
</glyph>
<glyph name="Lslash" format="1">
  <advance width="530"/>
  <unicode hex="0141"/>
  <outline>
    <contour>
      <point x="445" y="0" type="line"/>
      <point x="75" y="0" type="line"/>
      <point x="75" y="304" type="line"/>
      <point x="-10" y="271" type="line"/>
      <point x="-10" y="397" type="line"/>
      <point x="75" y="430" type="line"/>
      <point x="75" y="730" type="line"/>
      <point x="143" y="730" type="line"/>
      <point x="143" y="457" type="line"/>
      <point x="328" y="530" type="line"/>
      <point x="328" y="404" type="line"/>
      <point x="143" y="331" type="line"/>
      <point x="143" y="145" type="line"/>
      <point x="445" y="145" type="line"/>
    </contour>
  </outline>
</glyph>
<glyph name="lslash" format="1">
  <advance width="380"/>
  <unicode hex="0142"/>
  <outline>
    <contour>
      <point x="250" y="-10" type="curve" smooth="yes"/>
      <point x="162" y="-10"/>
      <point x="120" y="37"/>
      <point x="120" y="149" type="curve" smooth="yes"/>
      <point x="120" y="320" type="line"/>
      <point x="11" y="270" type="line"/>
      <point x="11" y="401" type="line"/>
      <point x="120" y="451" type="line"/>
      <point x="120" y="630" type="line"/>
      <point x="32" y="630" type="line"/>
      <point x="32" y="780" type="line"/>
      <point x="188" y="780" type="line"/>
      <point x="188" y="482" type="line"/>
      <point x="338" y="550" type="line"/>
      <point x="338" y="419" type="line"/>
      <point x="188" y="351" type="line"/>
      <point x="188" y="225" type="line" smooth="yes"/>
      <point x="188" y="165"/>
      <point x="210" y="130"/>
      <point x="268" y="130" type="curve" smooth="yes"/>
      <point x="308" y="130"/>
      <point x="338" y="141"/>
      <point x="357" y="161" type="curve"/>
      <point x="385" y="52" type="line"/>
      <point x="363" y="20"/>
      <point x="322" y="-10"/>
    </contour>
  </outline>
</glyph>
<glyph name="Nacute" format="1">
  <advance width="780"/>
  <unicode hex="0143"/>
  <outline>
    <contour>
      <point x="217" y="773" type="curve"/>
      <point x="205" y="795" type="line"/>
      <point x="240" y="898"/>
      <point x="379" y="961"/>
      <point x="486" y="940" type="curve"/>
      <point x="481" y="814" type="line"/>
      <point x="403" y="853"/>
      <point x="271" y="835"/>
    </contour>
    <contour>
      <point x="519" y="0" type="line"/>
      <point x="167" y="590" type="line"/>
      <point x="167" y="0" type="line"/>
      <point x="95" y="0" type="line"/>
      <point x="95" y="730" type="line"/>
      <point x="261" y="730" type="line"/>
      <point x="593" y="106" type="line"/>
      <point x="593" y="730" type="line"/>
      <point x="665" y="730" type="line"/>
      <point x="665" y="0" type="line"/>
    </contour>
  </outline>
</glyph>
<glyph name="nacute" format="1">
  <advance width="530"/>
  <unicode hex="0144"/>
  <outline>
    <contour>
      <point x="126" y="613" type="curve"/>
      <point x="114" y="635" type="line"/>
      <point x="149" y="738"/>
      <point x="288" y="801"/>
      <point x="395" y="780" type="curve"/>
      <point x="390" y="654" type="line"/>
      <point x="312" y="693"/>
      <point x="180" y="675"/>
    </contour>
    <contour>
      <point x="270" y="389" type="curve" smooth="yes"/>
      <point x="194" y="389"/>
      <point x="137" y="360"/>
      <point x="110" y="290" type="curve"/>
      <point x="110" y="0" type="line"/>
      <point x="45" y="0" type="line"/>
      <point x="45" y="550" type="line"/>
      <point x="110" y="550" type="line"/>
      <point x="110" y="460" type="line"/>
      <point x="139" y="525"/>
      <point x="200" y="560"/>
      <point x="275" y="560" type="curve" smooth="yes"/>
      <point x="408" y="560"/>
      <point x="465" y="499"/>
      <point x="465" y="303" type="curve" smooth="yes"/>
      <point x="465" y="0" type="line"/>
      <point x="402" y="0" type="line"/>
      <point x="402" y="241" type="line" smooth="yes"/>
      <point x="402" y="343"/>
      <point x="364" y="389"/>
    </contour>
  </outline>
</glyph>
<glyph name="Ncaron" format="1">
  <advance width="780"/>
  <unicode hex="0147"/>
  <outline>
    <contour>
      <point x="547" y="950" type="curve"/>
      <point x="547" y="916" type="line"/>
      <point x="479" y="904"/>
      <point x="407" y="835"/>
      <point x="375" y="775" type="curve"/>
      <point x="355" y="775" type="line"/>
      <point x="323" y="835"/>
      <point x="251" y="904"/>
      <point x="183" y="916" type="curve"/>
      <point x="183" y="950" type="line"/>
      <point x="255" y="955"/>
      <point x="345" y="936"/>
      <point x="365" y="896" type="curve"/>
      <point x="385" y="936"/>
      <point x="475" y="955"/>
    </contour>
    <contour>
      <point x="519" y="0" type="line"/>
      <point x="167" y="590" type="line"/>
      <point x="167" y="0" type="line"/>
      <point x="95" y="0" type="line"/>
      <point x="95" y="730" type="line"/>
      <point x="261" y="730" type="line"/>
      <point x="593" y="106" type="line"/>
      <point x="593" y="730" type="line"/>
      <point x="665" y="730" type="line"/>
      <point x="665" y="0" type="line"/>
    </contour>
  </outline>
</glyph>
<glyph name="ncaron" format="1">
  <advance width="530"/>
  <unicode hex="0148"/>
  <outline>
    <contour>
      <point x="444" y="800" type="curve"/>
      <point x="444" y="766" type="line"/>
      <point x="376" y="754"/>
      <point x="304" y="685"/>
      <point x="272" y="625" type="curve"/>
      <point x="252" y="625" type="line"/>
      <point x="220" y="685"/>
      <point x="148" y="754"/>
      <point x="80" y="766" type="curve"/>
      <point x="80" y="800" type="line"/>
      <point x="152" y="805"/>
      <point x="242" y="786"/>
      <point x="262" y="746" type="curve"/>
      <point x="282" y="786"/>
      <point x="372" y="805"/>
    </contour>
    <contour>
      <point x="270" y="389" type="curve" smooth="yes"/>
      <point x="194" y="389"/>
      <point x="137" y="360"/>
      <point x="110" y="290" type="curve"/>
      <point x="110" y="0" type="line"/>
      <point x="45" y="0" type="line"/>
      <point x="45" y="550" type="line"/>
      <point x="110" y="550" type="line"/>
      <point x="110" y="460" type="line"/>
      <point x="139" y="525"/>
      <point x="200" y="560"/>
      <point x="275" y="560" type="curve" smooth="yes"/>
      <point x="408" y="560"/>
      <point x="465" y="499"/>
      <point x="465" y="303" type="curve" smooth="yes"/>
      <point x="465" y="0" type="line"/>
      <point x="402" y="0" type="line"/>
      <point x="402" y="241" type="line" smooth="yes"/>
      <point x="402" y="343"/>
      <point x="364" y="389"/>
    </contour>
  </outline>
</glyph>
<glyph name="omacron" format="1">
  <advance width="530"/>
  <unicode hex="014D"/>
  <outline>
    <contour>
      <point x="429" y="651" type="line"/>
      <point x="81" y="651" type="line"/>
      <point x="81" y="750" type="line"/>
      <point x="429" y="750" type="line"/>
    </contour>
    <contour>
      <point x="255" y="-10" type="curve" smooth="yes"/>
      <point x="122" y="-10"/>
      <point x="25" y="73"/>
      <point x="25" y="265" type="curve" smooth="yes"/>
      <point x="25" y="478"/>
      <point x="119" y="560"/>
      <point x="255" y="560" type="curve" smooth="yes"/>
      <point x="392" y="560"/>
      <point x="485" y="478"/>
      <point x="485" y="265" type="curve" smooth="yes"/>
      <point x="485" y="73"/>
      <point x="389" y="-10"/>
    </contour>
    <contour>
      <point x="255" y="107" type="curve" smooth="yes"/>
      <point x="348" y="107"/>
      <point x="427" y="146"/>
      <point x="426" y="265" type="curve" smooth="yes"/>
      <point x="425" y="345"/>
      <point x="368" y="402"/>
      <point x="255" y="402" type="curve" smooth="yes"/>
      <point x="143" y="402"/>
      <point x="85" y="345"/>
      <point x="84" y="265" type="curve" smooth="yes"/>
      <point x="83" y="146"/>
      <point x="162" y="107"/>
    </contour>
  </outline>
</glyph>
<glyph name="Ohungarumlaut" format="1">
  <advance width="730"/>
  <unicode hex="0150"/>
  <outline>
    <contour>
      <point x="425" y="776" type="curve"/>
      <point x="392" y="779" type="line"/>
      <point x="378" y="894"/>
      <point x="421" y="965"/>
      <point x="530" y="965" type="curve"/>
      <point x="544" y="907" type="line"/>
      <point x="491" y="896"/>
      <point x="437" y="850"/>
    </contour>
    <contour>
      <point x="243" y="776" type="curve"/>
      <point x="210" y="779" type="line"/>
      <point x="196" y="894"/>
      <point x="239" y="964"/>
      <point x="348" y="965" type="curve"/>
      <point x="362" y="907" type="line"/>
      <point x="309" y="896"/>
      <point x="255" y="849"/>
    </contour>
    <contour>
      <point x="355" y="-10" type="curve" smooth="yes"/>
      <point x="183" y="-10"/>
      <point x="58" y="99"/>
      <point x="58" y="351" type="curve" smooth="yes"/>
      <point x="58" y="632"/>
      <point x="179" y="740"/>
      <point x="355" y="740" type="curve" smooth="yes"/>
      <point x="531" y="740"/>
      <point x="652" y="632"/>
      <point x="652" y="351" type="curve" smooth="yes"/>
      <point x="652" y="99"/>
      <point x="528" y="-10"/>
    </contour>
    <contour>
      <point x="355" y="129" type="curve" smooth="yes"/>
      <point x="484" y="129"/>
      <point x="592" y="184"/>
      <point x="591" y="351" type="curve" smooth="yes"/>
      <point x="589" y="464"/>
      <point x="509" y="544"/>
      <point x="355" y="544" type="curve" smooth="yes"/>
      <point x="200" y="544"/>
      <point x="121" y="464"/>
      <point x="120" y="351" type="curve" smooth="yes"/>
      <point x="119" y="185"/>
      <point x="228" y="129"/>
    </contour>
  </outline>
</glyph>
<glyph name="OE" format="1">
  <advance width="980"/>
  <unicode hex="0152"/>
  <outline>
    <contour>
      <point x="374" y="129" type="curve" smooth="yes"/>
      <point x="416" y="129"/>
      <point x="446" y="136"/>
      <point x="479" y="148" type="curve"/>
      <point x="479" y="525" type="line"/>
      <point x="446" y="537"/>
      <point x="412" y="544"/>
      <point x="369" y="544" type="curve" smooth="yes"/>
      <point x="208" y="544"/>
      <point x="131" y="464"/>
      <point x="130" y="348" type="curve" smooth="yes"/>
      <point x="129" y="210"/>
      <point x="213" y="129"/>
    </contour>
    <contour>
      <point x="479" y="0" type="line"/>
      <point x="479" y="2" type="line"/>
      <point x="448" y="-6"/>
      <point x="413" y="-10"/>
      <point x="375" y="-10" type="curve" smooth="yes"/>
      <point x="188" y="-10"/>
      <point x="67" y="103"/>
      <point x="67" y="352" type="curve" smooth="yes"/>
      <point x="67" y="633"/>
      <point x="192" y="740"/>
      <point x="374" y="740" type="curve" smooth="yes"/>
      <point x="412" y="740"/>
      <point x="447" y="736"/>
      <point x="479" y="728" type="curve"/>
      <point x="479" y="730" type="line"/>
      <point x="868" y="730" type="line"/>
      <point x="868" y="551" type="line"/>
      <point x="548" y="551" type="line"/>
      <point x="548" y="398" type="line"/>
      <point x="777" y="398" type="line"/>
      <point x="777" y="312" type="line"/>
      <point x="548" y="312" type="line"/>
      <point x="548" y="131" type="line"/>
      <point x="874" y="131" type="line"/>
      <point x="874" y="0" type="line"/>
    </contour>
  </outline>
</glyph>
<glyph name="oe" format="1">
  <advance width="930"/>
  <unicode hex="0153"/>
  <outline>
    <contour>
      <point x="656" y="418" type="curve" smooth="yes"/>
      <point x="581" y="418"/>
      <point x="511" y="373"/>
      <point x="497" y="297" type="curve"/>
      <point x="821" y="297" type="line"/>
      <point x="821" y="358"/>
      <point x="758" y="418"/>
    </contour>
    <contour>
      <point x="259" y="107" type="curve" smooth="yes"/>
      <point x="352" y="107"/>
      <point x="431" y="146"/>
      <point x="430" y="265" type="curve" smooth="yes"/>
      <point x="429" y="345"/>
      <point x="372" y="402"/>
      <point x="259" y="402" type="curve" smooth="yes"/>
      <point x="147" y="402"/>
      <point x="89" y="345"/>
      <point x="88" y="265" type="curve" smooth="yes"/>
      <point x="87" y="146"/>
      <point x="166" y="107"/>
    </contour>
    <contour>
      <point x="867" y="126" type="line"/>
      <point x="834" y="50"/>
      <point x="760" y="-10"/>
      <point x="663" y="-10" type="curve" smooth="yes"/>
      <point x="565" y="-10"/>
      <point x="498" y="39"/>
      <point x="464" y="118" type="curve"/>
      <point x="427" y="30"/>
      <point x="352" y="-10"/>
      <point x="259" y="-10" type="curve" smooth="yes"/>
      <point x="126" y="-10"/>
      <point x="29" y="73"/>
      <point x="29" y="265" type="curve" smooth="yes"/>
      <point x="29" y="478"/>
      <point x="123" y="560"/>
      <point x="259" y="560" type="curve" smooth="yes"/>
      <point x="353" y="560"/>
      <point x="427" y="521"/>
      <point x="463" y="428" type="curve"/>
      <point x="502" y="522"/>
      <point x="578" y="560"/>
      <point x="661" y="560" type="curve" smooth="yes"/>
      <point x="797" y="560"/>
      <point x="886" y="460"/>
      <point x="886" y="232" type="curve"/>
      <point x="497" y="232" type="line"/>
      <point x="510" y="144"/>
      <point x="569" y="102"/>
      <point x="661" y="101" type="curve" smooth="yes"/>
      <point x="749" y="100"/>
      <point x="791" y="121"/>
      <point x="820" y="161" type="curve"/>
    </contour>
  </outline>
</glyph>
<glyph name="Racute" format="1">
  <advance width="730"/>
  <unicode hex="0154"/>
  <outline>
    <contour>
      <point x="187" y="773" type="curve"/>
      <point x="175" y="795" type="line"/>
      <point x="210" y="898"/>
      <point x="349" y="961"/>
      <point x="456" y="940" type="curve"/>
      <point x="451" y="814" type="line"/>
      <point x="373" y="853"/>
      <point x="241" y="835"/>
    </contour>
    <contour>
      <point x="562" y="-10" type="curve" smooth="yes"/>
      <point x="501" y="-10"/>
      <point x="468" y="60"/>
      <point x="451" y="166" type="curve" smooth="yes"/>
      <point x="443" y="216"/>
      <point x="400" y="244"/>
      <point x="341" y="244" type="curve" smooth="yes"/>
      <point x="166" y="244" type="line"/>
      <point x="166" y="0" type="line"/>
      <point x="95" y="0" type="line"/>
      <point x="95" y="730" type="line"/>
      <point x="335" y="730" type="line" smooth="yes"/>
      <point x="507" y="730"/>
      <point x="589" y="650"/>
      <point x="589" y="496" type="curve" smooth="yes"/>
      <point x="589" y="380"/>
      <point x="551" y="317"/>
      <point x="455" y="298" type="curve"/>
      <point x="488" y="275"/>
      <point x="507" y="241"/>
      <point x="514" y="198" type="curve" smooth="yes"/>
      <point x="524" y="140"/>
      <point x="539" y="118"/>
      <point x="571" y="118" type="curve" smooth="yes"/>
      <point x="592" y="118"/>
      <point x="611" y="121"/>
      <point x="622" y="132" type="curve"/>
      <point x="647" y="39" type="line"/>
      <point x="636" y="3"/>
      <point x="592" y="-10"/>
    </contour>
    <contour>
      <point x="374" y="383" type="line" smooth="yes"/>
      <point x="483" y="383"/>
      <point x="529" y="418"/>
      <point x="528" y="473" type="curve" smooth="yes"/>
      <point x="527" y="533"/>
      <point x="481" y="569"/>
      <point x="374" y="569" type="curve" smooth="yes"/>
      <point x="166" y="569" type="line"/>
      <point x="166" y="383" type="line"/>
    </contour>
  </outline>
</glyph>
<glyph name="Rcaron" format="1">
  <advance width="730"/>
  <unicode hex="0158"/>
  <outline>
    <contour>
      <point x="497" y="950" type="curve"/>
      <point x="497" y="916" type="line"/>
      <point x="429" y="904"/>
      <point x="357" y="835"/>
      <point x="325" y="775" type="curve"/>
      <point x="305" y="775" type="line"/>
      <point x="273" y="835"/>
      <point x="201" y="904"/>
      <point x="133" y="916" type="curve"/>
      <point x="133" y="950" type="line"/>
      <point x="205" y="955"/>
      <point x="295" y="936"/>
      <point x="315" y="896" type="curve"/>
      <point x="335" y="936"/>
      <point x="425" y="955"/>
    </contour>
    <contour>
      <point x="562" y="-10" type="curve" smooth="yes"/>
      <point x="501" y="-10"/>
      <point x="468" y="60"/>
      <point x="451" y="166" type="curve" smooth="yes"/>
      <point x="443" y="216"/>
      <point x="400" y="244"/>
      <point x="341" y="244" type="curve" smooth="yes"/>
      <point x="166" y="244" type="line"/>
      <point x="166" y="0" type="line"/>
      <point x="95" y="0" type="line"/>
      <point x="95" y="730" type="line"/>
      <point x="335" y="730" type="line" smooth="yes"/>
      <point x="507" y="730"/>
      <point x="589" y="650"/>
      <point x="589" y="496" type="curve" smooth="yes"/>
      <point x="589" y="380"/>
      <point x="551" y="317"/>
      <point x="455" y="298" type="curve"/>
      <point x="488" y="275"/>
      <point x="507" y="241"/>
      <point x="514" y="198" type="curve" smooth="yes"/>
      <point x="524" y="140"/>
      <point x="539" y="118"/>
      <point x="571" y="118" type="curve" smooth="yes"/>
      <point x="592" y="118"/>
      <point x="611" y="121"/>
      <point x="622" y="132" type="curve"/>
      <point x="647" y="39" type="line"/>
      <point x="636" y="3"/>
      <point x="592" y="-10"/>
    </contour>
    <contour>
      <point x="374" y="383" type="line" smooth="yes"/>
      <point x="483" y="383"/>
      <point x="529" y="418"/>
      <point x="528" y="473" type="curve" smooth="yes"/>
      <point x="527" y="533"/>
      <point x="481" y="569"/>
      <point x="374" y="569" type="curve" smooth="yes"/>
      <point x="166" y="569" type="line"/>
      <point x="166" y="383" type="line"/>
    </contour>
  </outline>
</glyph>
<glyph name="sacute" format="1">
  <advance width="530"/>
  <unicode hex="015B"/>
  <outline>
    <contour>
      <point x="126" y="613" type="curve"/>
      <point x="114" y="635" type="line"/>
      <point x="149" y="738"/>
      <point x="288" y="801"/>
      <point x="395" y="780" type="curve"/>
      <point x="390" y="654" type="line"/>
      <point x="312" y="693"/>
      <point x="180" y="675"/>
    </contour>
    <contour>
      <point x="255" y="560" type="curve" smooth="yes"/>
      <point x="344" y="560"/>
      <point x="406" y="528"/>
      <point x="438" y="472" type="curve"/>
      <point x="419" y="367" type="line"/>
      <point x="393" y="399"/>
      <point x="347" y="427"/>
      <point x="263" y="427" type="curve" smooth="yes"/>
      <point x="188" y="427"/>
      <point x="145" y="398"/>
      <point x="145" y="361" type="curve" smooth="yes"/>
      <point x="145" y="335"/>
      <point x="174" y="317"/>
      <point x="262" y="308" type="curve" smooth="yes"/>
      <point x="405" y="294"/>
      <point x="457" y="244"/>
      <point x="457" y="139" type="curve" smooth="yes"/>
      <point x="457" y="39"/>
      <point x="387" y="-10"/>
      <point x="258" y="-10" type="curve" smooth="yes"/>
      <point x="140" y="-10"/>
      <point x="83" y="39"/>
      <point x="54" y="93" type="curve"/>
      <point x="78" y="193" type="line"/>
      <point x="109" y="153"/>
      <point x="160" y="118"/>
      <point x="250" y="118" type="curve" smooth="yes"/>
      <point x="340" y="118"/>
      <point x="377" y="148"/>
      <point x="377" y="182" type="curve" smooth="yes"/>
      <point x="377" y="209"/>
      <point x="341" y="227"/>
      <point x="256" y="236" type="curve" smooth="yes"/>
      <point x="126" y="249"/>
      <point x="70" y="288"/>
      <point x="70" y="406" type="curve" smooth="yes"/>
      <point x="70" y="511"/>
      <point x="136" y="560"/>
    </contour>
  </outline>
</glyph>
<glyph name="scircumflex" format="1">
  <advance width="530"/>
  <unicode hex="015D"/>
  <outline>
    <contour>
      <point x="444" y="625" type="line"/>
      <point x="376" y="620"/>
      <point x="282" y="639"/>
      <point x="262" y="679" type="curve"/>
      <point x="242" y="639"/>
      <point x="148" y="620"/>
      <point x="80" y="625" type="curve"/>
      <point x="80" y="659" type="line"/>
      <point x="144" y="670"/>
      <point x="220" y="741"/>
      <point x="252" y="800" type="curve"/>
      <point x="272" y="800" type="line"/>
      <point x="304" y="741"/>
      <point x="380" y="670"/>
      <point x="444" y="659" type="curve"/>
    </contour>
    <contour>
      <point x="255" y="560" type="curve" smooth="yes"/>
      <point x="344" y="560"/>
      <point x="406" y="528"/>
      <point x="438" y="472" type="curve"/>
      <point x="419" y="367" type="line"/>
      <point x="393" y="399"/>
      <point x="347" y="427"/>
      <point x="263" y="427" type="curve" smooth="yes"/>
      <point x="188" y="427"/>
      <point x="145" y="398"/>
      <point x="145" y="361" type="curve" smooth="yes"/>
      <point x="145" y="335"/>
      <point x="174" y="317"/>
      <point x="262" y="308" type="curve" smooth="yes"/>
      <point x="405" y="294"/>
      <point x="457" y="244"/>
      <point x="457" y="139" type="curve" smooth="yes"/>
      <point x="457" y="39"/>
      <point x="387" y="-10"/>
      <point x="258" y="-10" type="curve" smooth="yes"/>
      <point x="140" y="-10"/>
      <point x="83" y="39"/>
      <point x="54" y="93" type="curve"/>
      <point x="78" y="193" type="line"/>
      <point x="109" y="153"/>
      <point x="160" y="118"/>
      <point x="250" y="118" type="curve" smooth="yes"/>
      <point x="340" y="118"/>
      <point x="377" y="148"/>
      <point x="377" y="182" type="curve" smooth="yes"/>
      <point x="377" y="209"/>
      <point x="341" y="227"/>
      <point x="256" y="236" type="curve" smooth="yes"/>
      <point x="126" y="249"/>
      <point x="70" y="288"/>
      <point x="70" y="406" type="curve" smooth="yes"/>
      <point x="70" y="511"/>
      <point x="136" y="560"/>
    </contour>
  </outline>
</glyph>
